<?xml version="1.0" standalone="no"?>
<!DOCTYPE svg PUBLIC "-//W3C//DTD SVG 20010904//EN"
 "http://www.w3.org/TR/2001/REC-SVG-20010904/DTD/svg10.dtd">
<svg version="1.0" xmlns="http://www.w3.org/2000/svg"
 width="112.000000pt" height="119.000000pt" viewBox="0 0 112.000000 119.000000"
 preserveAspectRatio="xMidYMid meet">

<g transform="translate(0.000000,119.000000) scale(0.100000,-0.100000)"
fill="#000000" stroke="none">
<path d="M460 1108 c-14 -6 -63 -16 -110 -23 -60 -10 -89 -19 -98 -32 -40 -54
-102 -159 -102 -173 0 -8 -12 -40 -26 -70 -29 -63 -28 -115 7 -252 25 -101 24
-117 -8 -150 l-26 -28 26 -20 c14 -11 28 -34 32 -50 9 -39 20 -45 84 -45 71 0
79 -13 60 -93 l-15 -61 45 -19 c95 -40 127 -47 227 -46 85 0 113 5 177 28 43
15 77 33 77 40 0 6 -11 28 -25 48 -18 27 -24 45 -19 63 6 25 8 26 60 19 l54
-6 0 39 c0 31 7 46 30 68 35 34 37 48 10 82 -34 43 -20 103 32 141 16 12 18
30 18 163 0 164 4 152 -74 212 -20 16 -53 53 -73 83 -20 30 -45 56 -57 59
-189 37 -259 43 -306 23z m-80 -527 c0 -5 14 -14 31 -20 31 -11 32 -11 25 -63
-9 -62 -26 -84 -78 -100 -29 -8 -44 -8 -64 0 -13 7 -34 12 -45 12 -17 0 -19 4
-13 36 5 28 2 42 -15 65 -12 17 -21 35 -18 42 7 21 177 48 177 28z m435 -18
c37 -18 44 -36 21 -59 -10 -10 -13 -26 -9 -50 7 -40 0 -48 -58 -64 -27 -7 -47
-7 -75 2 -35 12 -39 18 -56 73 -21 73 -22 75 -4 75 8 0 33 9 57 20 54 24 78
25 124 3z m-257 -138 c7 -14 12 -33 12 -41 0 -9 8 -32 17 -51 22 -48 10 -64
-51 -69 -51 -4 -86 8 -86 29 0 25 71 157 84 157 7 0 18 -11 24 -25z"/>
</g>
</svg>
