<?xml version="1.0" encoding="UTF-8"?>
<svg version="1.1" xmlns="http://www.w3.org/2000/svg" width="64" height="64">
<path d="M0 0 C3.27629787 0.17051364 3.83720232 0.41255477 6.375 2.75 C7.86465954 5.32825689 8.9570585 7.78132268 10 10.5625 C10.53625 11.366875 11.0725 12.17125 11.625 13 C13.28367406 16.0911653 13.30769323 18.10095114 13 21.5625 C12.67 22.2225 12.34 22.8825 12 23.5625 C13.2375 23.500625 14.475 23.43875 15.75 23.375 C18.78211302 23.35887174 19.82248296 23.45598977 22.5 25.0625 C22.995 25.5575 23.49 26.0525 24 26.5625 C23.33492499 34.54340011 20.21154024 41.09326248 14.80859375 47.03515625 C11.32745311 49.9749532 7.28728006 51.19197605 3 52.5625 C1.89140625 52.94664063 0.7828125 53.33078125 -0.359375 53.7265625 C-10.74631216 57.1810416 -10.74631216 57.1810416 -15 55.5625 C-17.1543038 53.80252368 -19.02061814 52.11264027 -20.9375 50.125 C-21.46384033 49.58512451 -21.99018066 49.04524902 -22.5324707 48.48901367 C-29.32131608 41.33860106 -33.93186787 34.64605493 -34 24.5625 C-34.02578125 23.655 -34.0515625 22.7475 -34.078125 21.8125 C-34.16101921 16.949373 -34.16101921 16.949373 -34 14.5625 C-33.67 14.2325 -33.34 13.9025 -33 13.5625 C-31.00390625 13.6484375 -31.00390625 13.6484375 -28.5625 13.9375 C-27.75941406 14.02773438 -26.95632812 14.11796875 -26.12890625 14.2109375 C-24 14.5625 -24 14.5625 -22 15.5625 C-22.0825 14.304375 -22.165 13.04625 -22.25 11.75 C-22.390625 9.60546875 -22.390625 9.60546875 -22 7.5625 C-19.86513774 5.34929417 -18.64850893 4.60303181 -15.5625 4.41015625 C-14.716875 4.48105469 -13.87125 4.55195313 -13 4.625 C-10.37878104 4.76754783 -10.37878104 4.76754783 -8 4.5625 C-3.35471738 0.1904693 -3.35471738 0.1904693 0 0 Z " fill="#D4D4D4" transform="translate(38,4.4375)"/>
<path d="M0 0 C3.05407033 -0.63461202 5.95538649 -0.69327063 9 0 C11 3 11 3 10.875 6.4375 C11.02639508 10.75225987 11.98642705 11.17477535 15 14 C15.5 16.5625 15.5 16.5625 15 19 C13.25 20.8125 13.25 20.8125 11 22 C9.68 22 8.36 22 7 22 C6.731875 22.78375 6.46375 23.5675 6.1875 24.375 C5 27 5 27 2 29 C-0.4375 29.4375 -0.4375 29.4375 -3 29 C-5.375 26.9375 -5.375 26.9375 -7 24 C-6.75 20.1875 -6.75 20.1875 -6 17 C-6.78375 16.731875 -7.5675 16.46375 -8.375 16.1875 C-11 15 -11 15 -13 12 C-13.3125 9.4375 -13.3125 9.4375 -13 7 C-10 5 -10 5 -6.5 5.1875 C-5.345 5.125625 -4.19 5.06375 -3 5 C-2.54625 4.175 -2.0925 3.35 -1.625 2.5 C-1.08875 1.675 -0.5525 0.85 0 0 Z " fill="#162E36" transform="translate(32,7)"/>
<path d="M0 0 C1.32 0 2.64 0 4 0 C4 0.66 4 1.32 4 2 C5.0828125 2.12375 5.0828125 2.12375 6.1875 2.25 C11.20842812 3.58891416 13.99099261 6.59216078 16.8125 10.8125 C20.35336759 17.47243903 20.02639771 26.19737789 18.4765625 33.44921875 C18.24066406 34.21685547 18.24066406 34.21685547 18 35 C11.43938733 32.30130826 3.70774838 24.66667234 0.8125 18.1875 C-0.84346958 12.37943023 -0.2263997 5.97024387 0 0 Z " fill="#262626" transform="translate(7,21)"/>
<path d="M0 0 C1.03761445 2.66904439 1.06814118 3.80653829 0.1015625 6.55078125 C-3.8491369 13.94005234 -8.27095096 20.2608244 -16.625 22.796875 C-18.32786078 23.13136551 -20.03958595 23.4244195 -21.7578125 23.66796875 C-24.37110861 24.05495511 -26.61097294 24.88512071 -29 26 C-28.85512777 18.32177206 -25.714057 12.97608801 -21 7 C-14.09706345 1.03216444 -8.97649684 -0.47898303 0 0 Z " fill="#585656" transform="translate(58,31)"/>
<path d="M0 0 C0.33 1.32 0.66 2.64 1 4 C-1.01822917 3.96744792 -3.03645833 3.93489583 -5.0546875 3.90234375 C-7.08185404 3.87350758 -7.08185404 3.87350758 -9 5 C-8.67 7.31 -8.34 9.62 -8 12 C-6.02 12.66 -4.04 13.32 -2 14 C-2.226875 15.2375 -2.45375 16.475 -2.6875 17.75 C-3.0477648 20.66299825 -3.15470436 21.69059128 -1.8125 24.375 C0.03697727 26.03315204 1.71077145 27.05273301 4 28 C2.35 28 0.7 28 -1 28 C-0.67 31.3 -0.34 34.6 0 38 C0.99 37.505 0.99 37.505 2 37 C1.88623383 39.12563103 1.75864369 41.2505261 1.625 43.375 C1.55539063 44.55835938 1.48578125 45.74171875 1.4140625 46.9609375 C1 50 1 50 -1 52 C-5.23318269 51.93397115 -7.45458962 50.05216609 -10.40307617 47.15356445 C-10.90943604 46.62851318 -11.4157959 46.10346191 -11.9375 45.5625 C-12.46384033 45.02262451 -12.99018066 44.48274902 -13.5324707 43.92651367 C-20.32131608 36.77610106 -24.93186787 30.08355493 -25 20 C-25.02578125 19.0925 -25.0515625 18.185 -25.078125 17.25 C-25.16101921 12.386873 -25.16101921 12.386873 -25 10 C-24.67 9.67 -24.34 9.34 -24 9 C-22.00390625 9.0859375 -22.00390625 9.0859375 -19.5625 9.375 C-18.75941406 9.46523438 -17.95632812 9.55546875 -17.12890625 9.6484375 C-15 10 -15 10 -13 11 C-13.0825 9.741875 -13.165 8.48375 -13.25 7.1875 C-13.215597 3.29996104 -13.215597 3.29996104 -11.5625 1 C-7.73363249 -0.4941922 -4.05973579 -0.23421553 0 0 Z M-22 12 C-22.08213806 14.16601109 -22.13969763 16.33295925 -22.1875 18.5 C-22.22230469 19.7065625 -22.25710937 20.913125 -22.29296875 22.15625 C-21.65531645 30.52224812 -18.43905732 35.33516372 -12.4375 41 C-11.84775391 41.58394531 -11.25800781 42.16789062 -10.65039062 42.76953125 C-7.82766826 45.92573277 -7.82766826 45.92573277 -4 47 C-1.92479286 40.17411205 -1.65701807 31.64789208 -4.12890625 24.93359375 C-6.95383904 19.98442951 -9.86168357 16.51206581 -15 14 C-15.99 14 -16.98 14 -18 14 C-18 13.34 -18 12.68 -18 12 C-19.32 12 -20.64 12 -22 12 Z " fill="#E3E2E2" transform="translate(29,9)"/>
<path d="M0 0 C0.66 0.33 1.32 0.66 2 1 C2 2.98 2 4.96 2 7 C4.64 7 7.28 7 10 7 C10.33 8.32 10.66 9.64 11 11 C12.65 10.67 14.3 10.34 16 10 C16 8.68 16 7.36 16 6 C16.99 6 17.98 6 19 6 C19.77825818 16.8437307 19.77825818 16.8437307 16.8125 21.25 C14 23 14 23 11.4375 23.625 C9 23 9 23 6.625 20.9375 C4.5433549 17.17452616 5.03413563 15.10492356 6 11 C5.21625 10.731875 4.4325 10.46375 3.625 10.1875 C1 9 1 9 -1 6 C-1.1875 3.375 -1.1875 3.375 -1 1 C-0.67 0.67 -0.34 0.34 0 0 Z " fill="#19313A" transform="translate(20,13)"/>
<path d="M0 0 C0.33 1.32 0.66 2.64 1 4 C1.66 4 2.32 4 3 4 C3.48220263 5.87422152 3.96061833 7.74941754 4.4375 9.625 C4.83775391 11.19121094 4.83775391 11.19121094 5.24609375 12.7890625 C7.39900129 21.95844072 7.39900129 21.95844072 6 26 C5.01 25.67 4.02 25.34 3 25 C3 24.01 3 23.02 3 22 C1.02043058 20.30911778 -0.97945196 18.64169528 -3 17 C-3 16.34 -3 15.68 -3 15 C-3.66 15 -4.32 15 -5 15 C-7 12 -7 12 -7 8 C-6.34 8 -5.68 8 -5 8 C-4.9175 7.05125 -4.835 6.1025 -4.75 5.125 C-4 2 -4 2 -1.9375 0.625 C-1.298125 0.41875 -0.65875 0.2125 0 0 Z " fill="#4D4D4D" transform="translate(19,30)"/>
<path d="M0 0 C1.09028577 2.74184292 1.07032136 3.81639831 -0.00390625 6.62109375 C-3.05334729 12.13148721 -5.58294871 16.62939031 -11 20 C-11.99 19.67 -12.98 19.34 -14 19 C-12.906875 18.29875 -11.81375 17.5975 -10.6875 16.875 C-6.29162821 13.73128563 -4.56672371 10.36993551 -3.3125 5.125 C-3.209375 4.42375 -3.10625 3.7225 -3 3 C-5.31 3.33 -7.62 3.66 -10 4 C-10 5.65 -10 7.3 -10 9 C-10.66 8.67 -11.32 8.34 -12 8 C-12 7.01 -12 6.02 -12 5 C-12.66 5 -13.32 5 -14 5 C-14 5.99 -14 6.98 -14 8 C-15.65 8.33 -17.3 8.66 -19 9 C-19.33 9.99 -19.66 10.98 -20 12 C-20.66 10.68 -21.32 9.36 -22 8 C-14.79658675 1.65413594 -9.66847448 -0.51590674 0 0 Z " fill="#212121" transform="translate(58,31)"/>
<path d="M0 0 C0.66 0 1.32 0 2 0 C2.20753906 0.845625 2.41507812 1.69125 2.62890625 2.5625 C5.85396462 14.43719189 11.74507729 20.30759671 21 28 C21.33 26.68 21.66 25.36 22 24 C22 24.66 22 25.32 22 26 C22.66 26 23.32 26 24 26 C24 28 24 28 22.75 29.6875 C21 31 21 31 19.1953125 30.859375 C11.83180968 27.976865 5.82220155 19.23200558 2.05078125 12.5390625 C0.35494631 8.44132007 0.01873508 4.40274469 0 0 Z " fill="#D1D1D2" transform="translate(4,28)"/>
<path d="M0 0 C-0.680625 0.45375 -1.36125 0.9075 -2.0625 1.375 C-5.54930322 4.49086671 -7.76133359 7.92376637 -10.25390625 11.85546875 C-12 14 -12 14 -16 15 C-16 11.37 -16 7.74 -16 4 C-14.6078125 3.566875 -14.6078125 3.566875 -13.1875 3.125 C-3.91477273 -0.14772727 -3.91477273 -0.14772727 0 0 Z " fill="#CCCACA" transform="translate(44,33)"/>
<path d="M0 0 C0.598125 0.165 1.19625 0.33 1.8125 0.5 C4.11344336 1.1114124 4.11344336 1.1114124 7 1 C12.49238382 8.41471816 12.57682463 14.98871743 12 24 C11.67 24 11.34 24 11 24 C10.49622232 21.73000175 9.99709981 19.45896997 9.5 17.1875 C9.2215625 15.92292969 8.943125 14.65835938 8.65625 13.35546875 C8 10 8 10 8 7 C7.34 7 6.68 7 6 7 C5.67 6.01 5.34 5.02 5 4 C1.67098753 6.21934164 1.24976756 7.34683329 0 11 C-0.66 11 -1.32 11 -2 11 C-2.33 11.66 -2.66 12.32 -3 13 C-2.85691406 12.43796875 -2.71382812 11.8759375 -2.56640625 11.296875 C-1.98879098 8.95454547 -1.45716693 6.60582341 -0.9375 4.25 C-0.76089844 3.45078125 -0.58429687 2.6515625 -0.40234375 1.828125 C-0.26957031 1.22484375 -0.13679687 0.6215625 0 0 Z " fill="#393939" transform="translate(14,27)"/>
<path d="M0 0 C3.10380501 0.77595125 5.25002779 1.5268006 8 3 C6.35 3 4.7 3 3 3 C3.33 6.3 3.66 9.6 4 13 C4.66 12.67 5.32 12.34 6 12 C5.88623383 14.12563103 5.75864369 16.2505261 5.625 18.375 C5.55539063 19.55835937 5.48578125 20.74171875 5.4140625 21.9609375 C5 25 5 25 3 27 C0.375 26.625 0.375 26.625 -2 26 C-1.34 25.67 -0.68 25.34 0 25 C0.33 24.01 0.66 23.02 1 22 C1.66 22 2.32 22 3 22 C3 21.34 3 20.68 3 20 C2.34 20 1.68 20 1 20 C0.67 13.4 0.34 6.8 0 0 Z " fill="#ECEDEC" transform="translate(25,34)"/>
<path d="M0 0 C1.65 0.99 3.3 1.98 5 3 C4.2822894 11.61252721 0.71610291 17.64877454 -5 24 C-5.71484375 22.41015625 -5.71484375 22.41015625 -6 20 C-4.56640625 16.87109375 -4.56640625 16.87109375 -2.5625 13.4375 C0.21461178 8.99459016 0.21461178 8.99459016 1 4 C-1.31 3.67 -3.62 3.34 -6 3 C-6 2.67 -6 2.34 -6 2 C-4.02 2 -2.04 2 0 2 C0 1.34 0 0.68 0 0 Z " fill="#C9C9C9" transform="translate(57,28)"/>
<path d="M0 0 C0.33 0 0.66 0 1 0 C1.33 1.98 1.66 3.96 2 6 C4.31 6.33 6.62 6.66 9 7 C9 7.66 9 8.32 9 9 C8.43152344 9.12117188 7.86304687 9.24234375 7.27734375 9.3671875 C3.51013635 10.18477842 -0.19650312 11.02960055 -3.875 12.1875 C-7 13 -7 13 -10 12 C-9.9375 10.1875 -9.9375 10.1875 -9 8 C-7.865625 7.525625 -6.73125 7.05125 -5.5625 6.5625 C-1.84060575 5.36767343 -1.84060575 5.36767343 -0.5625 2.3125 C-0.376875 1.549375 -0.19125 0.78625 0 0 Z " fill="#EBEBEB" transform="translate(48,21)"/>
<path d="M0 0 C1.75 0.875 1.75 0.875 2.75 1.875 C2.9375 4.8125 2.9375 4.8125 2.75 7.875 C2.09 8.535 1.43 9.195 0.75 9.875 C-2.875 9.5 -2.875 9.5 -6.25 8.875 C-7.0625 7.1875 -7.0625 7.1875 -7.25 4.875 C-3.31508876 -0.1841716 -3.31508876 -0.1841716 0 0 Z " fill="#0BD5EC" transform="translate(38.25,8.125)"/>
<path d="M0 0 C1.52519276 0.08937803 3.04681929 0.24537146 4.5625 0.4375 C5.80193359 0.59025391 5.80193359 0.59025391 7.06640625 0.74609375 C7.70449219 0.82988281 8.34257813 0.91367187 9 1 C9 2.98 9 4.96 9 7 C8.34 7 7.68 7 7 7 C7 7.66 7 8.32 7 9 C4.125 9.1875 4.125 9.1875 1 9 C-1.14809171 5.77786243 -1.29386153 4.72224599 -1 1 C-0.67 0.67 -0.34 0.34 0 0 Z " fill="#15DAEE" transform="translate(28,25)"/>
<path d="M0 0 C1.32 0 2.64 0 4 0 C4 0.66 4 1.32 4 2 C4.763125 2.12375 5.52625 2.2475 6.3125 2.375 C9 3 9 3 12 5 C11.67 5.99 11.34 6.98 11 8 C10.21625 7.525625 9.4325 7.05125 8.625 6.5625 C7.11051322 5.66101977 5.5764103 4.78820515 4 4 C3.34 7.3 2.68 10.6 2 14 C1.34 14 0.68 14 0 14 C0 9.38 0 4.76 0 0 Z " fill="#242424" transform="translate(7,21)"/>
<path d="M0 0 C3.0625 0.1875 3.0625 0.1875 5.0625 2.1875 C4.70894564 4.45024788 4.08705574 6.13838852 3.0625 8.1875 C1.06295254 8.23004356 -0.93791636 8.22830783 -2.9375 8.1875 C-3.9375 7.1875 -3.9375 7.1875 -4.0625 4.1875 C-3.89838889 0.24883333 -3.89838889 0.24883333 0 0 Z " fill="#12DFF5" transform="translate(24.9375,12.8125)"/>
<path d="M0 0 C0.33 0 0.66 0 1 0 C1 1.98 1 3.96 1 6 C0.34 6 -0.32 6 -1 6 C-1.33 7.32 -1.66 8.64 -2 10 C0.64 10 3.28 10 6 10 C2.15299368 12.08379509 -1.90054429 13.49686624 -6 15 C-5.57429438 8.82726847 -4.57782148 4.57782148 0 0 Z " fill="#353636" transform="translate(35,42)"/>
<path d="M0 0 C1.52519276 0.08937803 3.04681929 0.24537146 4.5625 0.4375 C5.80193359 0.59025391 5.80193359 0.59025391 7.06640625 0.74609375 C7.70449219 0.82988281 8.34257812 0.91367187 9 1 C9 1.99 9 2.98 9 4 C6.69 3.67 4.38 3.34 2 3 C2 6.96 2 10.92 2 15 C1.67 15 1.34 15 1 15 C1 13.35 1 11.7 1 10 C0.34 10 -0.32 10 -1 10 C-1.02689216 8.52093108 -1.04634621 7.04172517 -1.0625 5.5625 C-1.07410156 4.73878906 -1.08570313 3.91507813 -1.09765625 3.06640625 C-1 1 -1 1 0 0 Z " fill="#E5E5E5" transform="translate(5,18)"/>
<path d="M0 0 C2.8992226 0.46761655 3.86675182 0.86675182 6 3 C5.625 5.125 5.625 5.125 5 7 C2.69 7.33 0.38 7.66 -2 8 C-1.125 1.125 -1.125 1.125 0 0 Z " fill="#1ACBDD" transform="translate(40,19)"/>
<path d="M0 0 C0.66 0 1.32 0 2 0 C2.23074219 0.85722656 2.46148437 1.71445312 2.69921875 2.59765625 C4.62515494 9.34985152 6.47894716 14.59985356 11 20 C9.68 20 8.36 20 7 20 C1.73906015 14.20926995 0.03253885 7.64663056 0 0 Z " fill="#A9A9A9" transform="translate(4,28)"/>
<path d="M0 0 C0.66 0.66 1.32 1.32 2 2 C1.67 2.33 1.34 2.66 1 3 C1.28730055 5.33944736 1.61936779 7.6739143 2 10 C4.97 10.495 4.97 10.495 8 11 C8 10.34 8 9.68 8 9 C8.66 9 9.32 9 10 9 C10 7.35 10 5.7 10 4 C10.66 5.32 11.32 6.64 12 8 C7.79457364 12.80620155 7.79457364 12.80620155 4.4375 13.625 C2 13 2 13 -0.375 10.9375 C-2.46759758 7.15472746 -2.03046245 5.12184981 -1 1 C-0.67 0.67 -0.34 0.34 0 0 Z " fill="#2D3D3F" transform="translate(27,23)"/>
<path d="M0 0 C0.66 0 1.32 0 2 0 C4.7376287 4.67049515 5.33996234 7.98799719 5.1875 13.375 C5.14689453 15.24285156 5.14689453 15.24285156 5.10546875 17.1484375 C5.07066406 18.08945312 5.03585938 19.03046875 5 20 C4.67 20 4.34 20 4 20 C3.49622232 17.73000175 2.99709981 15.45896997 2.5 13.1875 C2.2215625 11.92292969 1.943125 10.65835938 1.65625 9.35546875 C1 6 1 6 1 3 C0.34 3 -0.32 3 -1 3 C-0.67 2.01 -0.34 1.02 0 0 Z " fill="#272727" transform="translate(21,31)"/>
<path d="M0 0 C3 1 3 1 4 3 C7.02934491 3.65772428 7.02934491 3.65772428 10 4 C8 6 8 6 5.1796875 6.1953125 C4.08914062 6.17210937 2.99859375 6.14890625 1.875 6.125 C0.77929688 6.10695313 -0.31640625 6.08890625 -1.4453125 6.0703125 C-2.28835937 6.04710937 -3.13140625 6.02390625 -4 6 C-2.25 1.125 -2.25 1.125 0 0 Z " fill="#535151" transform="translate(36,47)"/>
<path d="M0 0 C5.22015915 -0.43501326 5.22015915 -0.43501326 8 0 C10.5 2.3125 10.5 2.3125 12 5 C12 5.99 12 6.98 12 8 C11.01 8.33 10.02 8.66 9 9 C8.34 7.02 7.68 5.04 7 3 C4.36 3 1.72 3 -1 3 C-0.67 2.01 -0.34 1.02 0 0 Z " fill="#AFB1AF" transform="translate(34,5)"/>
<path d="M0 0 C1.65 0 3.3 0 5 0 C5.625 1.875 5.625 1.875 6 4 C5.34 4.66 4.68 5.32 4 6 C1.375 5.625 1.375 5.625 -1 5 C-0.67 3.35 -0.34 1.7 0 0 Z " fill="#939899" transform="translate(31,19)"/>
<path d="M0 0 C1.9375 0.625 1.9375 0.625 4 2 C4.75 5.125 4.75 5.125 5 8 C4.01 8.33 3.02 8.66 2 9 C0.4375 7.3125 0.4375 7.3125 -1 5 C-0.6875 2.25 -0.6875 2.25 0 0 Z " fill="#5D5C5C" transform="translate(19,35)"/>
<path d="M0 0 C0.80308594 -0.02578125 1.60617188 -0.0515625 2.43359375 -0.078125 C3.48740234 0.08429687 3.48740234 0.08429687 4.5625 0.25 C6.5625 3.25 6.5625 3.25 6.1875 5.9375 C5.98125 6.700625 5.775 7.46375 5.5625 8.25 C5.2325 8.25 4.9025 8.25 4.5625 8.25 C3.9025 6.27 3.2425 4.29 2.5625 2.25 C-0.78123475 2.80728913 -3.47062999 3.60173889 -6.4375 5.25 C-5.37798943 0.55788178 -4.83949773 0.09291836 0 0 Z " fill="#435B61" transform="translate(36.4375,6.75)"/>
<path d="M0 0 C2.97 0 5.94 0 9 0 C9.33 1.32 9.66 2.64 10 4 C6.7 4 3.4 4 0 4 C0 2.68 0 1.36 0 0 Z " fill="#CECDCD" transform="translate(20,9)"/>
<path d="M0 0 C0.99 0 1.98 0 3 0 C2.835 0.763125 2.67 1.52625 2.5 2.3125 C1.90854604 5.03596236 1.90854604 5.03596236 2 8 C1.01 8 0.02 8 -1 8 C-1.33 8.99 -1.66 9.98 -2 11 C-2.33 9.35 -2.66 7.7 -3 6 C-2.34 6 -1.68 6 -1 6 C-0.67 4.02 -0.34 2.04 0 0 Z " fill="#444546" transform="translate(15,32)"/>
<path d="M0 0 C0.33 0 0.66 0 1 0 C1.125 2.375 1.125 2.375 1 5 C0.34 5.66 -0.32 6.32 -1 7 C-4.625 6.625 -4.625 6.625 -8 6 C-8 5.34 -8 4.68 -8 4 C-3.25 2.875 -3.25 2.875 -1 4 C-0.67 2.68 -0.34 1.36 0 0 Z " fill="#1BE0F5" transform="translate(40,11)"/>
<path d="M0 0 C2.125 0.9375 2.125 0.9375 4 2 C3.67 3.32 3.34 4.64 3 6 C2.01 6 1.02 6 0 6 C-0.66 5.34 -1.32 4.68 -2 4 C-2 3.01 -2 2.02 -2 1 C-1.34 0.67 -0.68 0.34 0 0 Z " fill="#D3D5D9" transform="translate(44,13)"/>
<path d="M0 0 C0.66 1.32 1.32 2.64 2 4 C0.35 6.31 -1.3 8.62 -3 11 C-4 7 -4 7 -3.22265625 5.078125 C-1.61132812 2.5390625 -1.61132812 2.5390625 0 0 Z " fill="#C6C6C6" transform="translate(55,41)"/>
<path d="M0 0 C1.98 0 3.96 0 6 0 C4.19587357 3.26460973 3.16605307 4.88929795 0 7 C0 4.69 0 2.38 0 0 Z " fill="#8B8B8C" transform="translate(29,38)"/>
<path d="M0 0 C2.5 1.1875 2.5 1.1875 5 3 C5.3125 5.6875 5.3125 5.6875 5 8 C4.484375 7.360625 3.96875 6.72125 3.4375 6.0625 C0.34064377 3.44208319 -2.02067623 3.30610183 -6 3 C-6 2.67 -6 2.34 -6 2 C-4.02 2 -2.04 2 0 2 C0 1.34 0 0.68 0 0 Z " fill="#B0B0B0" transform="translate(57,28)"/>
<path d="M0 0 C1.4540625 0.0309375 1.4540625 0.0309375 2.9375 0.0625 C-0.0625 2.0625 -0.0625 2.0625 -2.0625 2.0625 C-2.0625 2.7225 -2.0625 3.3825 -2.0625 4.0625 C-1.4025 4.0625 -0.7425 4.0625 -0.0625 4.0625 C-0.0625 4.7225 -0.0625 5.3825 -0.0625 6.0625 C-1.3825 6.3925 -2.7025 6.7225 -4.0625 7.0625 C-4.10504356 5.06295254 -4.10330783 3.06208364 -4.0625 1.0625 C-3.0625 0.0625 -3.0625 0.0625 0 0 Z " fill="#0ED2E4" transform="translate(25.0625,12.9375)"/>
<path d="M0 0 C0.33 0.66 0.66 1.32 1 2 C1.66 2 2.32 2 3 2 C3 2.66 3 3.32 3 4 C3.66 4.33 4.32 4.66 5 5 C3.125 5.625 3.125 5.625 1 6 C0.34 5.34 -0.32 4.68 -1 4 C-4.08347826 3.83318891 -4.08347826 3.83318891 -7 4 C-6.1028125 3.566875 -6.1028125 3.566875 -5.1875 3.125 C-2.80672208 1.95257974 -2.80672208 1.95257974 0 0 Z " fill="#CCCFCE" transform="translate(46,26)"/>
<path d="M0 0 C0.66 1.32 1.32 2.64 2 4 C2.99 3.34 3.98 2.68 5 2 C4.67 3.98 4.34 5.96 4 8 C2.68 8 1.36 8 0 8 C0 5.36 0 2.72 0 0 Z " fill="#E4E4E4" transform="translate(26,44)"/>
<path d="M0 0 C0.66 0.99 1.32 1.98 2 3 C0.68 3 -0.64 3 -2 3 C-2 3.66 -2 4.32 -2 5 C-4.97 4.505 -4.97 4.505 -8 4 C-7.01 3.67 -6.02 3.34 -5 3 C-5 2.34 -5 1.68 -5 1 C-3.35 0.67 -1.7 0.34 0 0 Z " fill="#CFCCCB" transform="translate(19,19)"/>
<path d="M0 0 C1.5 1.25 1.5 1.25 3 3 C3 4.32 3 5.64 3 7 C4.65 6.67 6.3 6.34 8 6 C8 6.66 8 7.32 8 8 C5.125 8.1875 5.125 8.1875 2 8 C-0.1519437 4.77208445 -0.20086443 3.71599191 0 0 Z " fill="#1EC7DB" transform="translate(27,26)"/>
<path d="M0 0 C0.66 0.33 1.32 0.66 2 1 C1.6875 2.9375 1.6875 2.9375 1 5 C0.01 5.33 -0.98 5.66 -2 6 C-2.66 5.67 -3.32 5.34 -4 5 C-2.25 1.125 -2.25 1.125 0 0 Z " fill="#DADADA" transform="translate(50,48)"/>
<path d="M0 0 C3.26460973 1.80412643 4.88929795 2.83394693 7 6 C5.68 6 4.36 6 3 6 C0 2.78571429 0 2.78571429 0 0 Z " fill="#979897" transform="translate(8,42)"/>
<path d="M0 0 C0.928125 0.515625 1.85625 1.03125 2.8125 1.5625 C2.4825 2.5525 2.1525 3.5425 1.8125 4.5625 C1.02875 4.088125 0.245 3.61375 -0.5625 3.125 C-2.07698678 2.22351977 -3.6110897 1.35070515 -5.1875 0.5625 C-5.5175 1.2225 -5.8475 1.8825 -6.1875 2.5625 C-6.1875 1.5725 -6.1875 0.5825 -6.1875 -0.4375 C-3.1875 -1.4375 -3.1875 -1.4375 0 0 Z " fill="#101010" transform="translate(16.1875,24.4375)"/>
<path d="M0 0 C0.66 0 1.32 0 2 0 C0.8141763 3.37503669 -0.27573689 5.64722731 -3 8 C-3 3.77471908 -2.74375671 2.95481492 0 0 Z " fill="#D0CFCF" transform="translate(34,39)"/>
<path d="M0 0 C-0.33 2.64 -0.66 5.28 -1 8 C-1.66 7.67 -2.32 7.34 -3 7 C-2.79375 6.38125 -2.5875 5.7625 -2.375 5.125 C-2.25125 4.42375 -2.1275 3.7225 -2 3 C-2.66 2.34 -3.32 1.68 -4 1 C-2 0 -2 0 0 0 Z " fill="#4A4A4A" transform="translate(55,34)"/>
<path d="M0 0 C1.65 0.33 3.3 0.66 5 1 C4.01 1.495 4.01 1.495 3 2 C2.67 2.66 2.34 3.32 2 4 C1.01 4.66 0.02 5.32 -1 6 C-0.67 4.02 -0.34 2.04 0 0 Z " fill="#2A2A2A" transform="translate(11,25)"/>
</svg>
