<?xml version="1.0" encoding="UTF-8"?>
<svg version="1.1" xmlns="http://www.w3.org/2000/svg" width="64" height="64">
<path d="M0 0 C1.93359375 0.71484375 1.93359375 0.71484375 3.75 1.5625 C6.74452455 3.19859883 6.74452455 3.19859883 9.1875 2.8125 C11.02560303 2.02570952 11.02560303 2.02570952 12.77734375 0.97265625 C16.99045283 -0.87104175 21.50123726 -0.53463557 26 0 C29.5 1.75 29.5 1.75 32 4 C32.639375 4.556875 33.27875 5.11375 33.9375 5.6875 C35.764008 9.66284094 35.17279902 12.94702477 34 17 C32.86628348 19.78907287 31.58501666 22.489686 30.25 25.1875 C29.91508545 25.86458008 29.5801709 26.54166016 29.23510742 27.23925781 C26.93644627 31.6745264 24.30685359 35.2576096 21 39 C20.50113281 39.61488281 20.00226562 40.22976562 19.48828125 40.86328125 C16.22222222 44.88888889 16.22222222 44.88888889 14 46 C1.4077022 45.58713778 -10.62049414 40.15324743 -19.65625 31.39453125 C-22.18286551 28.53739917 -24.18009472 25.73512405 -25 22 C-23.86511844 16.10002568 -21.69130744 12.90191391 -17.625 8.75 C-17.14289062 8.234375 -16.66078125 7.71875 -16.1640625 7.1875 C-11.01189885 1.75532745 -7.74728904 -1.14399221 0 0 Z " fill="#1895A8" transform="translate(27,11)"/>
<path d="M0 0 C4.45059444 -0.11690117 7.4929221 0.82569962 11.08203125 3.5703125 C11.74203125 4.2303125 12.40203125 4.8903125 13.08203125 5.5703125 C12.41450763 15.84765736 7.51866385 26.47170865 0.08203125 33.5703125 C-0.57796875 33.5703125 -1.23796875 33.5703125 -1.91796875 33.5703125 C-2.57796875 34.8903125 -3.23796875 36.2103125 -3.91796875 37.5703125 C-15.4263043 36.22953554 -28.48992095 30.81668304 -35.8359375 21.74609375 C-37.11078615 19.18258942 -37.14077027 17.39741624 -36.91796875 14.5703125 C-34.3951422 17.09313905 -31.91796875 19.87421043 -31.91796875 23.5703125 C-31.25796875 23.5703125 -30.59796875 23.5703125 -29.91796875 23.5703125 C-29.58796875 22.9103125 -29.25796875 22.2503125 -28.91796875 21.5703125 C-26.35546875 20.9453125 -26.35546875 20.9453125 -23.91796875 20.5703125 C-23.91796875 21.2303125 -23.91796875 21.8903125 -23.91796875 22.5703125 C-22.92796875 22.5703125 -21.93796875 22.5703125 -20.91796875 22.5703125 C-20.91796875 20.2603125 -20.91796875 17.9503125 -20.91796875 15.5703125 C-18.91796875 15.5703125 -16.91796875 15.5703125 -14.91796875 15.5703125 C-14.60859375 14.6215625 -14.29921875 13.6728125 -13.98046875 12.6953125 C-12.91796875 9.5703125 -12.91796875 9.5703125 -11.91796875 7.5703125 C-11.19609375 7.7146875 -10.47421875 7.8590625 -9.73046875 8.0078125 C-6.88147202 7.90055841 -6.88147202 7.90055841 -5.75390625 6.01171875 C-5.37492187 5.37105469 -4.9959375 4.73039062 -4.60546875 4.0703125 C-2.46363688 0.7325682 -2.46363688 0.7325682 0 0 Z " fill="#1B727D" transform="translate(43.91796875,14.4296875)"/>
<path d="M0 0 C1.93359375 0.71484375 1.93359375 0.71484375 3.75 1.5625 C6.74452455 3.19859883 6.74452455 3.19859883 9.1875 2.8125 C11.02560303 2.02570952 11.02560303 2.02570952 12.77734375 0.97265625 C16.99045283 -0.87104175 21.50123726 -0.53463557 26 0 C29.5 1.75 29.5 1.75 32 4 C32.639375 4.556875 33.27875 5.11375 33.9375 5.6875 C35.764008 9.66284094 35.17279902 12.94702477 34 17 C32.86628348 19.78907287 31.58501666 22.489686 30.25 25.1875 C29.91508545 25.86458008 29.5801709 26.54166016 29.23510742 27.23925781 C26.93644627 31.6745264 24.30685359 35.2576096 21 39 C20.50113281 39.61488281 20.00226562 40.22976562 19.48828125 40.86328125 C16.22222222 44.88888889 16.22222222 44.88888889 14 46 C1.4077022 45.58713778 -10.62049414 40.15324743 -19.65625 31.39453125 C-22.18286551 28.53739917 -24.18009472 25.73512405 -25 22 C-23.86511844 16.10002568 -21.69130744 12.90191391 -17.625 8.75 C-17.14289062 8.234375 -16.66078125 7.71875 -16.1640625 7.1875 C-11.01189885 1.75532745 -7.74728904 -1.14399221 0 0 Z M-16.80859375 10.15625 C-19.93208645 14.53063786 -22.67603244 18.49516443 -22 24 C-15.70886 34.84255135 -4.52486905 38.44378121 6.6796875 42.25 C10.08624397 43.01948099 11.76999419 43.26931666 15 42 C23.12188056 34.60994966 30.32287676 22.72399007 32.25 11.875 C32.37668162 7.97590487 32.37668162 7.97590487 30 5.5625 C24.59359912 2.74666621 19.97918223 1.13980997 14 3 C11.60204619 4.81287195 11.60204619 4.81287195 10 7 C10 7.66 10 8.32 10 9 C9.37351562 8.57847656 8.74703125 8.15695313 8.1015625 7.72265625 C7.28429687 7.17480469 6.46703125 6.62695312 5.625 6.0625 C4.81289063 5.51722656 4.00078125 4.97195312 3.1640625 4.41015625 C-5.04291597 -0.93771239 -11.1560719 3.41717427 -16.80859375 10.15625 Z " fill="#DBDCDF" transform="translate(27,11)"/>
<path d="M0 0 C2.83131172 1.44246753 5.40432275 3.17361728 8 5 C8.99 5.66 9.98 6.32 11 7 C11.2475 6.401875 11.495 5.80375 11.75 5.1875 C13.28060076 2.50894866 14.22216527 1.38891737 17 0 C23.07436408 0.09957974 28.542461 1.542461 33 6 C33.22062853 18.57582611 25.25529307 30.31874382 17.2734375 39.47265625 C15 41 15 41 12.12109375 40.85546875 C10.57615234 40.43201172 10.57615234 40.43201172 9 40 C7.97261719 39.73703125 6.94523437 39.4740625 5.88671875 39.203125 C-5.14103774 35.91768839 -14.61133344 32.14464085 -21 22 C-21.67746254 15.67701629 -17.83273082 10.76551591 -14 6 C-9.53846587 1.9534923 -6.19277739 -0.81791399 0 0 Z M-11.51171875 5.2734375 C-16.76117104 11.22698948 -16.76117104 11.22698948 -19.33203125 18.515625 C-18.620166 23.84205206 -15.11621347 26.83133072 -11 30 C-7.52447385 31.92045837 -3.9560037 33.55020469 -0.3125 35.125 C0.61457764 35.52750977 1.54165527 35.93001953 2.49682617 36.34472656 C7.20301179 38.26138433 9.95971854 39.36816429 15 38 C15.33 37.01 15.66 36.02 16 35 C17.33166807 34.33001315 18.66519501 33.66371519 20 33 C25.43089608 26.80516713 30.49862235 17.53902927 31.24609375 9.28125 C31.18825261 6.81904578 31.18825261 6.81904578 29.1875 4.75 C25.76690636 2.01352509 22.35722108 1.5 18.0078125 1.5 C14.68325373 2.32790569 13.51179558 4.6514968 11.8125 7.46875 C11.544375 7.9740625 11.27625 8.479375 11 9 C6.68313121 8.61909981 4.79239831 6.96218006 1.6015625 4.1640625 C-3.12745483 0.72687429 -7.42486215 1.32978611 -11.51171875 5.2734375 Z " fill="#0F2D34" transform="translate(26,13)"/>
<path d="M0 0 C0 1.98 0 3.96 0 6 C3.465 5.505 3.465 5.505 7 5 C7 7.31 7 9.62 7 12 C5.35 12.33 3.7 12.66 2 13 C1.67 14.65 1.34 16.3 1 18 C-0.65 18.33 -2.3 18.66 -4 19 C-4.20625 18.195625 -4.4125 17.39125 -4.625 16.5625 C-5.07875 15.716875 -5.5325 14.87125 -6 14 C-9.05272465 13.10169161 -9.05272465 13.10169161 -12 13 C-12 10.69 -12 8.38 -12 6 C-9.69 6 -7.38 6 -5 6 C-5 4.35 -5 2.7 -5 1 C-2 0 -2 0 0 0 Z " fill="#EFF4F3" transform="translate(38,26)"/>
<path d="M0 0 C2.52282655 2.52282655 5 5.30389793 5 9 C5.66 9 6.32 9 7 9 C7.33 8.34 7.66 7.68 8 7 C10.5625 6.375 10.5625 6.375 13 6 C13 6.66 13 7.32 13 8 C13.99 8 14.98 8 16 8 C16 5.69 16 3.38 16 1 C16.66 0.67 17.32 0.34 18 0 C19.49106457 2.98212913 19.11941467 5.71609658 19 9 C18.67 9.33 18.34 9.66 18 10 C20.97 10.495 20.97 10.495 24 11 C24.33 13.64 24.66 16.28 25 19 C17.16644556 19.46559016 10.55376336 16.05373636 4.66796875 10.99609375 C0.06614827 6.05686891 0.06614827 6.05686891 -0.171875 2.25390625 C-0.11515625 1.51011719 -0.0584375 0.76632813 0 0 Z " fill="#2A808C" transform="translate(7,29)"/>
<path d="M0 0 C3.5 1.75 3.5 1.75 6 4 C6.639375 4.556875 7.27875 5.11375 7.9375 5.6875 C10.0583999 10.30357626 8.5428939 15.43518816 6.9375 20.0625 C6.628125 20.701875 6.31875 21.34125 6 22 C3.63425766 18.4513865 3.89134735 17.4235475 4.375 13.3125 C4.48585938 12.31863281 4.59671875 11.32476562 4.7109375 10.30078125 C4.80632813 9.54152344 4.90171875 8.78226563 5 8 C-0.12181694 4.6921599 -3.83774162 3 -10 3 C-12.85993478 4.76464061 -14.49782849 5.99565697 -16 9 C-19.9618914 7.23915938 -24.01467775 4.9706445 -26 1 C-25.278125 1.144375 -24.55625 1.28875 -23.8125 1.4375 C-22.4203125 1.7159375 -22.4203125 1.7159375 -21 2 C-20.175 2.2475 -19.35 2.495 -18.5 2.75 C-15.92137028 3.27717355 -15.92137028 3.27717355 -13.875 1.5625 C-9.39534627 -0.87209442 -4.98801984 -0.66653422 0 0 Z " fill="#C0C3C2" transform="translate(53,11)"/>
<path d="M0 0 C0.66 0 1.32 0 2 0 C1.71388139 6.72378722 -1.03608321 10.69417819 -5 16 C-5.60972656 16.82628906 -6.21945313 17.65257813 -6.84765625 18.50390625 C-11.51375405 24.67583603 -11.51375405 24.67583603 -15 27 C-21.44018741 27.38107618 -26.5063708 25.09640919 -32 22 C-32 21.34 -32 20.68 -32 20 C-31.27554687 20.13277344 -30.55109375 20.26554687 -29.8046875 20.40234375 C-28.83789062 20.57894531 -27.87109375 20.75554688 -26.875 20.9375 C-25.44800781 21.19853516 -25.44800781 21.19853516 -23.9921875 21.46484375 C-20.99842533 22.00028163 -18.00081912 22.50579982 -15 23 C-8.58756554 15.76107399 -3.94369721 8.86171961 0 0 Z " fill="#D8DDDF" transform="translate(56,30)"/>
<path d="M0 0 C0.33 0 0.66 0 1 0 C1.33 1.98 1.66 3.96 2 6 C4.31 6.66 6.62 7.32 9 8 C9.33 9.65 9.66 11.3 10 13 C11.65 12.67 13.3 12.34 15 12 C15 10.35 15 8.7 15 7 C15.99 7.33 16.98 7.66 18 8 C18.73046875 9.84765625 18.73046875 9.84765625 19.1875 12.0625 C19.34605469 12.79597656 19.50460938 13.52945313 19.66796875 14.28515625 C19.77753906 14.85105469 19.88710938 15.41695312 20 16 C19.34 16 18.68 16 18 16 C17.34 17.32 16.68 18.64 16 20 C12.0507432 19.44894091 8.65079826 18.61064629 5 17 C5.66 16.34 6.32 15.68 7 15 C7.16677282 11.41656024 7.16677282 11.41656024 7 8 C5.5459375 8.0309375 5.5459375 8.0309375 4.0625 8.0625 C1 8 1 8 0 7 C-0.04092937 4.66702567 -0.04241723 2.33294775 0 0 Z " fill="#1C555C" transform="translate(24,32)"/>
<path d="M0 0 C0.66 0.33 1.32 0.66 2 1 C1.29875 1.474375 0.5975 1.94875 -0.125 2.4375 C-4.29683938 6.15587858 -8.57537499 10.82751427 -9.33984375 16.5390625 C-8.69191738 21.23094309 -5.4968548 24.02506383 -2 27 C1.88367794 29.28764591 5.86653687 31.20815391 10 33 C10 33.33 10 33.66 10 34 C1.88655106 33.49290944 -3.44385251 29.87769077 -9.0625 24.125 C-11.38813282 21.27129918 -11.96973659 20.33289747 -12.3125 16.5625 C-9.81246719 9.77669665 -6.05706965 4.09742947 0 0 Z " fill="#0B1C25" transform="translate(17,15)"/>
<path d="M0 0 C0.66 0 1.32 0 2 0 C3.01855626 1.19672937 3.98978615 2.43392251 4.9375 3.6875 C9.11115359 8.66581986 14.01533638 10.74898728 20 13 C19.67 13.99 19.34 14.98 19 16 C20.32 16.33 21.64 16.66 23 17 C22.34 17.33 21.68 17.66 21 18 C12.94370763 14.9961718 5.75587197 10.41212341 0 4 C-0.33 3.01 -0.66 2.02 -1 1 C-0.67 0.67 -0.34 0.34 0 0 Z " fill="#D1D2D2" transform="translate(5,36)"/>
<path d="M0 0 C3.00617269 3.00617269 2.59585316 5.82381598 3 10 C1.68 10 0.36 10 -1 10 C-1 10.66 -1 11.32 -1 12 C-2.32 12.33 -3.64 12.66 -5 13 C-5 12.34 -5 11.68 -5 11 C-5.66 11 -6.32 11 -7 11 C-6.49697411 6.59852343 -4.97554199 4.24604581 -2 1 C-1.34 0.67 -0.68 0.34 0 0 Z " fill="#15A2B7" transform="translate(15,20)"/>
<path d="M0 0 C0.66 0.99 1.32 1.98 2 3 C-1.80592298 9.90544359 -5.85433643 16.91178867 -12 22 C-14.875 22.25 -14.875 22.25 -18 21 C-19.78876784 20.46929629 -21.58067083 19.94908542 -23.375 19.4375 C-24.91777806 18.96192387 -26.45983306 18.4839655 -28 18 C-26.21484375 16.91015625 -26.21484375 16.91015625 -24 16 C-21.65794699 16.97940398 -19.32481174 17.98034573 -17 19 C-13.52547307 19 -12.28553932 18.22696716 -9.5625 16.0625 C-5.55527653 11.27337927 -1.98412599 5.95237798 0 0 Z " fill="#183B42" transform="translate(53,32)"/>
<path d="M0 0 C0.33 0.99 0.66 1.98 1 3 C3.50447516 4.21869929 3.50447516 4.21869929 6 5 C6 7.97 6 10.94 6 14 C5.34 13.67 4.68 13.34 4 13 C4.33 10.69 4.66 8.38 5 6 C2.69 6.33 0.38 6.66 -2 7 C-2 5.02 -2 3.04 -2 1 C-3.65 1.33 -5.3 1.66 -7 2 C-7 3.65 -7 5.3 -7 7 C-9.31 7 -11.62 7 -14 7 C-14 6.34 -14 5.68 -14 5 C-13.01 5 -12.02 5 -11 5 C-10.67 3.68 -10.34 2.36 -10 1 C-6.61981469 -0.04005702 -3.5219721 -0.08004482 0 0 Z " fill="#133E46" transform="translate(40,25)"/>
<path d="M0 0 C3.1875 -0.375 3.1875 -0.375 7 0 C10.75373859 3.0499126 10.75373859 3.0499126 12 6 C12.33794906 10.93925552 11.14885102 15.55904123 9 20 C6.63425766 16.4513865 6.89134735 15.4235475 7.375 11.3125 C7.48585938 10.31863281 7.59671875 9.32476562 7.7109375 8.30078125 C7.85402344 7.16189453 7.85402344 7.16189453 8 6 C7.4225 5.65066406 6.845 5.30132812 6.25 4.94140625 C5.13625 4.25884766 5.13625 4.25884766 4 3.5625 C3.2575 3.11003906 2.515 2.65757813 1.75 2.19140625 C1.1725 1.79824219 0.595 1.40507812 0 1 C0 0.67 0 0.34 0 0 Z " fill="#C2C4C4" transform="translate(50,13)"/>
<path d="M0 0 C6.26221692 2.20023838 6.26221692 2.20023838 8 5 C7.77589301 9.18333056 7.3385104 11.49223439 5 15 C5 14.34 5 13.68 5 13 C4.34 13 3.68 13 3 13 C1.875 7.375 1.875 7.375 3 4 C2.01 4.33 1.02 4.66 0 5 C-0.66 4.34 -1.32 3.68 -2 3 C-1.34 2.01 -0.68 1.02 0 0 Z " fill="#1D6670" transform="translate(49,15)"/>
<path d="M0 0 C2.52282655 2.52282655 5 5.30389793 5 9 C6.27875 9.0825 7.5575 9.165 8.875 9.25 C11.0859375 9.51953125 11.0859375 9.51953125 13 10 C14.68979836 12.18265621 15 13.27214651 15 16 C10.93190071 15.47462592 8.82396544 14.38599539 5.8125 11.625 C4.80123047 10.71621094 4.80123047 10.71621094 3.76953125 9.7890625 C1.3655396 7.35853673 0.03671815 5.7894402 -0.125 2.3125 C-0.08375 1.549375 -0.0425 0.78625 0 0 Z " fill="#207883" transform="translate(7,29)"/>
<path d="M0 0 C6.12300326 0.24011777 8.72900096 1.93734237 13 6 C10.0845524 6 7.65845519 5.59136731 4.8125 5 C3.91144531 4.814375 3.01039062 4.62875 2.08203125 4.4375 C1.05142578 4.2209375 1.05142578 4.2209375 0 4 C-0.33 4.99 -0.66 5.98 -1 7 C-2.65 6.67 -4.3 6.34 -6 6 C-4 4 -2 2 0 0 Z " fill="#2B929F" transform="translate(19,15)"/>
<path d="M0 0 C0.886875 0.144375 1.77375 0.28875 2.6875 0.4375 C0.6875 2.4375 0.6875 2.4375 -2.3125 3.4375 C-2.56 4.22125 -2.8075 5.005 -3.0625 5.8125 C-4.3125 8.4375 -4.3125 8.4375 -7.75 10.25 C-11.3125 11.4375 -11.3125 11.4375 -14.3125 11.4375 C-13.9825 10.1175 -13.6525 8.7975 -13.3125 7.4375 C-12.590625 7.581875 -11.86875 7.72625 -11.125 7.875 C-8.27959819 7.75845165 -8.27959819 7.75845165 -7.078125 5.87890625 C-6.48257813 4.91791016 -6.48257813 4.91791016 -5.875 3.9375 C-3.6957089 0.4881125 -3.6957089 0.4881125 0 0 Z " fill="#2A808D" transform="translate(45.3125,14.5625)"/>
<path d="M0 0 C0.66 0 1.32 0 2 0 C1.56857074 5.39286575 0.47889394 8.80486318 -3 13 C-3.99 13 -4.98 13 -6 13 C-5.625 10.5625 -5.625 10.5625 -5 8 C-4.34 7.67 -3.68 7.34 -3 7 C-2.29618843 5.01276732 -1.6288189 3.01222047 -1 1 C-0.67 0.67 -0.34 0.34 0 0 Z " fill="#1C8491" transform="translate(49,31)"/>
<path d="M0 0 C2.625 -0.1875 2.625 -0.1875 5 0 C5.66 1.65 6.32 3.3 7 5 C4.75 5.6875 4.75 5.6875 2 6 C-0.3125 4.5625 -0.3125 4.5625 -2 3 C-1.34 2.01 -0.68 1.02 0 0 Z " fill="#227F8C" transform="translate(34,46)"/>
<path d="M0 0 C0.66 0.33 1.32 0.66 2 1 C1.10085301 2.51056694 0.18003899 4.00825429 -0.75 5.5 C-1.26046875 6.3353125 -1.7709375 7.170625 -2.296875 8.03125 C-2.85890625 8.6809375 -3.4209375 9.330625 -4 10 C-5.32 10 -6.64 10 -8 10 C-8.66 7.36 -9.32 4.72 -10 2 C-8.68 2 -7.36 2 -6 2 C-5.67 2.99 -5.34 3.98 -5 5 C-5.66 5 -6.32 5 -7 5 C-7 5.99 -7 6.98 -7 8 C-3.59548229 6.86516076 -3.3994436 6.44722063 -1.8125 3.4375 C-1.214375 2.303125 -0.61625 1.16875 0 0 Z " fill="#2D7A83" transform="translate(50,36)"/>
<path d="M0 0 C0.99 0.33 1.98 0.66 3 1 C3 1.66 3 2.32 3 3 C3.66 3 4.32 3 5 3 C5.33 2.34 5.66 1.68 6 1 C6.66 1 7.32 1 8 1 C8 2.65 8 4.3 8 6 C7.01 6 6.02 6 5 6 C5 5.34 5 4.68 5 4 C3.68 4 2.36 4 1 4 C0.67 4.66 0.34 5.32 0 6 C-0.99 6.33 -1.98 6.66 -3 7 C-3 6.01 -3 5.02 -3 4 C-2.34 3.67 -1.68 3.34 -1 3 C-0.67 2.01 -0.34 1.02 0 0 Z " fill="#168B9C" transform="translate(15,31)"/>
<path d="M0 0 C1.79232337 0.30871122 3.58384321 0.62209064 5.375 0.9375 C6.87160156 1.19853516 6.87160156 1.19853516 8.3984375 1.46484375 C11 2 11 2 13 3 C13 3.66 13 4.32 13 5 C10.31143576 6.00821159 8.58296785 6.22736824 5.88671875 5.17578125 C3.89205069 4.16604698 1.9353228 3.11893353 0 2 C0 1.34 0 0.68 0 0 Z " fill="#E5E0E1" transform="translate(24,50)"/>
<path d="M0 0 C0 3 0 3 -2.125 5.1875 C-5.41557542 7.2619932 -7.18634321 7.35475877 -11 7 C-11.33 6.34 -11.66 5.68 -12 5 C-10.7625 4.54625 -9.525 4.0925 -8.25 3.625 C-5.40754505 2.5615993 -2.67336954 1.44807517 0 0 Z " fill="#D3D5D3" transform="translate(46,50)"/>
<path d="M0 0 C0.66 0.66 1.32 1.32 2 2 C1.01 2.495 1.01 2.495 0 3 C0 3.99 0 4.98 0 6 C-0.99 6 -1.98 6 -3 6 C-3.66 7.65 -4.32 9.3 -5 11 C-5.66 11 -6.32 11 -7 11 C-6.49697411 6.59852343 -4.97554199 4.24604581 -2 1 C-1.34 0.67 -0.68 0.34 0 0 Z " fill="#38A9B6" transform="translate(15,20)"/>
<path d="M0 0 C1.32 0 2.64 0 4 0 C4 0.66 4 1.32 4 2 C4.99 2 5.98 2 7 2 C7.33 3.65 7.66 5.3 8 7 C7.46375 6.71125 6.9275 6.4225 6.375 6.125 C3.64719516 4.83288192 0.87387282 3.91441408 -2 3 C-1 1 -1 1 0 0 Z " fill="#188191" transform="translate(16,35)"/>
<path d="M0 0 C4.75 1.875 4.75 1.875 7 3 C5.125 8.75 5.125 8.75 4 11 C3.01 10.67 2.02 10.34 1 10 C1.66 9.34 2.32 8.68 3 8 C2.67 7.01 2.34 6.02 2 5 C1.34 4.67 0.68 4.34 0 4 C0 2.68 0 1.36 0 0 Z " fill="#1A91A0" transform="translate(25,19)"/>
<path d="M0 0 C0.66 0 1.32 0 2 0 C3.5078125 1.6796875 3.5078125 1.6796875 5.125 3.875 C5.66382813 4.59429687 6.20265625 5.31359375 6.7578125 6.0546875 C8 8 8 8 8 10 C3.7257442 8.4169423 1.73468206 5.49431596 -1 2 C-0.67 1.34 -0.34 0.68 0 0 Z " fill="#C0C2C0" transform="translate(5,36)"/>
<path d="M0 0 C0.99 0.33 1.98 0.66 3 1 C2.63495936 6.66442374 1.9445679 11.00703705 -1 16 C-1.96631842 13.39094027 -2.12728443 12.31396825 -1.0625 9.6875 C0.25814394 6.34704768 0.13959269 3.55961371 0 0 Z " fill="#102D30" transform="translate(56,18)"/>
<path d="M0 0 C0.88751953 0.30744141 0.88751953 0.30744141 1.79296875 0.62109375 C5.83660816 1.9997571 9.76855249 3.31750847 14 4 C14 4.66 14 5.32 14 6 C8.47293087 5.27275406 3.30039859 3.66554027 -2 2 C-1.34 1.34 -0.68 0.68 0 0 Z " fill="#213C41" transform="translate(27,48)"/>
<path d="M0 0 C1.98 0 3.96 0 6 0 C5.01 0.33 4.02 0.66 3 1 C3 2.65 3 4.3 3 6 C0.69 6 -1.62 6 -4 6 C-4 5.34 -4 4.68 -4 4 C-3.01 4 -2.02 4 -1 4 C-0.67 2.68 -0.34 1.36 0 0 Z " fill="#1E4F59" transform="translate(30,26)"/>
<path d="M0 0 C1.44096586 0.42594588 2.87768712 0.86626633 4.3125 1.3125 C5.11300781 1.55613281 5.91351563 1.79976562 6.73828125 2.05078125 C9.09964573 3.04182023 10.33879993 4.08074943 12 6 C7.02693484 5.50269348 3.36200187 4.44697666 -1 2 C-0.67 1.34 -0.34 0.68 0 0 Z " fill="#14282F" transform="translate(15,43)"/>
<path d="M0 0 C0.9796875 0.00515625 1.959375 0.0103125 2.96875 0.015625 C3.9484375 0.01046875 4.928125 0.0053125 5.9375 0 C8.46875 0.265625 8.46875 0.265625 10.46875 2.265625 C5.09249766 3.11450695 0.81504602 3.2680555 -4.53125 2.265625 C-2.53125 0.265625 -2.53125 0.265625 0 0 Z " fill="#ADAFB4" transform="translate(44.53125,10.734375)"/>
<path d="M0 0 C1.8871875 0.061875 1.8871875 0.061875 3.8125 0.125 C3.8125 0.785 3.8125 1.445 3.8125 2.125 C4.4725 2.455 5.1325 2.785 5.8125 3.125 C5.20921875 3.10179687 4.6059375 3.07859375 3.984375 3.0546875 C3.18515625 3.03664063 2.3859375 3.01859375 1.5625 3 C0.37914062 2.96519531 0.37914062 2.96519531 -0.828125 2.9296875 C-3.39481941 3.1421622 -4.9791067 3.83845895 -7.1875 5.125 C-7.1875 4.135 -7.1875 3.145 -7.1875 2.125 C-4.09861478 0.06574319 -3.47814073 -0.1140374 0 0 Z " fill="#CCD2D5" transform="translate(23.1875,10.875)"/>
<path d="M0 0 C0.66 0 1.32 0 2 0 C1.42462844 3.88375805 -0.33036271 6.17781201 -3 9 C-5.25 9.8125 -5.25 9.8125 -7 10 C-4.94196512 6.39843896 -2.75464117 3.11007874 0 0 Z " fill="#E4E5E7" transform="translate(51,41)"/>
<path d="M0 0 C3.3125 -0.3125 3.3125 -0.3125 7 0 C9 2.375 9 2.375 10 5 C9.67 5.66 9.34 6.32 9 7 C7.88625 6.071875 7.88625 6.071875 6.75 5.125 C4.51198812 3.39562719 2.56260013 2.13893339 0 1 C0 0.67 0 0.34 0 0 Z " fill="#D3DADA" transform="translate(50,13)"/>
<path d="M0 0 C1.32 0 2.64 0 4 0 C4.33 2.31 4.66 4.62 5 7 C3.68 7 2.36 7 1 7 C0.67 4.69 0.34 2.38 0 0 Z " fill="#1F8E9F" transform="translate(27,41)"/>
<path d="M0 0 C0.66 0.33 1.32 0.66 2 1 C2 3.97 2 6.94 2 10 C1.01 10 0.02 10 -1 10 C-2.31223496 6.06329512 -1.24296256 3.87511856 0 0 Z " fill="#D2D1CD" transform="translate(4,26)"/>
<path d="M0 0 C3.91402949 1.26941497 5.79072873 2.51167694 8 6 C1.25 4.125 1.25 4.125 -1 3 C-0.67 2.01 -0.34 1.02 0 0 Z " fill="#31959F" transform="translate(24,16)"/>
<path d="M0 0 C2.875 -0.125 2.875 -0.125 6 0 C6.66 0.66 7.32 1.32 8 2 C7.34 2.66 6.68 3.32 6 4 C3.69 3.34 1.38 2.68 -1 2 C-0.67 1.34 -0.34 0.68 0 0 Z " fill="#2A4245" transform="translate(20,13)"/>
<path d="M0 0 C0 3 0 3 -2.5 5.6875 C-3.325 6.450625 -4.15 7.21375 -5 8 C-5 5 -5 5 -2.5 2.3125 C-1.675 1.549375 -0.85 0.78625 0 0 Z " fill="#143337" transform="translate(46,45)"/>
<path d="M0 0 C1.65 0.33 3.3 0.66 5 1 C4.67 2.32 4.34 3.64 4 5 C2.35 4.01 0.7 3.02 -1 2 C-0.67 1.34 -0.34 0.68 0 0 Z " fill="#1D6771" transform="translate(15,40)"/>
<path d="M0 0 C0.99 0.33 1.98 0.66 3 1 C3 2.65 3 4.3 3 6 C1.68 5.67 0.36 5.34 -1 5 C-0.67 3.35 -0.34 1.7 0 0 Z " fill="#213E48" transform="translate(39,39)"/>
<path d="M0 0 C1.2065625 0.0309375 1.2065625 0.0309375 2.4375 0.0625 C2.4375 1.7125 2.4375 3.3625 2.4375 5.0625 C1.7775 5.0625 1.1175 5.0625 0.4375 5.0625 C0.4375 4.4025 0.4375 3.7425 0.4375 3.0625 C-0.8825 2.4025 -2.2025 1.7425 -3.5625 1.0625 C-2.5625 0.0625 -2.5625 0.0625 0 0 Z " fill="#29828C" transform="translate(21.5625,14.9375)"/>
</svg>
