<?xml version="1.0" standalone="no"?>
<!DOCTYPE svg PUBLIC "-//W3C//DTD SVG 20010904//EN"
 "http://www.w3.org/TR/2001/REC-SVG-20010904/DTD/svg10.dtd">
<svg version="1.0" xmlns="http://www.w3.org/2000/svg"
 width="95.000000pt" height="119.000000pt" viewBox="0 0 95.000000 119.000000"
 preserveAspectRatio="xMidYMid meet">

<g transform="translate(0.000000,119.000000) scale(0.100000,-0.100000)"
fill="#000000" stroke="none">
<path d="M360 1062 c-46 -13 -119 -63 -139 -96 -21 -34 -19 -64 6 -101 7 -11
13 -25 13 -32 0 -6 18 -39 40 -72 22 -33 40 -64 40 -69 0 -5 9 -21 21 -36 19
-24 19 -26 2 -26 -36 1 -94 28 -114 54 -12 15 -30 26 -45 26 l-24 0 0 -120 c0
-112 1 -120 19 -120 11 0 30 4 43 9 13 5 59 12 102 16 l77 7 -6 -98 c-6 -87
-20 -158 -54 -271 -11 -39 -4 -46 68 -63 62 -14 170 -8 182 11 4 7 3 21 -2 30
-23 45 -49 195 -49 291 l0 100 68 -7 c37 -3 81 -11 98 -17 60 -21 66 -10 62
102 -4 122 -12 134 -66 96 -37 -25 -91 -46 -120 -46 -7 0 -2 11 13 27 14 15
25 33 25 40 0 7 4 13 8 13 26 0 104 195 100 250 -3 33 -8 37 -73 69 -63 31
-80 34 -170 37 -55 2 -111 0 -125 -4z m181 -88 c73 -22 79 -28 78 -88 0 -50
-3 -57 -84 -213 -22 -43 -54 -44 -78 -3 -10 16 -26 34 -37 40 -10 5 -21 23
-25 40 -3 16 -17 52 -31 79 -13 28 -25 65 -26 83 -3 30 1 35 42 56 53 26 87
28 161 6z"/>
</g>
</svg>
