<?xml version="1.0" encoding="UTF-8"?>
<svg version="1.1" xmlns="http://www.w3.org/2000/svg" width="188" height="163">
<path d="M0 0 C1.63848216 -0.00524706 3.2769613 -0.01152746 4.91543579 -0.01878357 C8.33634738 -0.02914343 11.75684187 -0.02469144 15.17773438 -0.01000977 C19.53072984 0.0071564 23.88240248 -0.01631272 28.23525047 -0.05149937 C31.61567697 -0.07361365 34.99579388 -0.07199805 38.37627029 -0.06373405 C39.97961501 -0.06292189 41.58298419 -0.06964249 43.18626022 -0.08450508 C54.41002378 -0.17261196 63.91118288 1.04004609 73.22265625 7.91796875 C73.96644531 8.66820312 74.71023437 9.4184375 75.4765625 10.19140625 C77.87768795 12.57221761 79.90706026 14.4882787 82.82421875 16.21484375 C83.92056641 16.88386719 83.92056641 16.88386719 85.0390625 17.56640625 C85.0390625 18.22640625 85.0390625 18.88640625 85.0390625 19.56640625 C85.6990625 19.56640625 86.3590625 19.56640625 87.0390625 19.56640625 C93.71088358 29.01815278 94.32451809 40.90354352 94.6015625 52.06640625 C94.66117978 54.22277601 94.7247542 56.37904133 94.79296875 58.53515625 C94.81689697 59.47810547 94.8408252 60.42105469 94.86547852 61.39257812 C94.80082045 63.54435706 94.80082045 63.54435706 96.0390625 64.56640625 C96.11219817 67.09690027 96.13153777 69.59945462 96.1015625 72.12890625 C96.09705078 72.83982422 96.09253906 73.55074219 96.08789062 74.28320312 C96.07607114 76.04430638 96.05813513 77.80536661 96.0390625 79.56640625 C97.0290625 79.89640625 98.0190625 80.22640625 99.0390625 80.56640625 C100.2265625 84.12890625 100.2265625 84.12890625 101.0390625 87.56640625 C104.9990625 87.89640625 108.9590625 88.22640625 113.0390625 88.56640625 C113.0390625 88.89640625 113.0390625 89.22640625 113.0390625 89.56640625 C111.26898536 89.64754731 109.49784152 89.7056613 107.7265625 89.75390625 C106.74042969 89.78871094 105.75429687 89.82351562 104.73828125 89.859375 C102.0390625 89.56640625 102.0390625 89.56640625 100.2578125 88.22265625 C98.72306285 86.13697083 97.89424407 84.00038456 97.0390625 81.56640625 C96.3171875 82.35015625 95.5953125 83.13390625 94.8515625 83.94140625 C91.33798033 87.22074961 88.47234908 88.16508601 83.9140625 89.44140625 C80.65514959 90.71663304 79.9885922 91.76925495 78.0390625 94.56640625 C73.64620536 97.56640625 73.64620536 97.56640625 71.0390625 97.56640625 C70.9359375 98.45328125 70.8328125 99.34015625 70.7265625 100.25390625 C70.01221831 103.69574646 69.17949684 105.79176914 67.0390625 108.56640625 C66.3584375 108.73140625 65.6778125 108.89640625 64.9765625 109.06640625 C64.3371875 109.23140625 63.6978125 109.39640625 63.0390625 109.56640625 C62.7503125 110.35015625 62.4615625 111.13390625 62.1640625 111.94140625 C61.0390625 114.56640625 61.0390625 114.56640625 58.4140625 116.37890625 C53.34823262 118.16132787 49.17545071 118.58815713 44.1640625 116.19140625 C42.0390625 114.56640625 42.0390625 114.56640625 40.0390625 112.56640625 C38.0590625 113.55640625 38.0590625 113.55640625 36.0390625 114.56640625 C36.15364943 116.00477376 36.28115366 117.44211591 36.4140625 118.87890625 C36.51847656 120.07966797 36.51847656 120.07966797 36.625 121.3046875 C36.93470676 123.83865066 36.93470676 123.83865066 39.0390625 126.56640625 C39.0390625 127.88640625 39.0390625 129.20640625 39.0390625 130.56640625 C36.64649644 131.76268928 35.20488337 131.66686889 32.5390625 131.62890625 C31.6521875 131.62117187 30.7653125 131.6134375 29.8515625 131.60546875 C27.9765625 131.57942708 26.1015625 131.55338542 24.2265625 131.52734375 C23.3396875 131.51960937 22.4528125 131.511875 21.5390625 131.50390625 C20.31703125 131.48650391 20.31703125 131.48650391 19.0703125 131.46875 C16.96996508 131.43272748 16.96996508 131.43272748 15.0390625 132.56640625 C10.20785126 133.15581402 6.8980021 133.05053585 2.6015625 130.62890625 C1.7559375 129.94828125 0.9103125 129.26765625 0.0390625 128.56640625 C-3.68037652 126.70668674 -8.30171938 127.7351867 -12.3828125 127.921875 C-15.9609375 127.56640625 -15.9609375 127.56640625 -18.8828125 125.5859375 C-22.87825443 122.96456253 -25.7982205 123.0418225 -30.4609375 123.06640625 C-36.40287025 123.09773454 -40.34663793 122.81471939 -44.9609375 118.56640625 C-46.03105764 114.83470525 -45.74801999 111.35244538 -44.9609375 107.56640625 C-42.5859375 104.87890625 -42.5859375 104.87890625 -39.9609375 103.56640625 C-39.3009375 103.56640625 -38.6409375 103.56640625 -37.9609375 103.56640625 C-37.7753125 102.51453125 -37.7753125 102.51453125 -37.5859375 101.44140625 C-36.62394929 97.01626046 -35.48239177 93.34858765 -32.9609375 89.56640625 C-33.46753906 88.57060547 -33.46753906 88.57060547 -33.984375 87.5546875 C-34.65339844 86.23017578 -34.65339844 86.23017578 -35.3359375 84.87890625 C-35.77679688 84.00878906 -36.21765625 83.13867188 -36.671875 82.2421875 C-39.13469596 77.12996824 -40.60337246 73.34832093 -39.9609375 67.56640625 C-37.89990063 65.35269998 -36.0788363 64.6130174 -33.2734375 63.50390625 C-30.80155145 62.79836779 -30.80155145 62.79836779 -29.9609375 60.56640625 C-30.6209375 60.56640625 -31.2809375 60.56640625 -31.9609375 60.56640625 C-32.31285156 59.78394531 -32.66476563 59.00148437 -33.02734375 58.1953125 C-35.46763096 52.50829378 -35.46763096 52.50829378 -39.91796875 48.61328125 C-42.03239364 48.29632929 -42.03239364 48.29632929 -44.9609375 48.56640625 C-44.9609375 48.23640625 -44.9609375 47.90640625 -44.9609375 47.56640625 C-42.9809375 47.56640625 -41.0009375 47.56640625 -38.9609375 47.56640625 C-38.9923584 46.59199585 -38.9923584 46.59199585 -39.02441406 45.59790039 C-39.10839333 42.60839792 -39.1598535 39.61914467 -39.2109375 36.62890625 C-39.26121094 35.0965332 -39.26121094 35.0965332 -39.3125 33.53320312 C-39.40128467 26.58580261 -38.3559813 21.62887135 -34.9609375 15.56640625 C-34.49429688 14.69886719 -34.02765625 13.83132812 -33.546875 12.9375 C-33.14726563 12.29941406 -32.74765625 11.66132813 -32.3359375 11.00390625 C-31.93117188 10.34261719 -31.52640625 9.68132813 -31.109375 9 C-30.54089844 8.29037109 -30.54089844 8.29037109 -29.9609375 7.56640625 C-29.3009375 7.56640625 -28.6409375 7.56640625 -27.9609375 7.56640625 C-27.6309375 6.57640625 -27.3009375 5.58640625 -26.9609375 4.56640625 C-19.05897651 -0.80515953 -9.11976024 -0.0357795 0 0 Z " fill="#2DD3ED" transform="translate(69.9609375,12.43359375)"/>
<path d="M0 0 C3.06253477 0.11183003 6.11774189 0.14344108 9.18212891 0.16088867 C11.15486755 0.1933237 13.12753807 0.23028285 15.10009766 0.2722168 C16.00143433 0.28607925 16.902771 0.29994171 17.8314209 0.31422424 C26.59230457 0.66956967 34.37418598 3.14893832 40.69384766 9.42456055 C43.67712829 12.32327574 46.47111662 14.68404801 50.00634766 16.86206055 C54.33794853 20.02343054 55.11730026 23.7444396 56.11572266 28.8581543 C56.78621239 33.58048282 57.29698908 38.28734831 57.56884766 43.04956055 C56.90884766 43.04956055 56.24884766 43.04956055 55.56884766 43.04956055 C55.31490234 42.41147461 55.06095703 41.77338867 54.79931641 41.1159668 C54.28304687 39.8765332 54.28304687 39.8765332 53.75634766 38.61206055 C53.41990234 37.78834961 53.08345703 36.96463867 52.73681641 36.1159668 C51.68481678 33.71583567 51.68481678 33.71583567 48.56884766 33.04956055 C48.23884766 31.39956055 47.90884766 29.74956055 47.56884766 28.04956055 C41.95884766 27.38956055 36.34884766 26.72956055 30.56884766 26.04956055 C30.56884766 27.36956055 30.56884766 28.68956055 30.56884766 30.04956055 C32.87884766 30.37956055 35.18884766 30.70956055 37.56884766 31.04956055 C38.06384766 32.53456055 38.06384766 32.53456055 38.56884766 34.04956055 C39.55884766 34.04956055 40.54884766 34.04956055 41.56884766 34.04956055 C41.56884766 34.70956055 41.56884766 35.36956055 41.56884766 36.04956055 C43.54884766 36.54456055 43.54884766 36.54456055 45.56884766 37.04956055 C45.56884766 38.36956055 45.56884766 39.68956055 45.56884766 41.04956055 C43.25884766 41.04956055 40.94884766 41.04956055 38.56884766 41.04956055 C38.56884766 40.38956055 38.56884766 39.72956055 38.56884766 39.04956055 C37.90884766 39.04956055 37.24884766 39.04956055 36.56884766 39.04956055 C36.56884766 40.03956055 36.56884766 41.02956055 36.56884766 42.04956055 C32.60884766 42.04956055 28.64884766 42.04956055 24.56884766 42.04956055 C24.56884766 42.70956055 24.56884766 43.36956055 24.56884766 44.04956055 C23.24884766 44.04956055 21.92884766 44.04956055 20.56884766 44.04956055 C19.90884766 44.70956055 19.24884766 45.36956055 18.56884766 46.04956055 C15.98181843 42.1690167 16.84940929 40.52606597 17.56884766 36.04956055 C17.23884766 35.05956055 16.90884766 34.06956055 16.56884766 33.04956055 C17.55884766 32.71956055 18.54884766 32.38956055 19.56884766 32.04956055 C18.90884766 31.71956055 18.24884766 31.38956055 17.56884766 31.04956055 C17.56884766 28.40956055 17.56884766 25.76956055 17.56884766 23.04956055 C16.90884766 23.04956055 16.24884766 23.04956055 15.56884766 23.04956055 C15.56884766 22.05956055 15.56884766 21.06956055 15.56884766 20.04956055 C14.90884766 20.04956055 14.24884766 20.04956055 13.56884766 20.04956055 C11.94384766 18.67456055 11.94384766 18.67456055 10.56884766 17.04956055 C10.56884766 16.38956055 10.56884766 15.72956055 10.56884766 15.04956055 C5.61884766 15.04956055 0.66884766 15.04956055 -4.43115234 15.04956055 C-4.43115234 19.66956055 -4.43115234 24.28956055 -4.43115234 29.04956055 C-2.45115234 28.71956055 -0.47115234 28.38956055 1.56884766 28.04956055 C0.90884766 27.38956055 0.24884766 26.72956055 -0.43115234 26.04956055 C-0.7010714 23.3611667 -0.51852591 20.75814118 -0.43115234 18.04956055 C2.83868508 17.65718006 5.45361865 17.43025252 8.40478516 19.0690918 C10.99908878 21.2797308 12.4406499 22.88986393 12.82275391 26.34643555 C12.56399885 29.57823334 12.35586534 32.04836031 10.31201172 34.6484375 C6.93260785 37.36473986 2.41840262 36.5758698 -1.74365234 36.54956055 C-2.73099365 36.54601563 -3.71833496 36.5424707 -4.7355957 36.53881836 C-14.93416531 36.30916957 -24.79696595 34.35242601 -32.43115234 27.04956055 C-33.1718371 21.40183924 -32.47213146 16.92996701 -29.43115234 12.04956055 C-28.90183105 11.14753906 -28.37250977 10.24551758 -27.82714844 9.31616211 C-20.42551971 -0.93067518 -11.95586692 -0.44199316 0 0 Z " fill="#2DD4ED" transform="translate(101.43115234375,14.950439453125)"/>
<path d="M0 0 C1.5778125 0.02707031 1.5778125 0.02707031 3.1875 0.0546875 C5.75099422 0.10129649 8.31248094 0.1666973 10.875 0.25 C9.225 1.9 7.575 3.55 5.875 5.25 C5.215 4.92 4.555 4.59 3.875 4.25 C3.771875 4.806875 3.66875 5.36375 3.5625 5.9375 C2.74298993 8.69403386 1.37803883 10.8075619 -0.125 13.25 C-1.23014766 16.56544299 -1.44607631 19.45410111 -1.6875 22.9375 C-1.77128906 24.11699219 -1.85507813 25.29648437 -1.94140625 26.51171875 C-2.03228516 27.86716797 -2.03228516 27.86716797 -2.125 29.25 C-1.135 29.58 -0.145 29.91 0.875 30.25 C1.37 31.24 1.37 31.24 1.875 32.25 C13.69734614 37.77980706 24.93443066 39.22159041 37.875 39.25 C36.225 40.9 34.575 42.55 32.875 44.25 C31.39 43.755 31.39 43.755 29.875 43.25 C28.885 43.745 28.885 43.745 27.875 44.25 C27.545 45.24 27.215 46.23 26.875 47.25 C26.215 47.25 25.555 47.25 24.875 47.25 C24.7925 47.95125 24.71 48.6525 24.625 49.375 C23.67372697 53.02154663 22.29202983 55.36299215 19.875 58.25 C17.125 58.625 17.125 58.625 14.875 58.25 C14.875 58.91 14.875 59.57 14.875 60.25 C12.895 60.25 10.915 60.25 8.875 60.25 C9.205 55.3 9.535 50.35 9.875 45.25 C8.225 44.92 6.575 44.59 4.875 44.25 C3.11886376 43.77199842 1.36855724 43.27202313 -0.375 42.75 C-1.24640625 42.4921875 -2.1178125 42.234375 -3.015625 41.96875 C-5.125 41.25 -5.125 41.25 -6.125 40.25 C-7.63969448 40.01807135 -9.16254562 39.83784762 -10.6875 39.6875 C-11.51378906 39.60371094 -12.34007813 39.51992188 -13.19140625 39.43359375 C-14.14853516 39.34271484 -14.14853516 39.34271484 -15.125 39.25 C-15.785 40.57 -16.445 41.89 -17.125 43.25 C-19.43743792 43.27685412 -21.7499627 43.29632841 -24.0625 43.3125 C-25.35027344 43.32410156 -26.63804688 43.33570313 -27.96484375 43.34765625 C-31.125 43.25 -31.125 43.25 -32.125 42.25 C-32.18536517 38.42058454 -32.14488773 34.60420787 -32.0859375 30.77539062 C-32.07433594 29.57366211 -32.07433594 29.57366211 -32.0625 28.34765625 C-32.05089844 27.61039307 -32.03929687 26.87312988 -32.02734375 26.11352539 C-32.0054135 24.15601182 -32.0054135 24.15601182 -33.125 22.25 C-32.015625 19.5703125 -32.015625 19.5703125 -30.375 16.375 C-29.57835937 14.80105469 -29.57835937 14.80105469 -28.765625 13.1953125 C-27.3612367 10.67410113 -26.02896015 8.41549314 -24.125 6.25 C-23.465 6.25 -22.805 6.25 -22.125 6.25 C-22.125 5.59 -22.125 4.93 -22.125 4.25 C-14.59553359 0.54684685 -8.32552456 -0.27539903 0 0 Z " fill="#2CD3ED" transform="translate(67.125,15.75)"/>
<path d="M0 0 C4.73948344 -0.59243543 7.18095619 -0.24689368 11.0625 2.625 C12.39451618 3.7268231 13.70769077 4.8518632 15 6 C15.87591797 6.75410156 15.87591797 6.75410156 16.76953125 7.5234375 C23.16852388 13.4086424 23.55048533 20.68456672 24.625 28.875 C24.82609375 30.30779297 24.82609375 30.30779297 25.03125 31.76953125 C27.00955158 46.48567262 27.00955158 46.48567262 24 51 C21.28958431 51.25019222 18.82767218 51.32653585 16.125 51.25 C15.40441406 51.24484375 14.68382812 51.2396875 13.94140625 51.234375 C10.50482326 51.18374394 7.28469399 51.06623575 4 50 C3.34 51.98 2.68 53.96 2 56 C1.67 56 1.34 56 1 56 C1 53.69 1 51.38 1 49 C-1.97 48.505 -1.97 48.505 -5 48 C-5 47.01 -5 46.02 -5 45 C-6.48034764 45.47550561 -7.95925021 45.95551216 -9.4375 46.4375 C-10.26121094 46.70433594 -11.08492187 46.97117188 -11.93359375 47.24609375 C-13.96219588 47.82155494 -13.96219588 47.82155494 -15 49 C-16.2375 48.9175 -17.475 48.835 -18.75 48.75 C-20.93429481 48.64307563 -20.93429481 48.64307563 -23 49 C-23.825 49.825 -24.65 50.65 -25.5 51.5 C-28.17892895 54.17892895 -28.57145937 54.39662427 -32.125 54.5 C-36 54 -36 54 -38 52.5 C-38.33 52.005 -38.66 51.51 -39 51 C-36 50 -36 50 -32.5 50.125 C-29.09697814 50.32111827 -29.09697814 50.32111827 -27.125 48.6875 C-24.59059765 44.88589647 -24.68847334 40.71893359 -24.4375 36.3125 C-24.39431641 35.61060547 -24.35113281 34.90871094 -24.30664062 34.18554688 C-24.2008264 32.45724794 -24.09993419 30.7286489 -24 29 C-24.66 28.67 -25.32 28.34 -26 28 C-24.35 28 -22.7 28 -21 28 C-21 32.29 -21 36.58 -21 41 C-20.67 40.34 -20.34 39.68 -20 39 C-19.34 39.33 -18.68 39.66 -18 40 C-18.99 42.475 -18.99 42.475 -20 45 C-16.27566618 43.7874262 -12.62197194 42.49140021 -9 41 C-9 40.34 -9 39.68 -9 39 C-9.66 39 -10.32 39 -11 39 C-11 37.02 -11 35.04 -11 33 C-11.33 33 -11.66 33 -12 33 C-12.10864945 30.93867858 -12.18588321 28.87568679 -12.25 26.8125 C-12.29640625 25.66394531 -12.3428125 24.51539062 -12.390625 23.33203125 C-11.91464014 19.2718804 -11.0587999 17.69657359 -8 15 C-4.984375 14.51171875 -4.984375 14.51171875 -1.75 14.6875 C-0.67234375 14.73261719 0.4053125 14.77773438 1.515625 14.82421875 C2.33546875 14.88222656 3.1553125 14.94023438 4 15 C4 14.01 4 13.02 4 12 C4.66 12 5.32 12 6 12 C6 12.66 6 13.32 6 14 C8.31 14 10.62 14 13 14 C13.33 13.01 13.66 12.02 14 11 C14 11.66 14 12.32 14 13 C14.99 13.33 15.98 13.66 17 14 C17 15.98 17 17.96 17 20 C17.66 20 18.32 20 19 20 C19 22.97 19 25.94 19 29 C19.495 28.505 19.495 28.505 20 28 C19.72208096 20.11404719 18.51158915 14.12812667 12.79296875 8.515625 C8.47125224 4.8624093 4.47940341 3.39671067 -1 2 C-0.67 1.34 -0.34 0.68 0 0 Z " fill="#34D0E4" transform="translate(134,42)"/>
<path d="M0 0 C1.32 0 2.64 0 4 0 C5.95703125 2.1953125 5.95703125 2.1953125 7.8125 5.125 C8.43769531 6.07632813 9.06289063 7.02765625 9.70703125 8.0078125 C11.24554155 11.56823211 11.09938101 13.32150239 10 17 C7.53721199 19.46278801 5.29323018 19.99771255 2 21 C2.65881348 25.348169 4.21267016 28.99638116 6 33 C6.495 34.3921875 6.495 34.3921875 7 35.8125 C7.91629442 38.32416207 7.91629442 38.32416207 11 40 C11 41.32 11 42.64 11 44 C8.525 44.495 8.525 44.495 6 45 C5.8453125 46.546875 5.8453125 46.546875 5.6875 48.125 C4.8287941 52.9649787 3.62386334 56.5237606 -0.0625 59.875 C-2 61 -2 61 -4 61 C-4 61.99 -4 62.98 -4 64 C-2.02 63.505 -2.02 63.505 0 63 C-0.875 67.875 -0.875 67.875 -2 69 C1.3 69.66 4.6 70.32 8 71 C8.33 69.68 8.66 68.36 9 67 C10 66 10 66 11.84765625 65.90234375 C13.8984375 65.93489583 15.94921875 65.96744792 18 66 C18 66.66 18 67.32 18 68 C15.69 68 13.38 68 11 68 C11 68.99 11 69.98 11 71 C12.60875 70.9071875 12.60875 70.9071875 14.25 70.8125 C18.10866187 71.00543309 19.28817788 71.39665076 22 74 C22 72.68 22 71.36 22 70 C24.61815766 67.84387017 26.59741654 67.06852484 29.9375 66.5 C33 67 33 67 36.0625 69.5625 C37.031875 70.366875 38.00125 71.17125 39 72 C41.33060402 71.67023569 41.33060402 71.67023569 44 71 C46.43666765 70.93298494 48.87501742 70.91471979 51.3125 70.9375 C52.56675781 70.94652344 53.82101563 70.95554687 55.11328125 70.96484375 C56.06589844 70.97644531 57.01851563 70.98804688 58 71 C58 71.66 58 72.32 58 73 C57.18015625 73.02578125 56.3603125 73.0515625 55.515625 73.078125 C53.89914063 73.16320312 53.89914063 73.16320312 52.25 73.25 C51.18265625 73.29640625 50.1153125 73.3428125 49.015625 73.390625 C45.47594492 74.10589714 44.26118038 75.25584905 42 78 C45.82718229 80.55145486 47.53675485 80.0393612 52.0625 79.625 C58.05913665 79.12025706 63.98252769 78.87257117 70 79 C68.35 77.02 66.7 75.04 65 73 C66.65 73.33 68.3 73.66 70 74 C70.02578125 73.38511719 70.0515625 72.77023438 70.078125 72.13671875 C70.54716981 65.45283019 70.54716981 65.45283019 73.0625 62.9375 C73.701875 62.628125 74.34125 62.31875 75 62 C74.67 61.01 74.34 60.02 74 59 C71.35541621 57.67770811 69.32238699 57.90322806 66.375 57.9375 C64.87066406 57.95103516 64.87066406 57.95103516 63.3359375 57.96484375 C62.56507812 57.97644531 61.79421875 57.98804688 61 58 C61 56.68 61 55.36 61 54 C66.65323951 53.20085096 71.17777903 52.89052967 76.17578125 55.93359375 C79.63418603 58.79651162 82.8282407 61.8282407 86 65 C89.42521786 65.22338377 92.80892118 65.36760521 96 64 C97.10836423 62.11683841 97.10836423 62.11683841 98 60 C99.5 58.25 99.5 58.25 101 57 C101.66 57 102.32 57 103 57 C103.03996094 56.41992188 103.07992187 55.83984375 103.12109375 55.2421875 C103.62543967 51.46893286 104.02024489 48.86070121 106.9609375 46.27734375 C108.54379266 45.29134594 110.14770759 44.33846326 111.76953125 43.41796875 C114.02326491 41.98520988 115.04276257 40.81852582 116.5 38.625 C119 36 119 36 121.30078125 35.625 C123.56554896 35.625 125.75183429 35.73550992 128 36 C128.66 34.68 129.32 33.36 130 32 C131.32 32.33 132.64 32.66 134 33 C130.20325045 38.63388643 130.20325045 38.63388643 126.8046875 39.66796875 C125.22845875 39.93067354 123.65162906 40.1897981 122.07421875 40.4453125 C118.90520024 41.29277131 117.79736376 43.36814592 116 46 C111.65517241 49 111.65517241 49 109 49 C108.896875 49.886875 108.79375 50.77375 108.6875 51.6875 C107.97315581 55.12934021 107.14043434 57.22536289 105 60 C104.319375 60.165 103.63875 60.33 102.9375 60.5 C101.9784375 60.7475 101.9784375 60.7475 101 61 C100.71125 61.78375 100.4225 62.5675 100.125 63.375 C99 66 99 66 96.375 67.8125 C91.30917012 69.59492162 87.13638821 70.02175088 82.125 67.625 C80 66 80 66 78 64 C76.02 64.99 76.02 64.99 74 66 C74.11458693 67.43836751 74.24209116 68.87570966 74.375 70.3125 C74.47941406 71.51326172 74.47941406 71.51326172 74.5859375 72.73828125 C74.89564426 75.27224441 74.89564426 75.27224441 77 78 C77 79.32 77 80.64 77 82 C74.60743394 83.19628303 73.16582087 83.10046264 70.5 83.0625 C69.613125 83.05476563 68.72625 83.04703125 67.8125 83.0390625 C65 83 65 83 62.1875 82.9609375 C61.300625 82.95320313 60.41375 82.94546875 59.5 82.9375 C58.27796875 82.92009766 58.27796875 82.92009766 57.03125 82.90234375 C54.93090258 82.86632123 54.93090258 82.86632123 53 84 C48.16878876 84.58940777 44.8589396 84.4841296 40.5625 82.0625 C39.716875 81.381875 38.87125 80.70125 38 80 C34.28056098 78.14028049 29.65921812 79.16878045 25.578125 79.35546875 C22 79 22 79 19.078125 77.01953125 C15.08268307 74.39815628 12.162717 74.47541625 7.5 74.5 C1.55806725 74.53132829 -2.38570043 74.24831314 -7 70 C-8.07012014 66.268299 -7.78708249 62.78603913 -7 59 C-4.625 56.3125 -4.625 56.3125 -2 55 C-1.34 55 -0.68 55 0 55 C0.185625 53.948125 0.185625 53.948125 0.375 52.875 C1.33698821 48.44985421 2.47854573 44.7821814 5 41 C4.66226563 40.33613281 4.32453125 39.67226562 3.9765625 38.98828125 C3.53054687 38.10527344 3.08453125 37.22226563 2.625 36.3125 C2.18414062 35.44238281 1.74328125 34.57226562 1.2890625 33.67578125 C-1.17375846 28.56356199 -2.64243496 24.78191468 -2 19 C0.06103687 16.78629373 1.8821012 16.04661115 4.6875 14.9375 C7.15938605 14.23196154 7.15938605 14.23196154 8 12 C7.34 12 6.68 12 6 12 C4.99747693 10.18889433 3.99804504 8.37607722 3 6.5625 C2.443125 5.55316406 1.88625 4.54382813 1.3125 3.50390625 C0 1 0 1 0 0 Z " fill="#03090B" transform="translate(32,61)"/>
<path d="M0 0 C1.63848216 -0.00524706 3.2769613 -0.01152746 4.91543579 -0.01878357 C8.33634738 -0.02914343 11.75684187 -0.02469144 15.17773438 -0.01000977 C19.53072984 0.0071564 23.88240248 -0.01631272 28.23525047 -0.05149937 C31.61567697 -0.07361365 34.99579388 -0.07199805 38.37627029 -0.06373405 C39.97961501 -0.06292189 41.58298419 -0.06964249 43.18626022 -0.08450508 C54.41002378 -0.17261196 63.91118288 1.04004609 73.22265625 7.91796875 C73.96644531 8.66820312 74.71023437 9.4184375 75.4765625 10.19140625 C77.87768795 12.57221761 79.90706026 14.4882787 82.82421875 16.21484375 C83.92056641 16.88386719 83.92056641 16.88386719 85.0390625 17.56640625 C85.0390625 18.22640625 85.0390625 18.88640625 85.0390625 19.56640625 C85.6990625 19.56640625 86.3590625 19.56640625 87.0390625 19.56640625 C93.71088358 29.01815278 94.32451809 40.90354352 94.6015625 52.06640625 C94.66117978 54.22277601 94.7247542 56.37904133 94.79296875 58.53515625 C94.81689697 59.47810547 94.8408252 60.42105469 94.86547852 61.39257812 C94.80082045 63.54435706 94.80082045 63.54435706 96.0390625 64.56640625 C96.11219817 67.09690027 96.13153777 69.59945462 96.1015625 72.12890625 C96.09705078 72.83982422 96.09253906 73.55074219 96.08789062 74.28320312 C96.07607114 76.04430638 96.05813513 77.80536661 96.0390625 79.56640625 C95.0490625 79.56640625 94.0590625 79.56640625 93.0390625 79.56640625 C92.97847656 78.65117188 92.91789063 77.7359375 92.85546875 76.79296875 C92.77167969 75.60445313 92.68789062 74.4159375 92.6015625 73.19140625 C92.52035156 72.00804688 92.43914062 70.8246875 92.35546875 69.60546875 C92.22821314 66.65121724 92.22821314 66.65121724 91.0390625 64.56640625 C90.93344251 63.00246693 90.88374759 61.43455564 90.86328125 59.8671875 C90.6203981 39.07063153 90.6203981 39.07063153 82.0390625 20.56640625 C80.2729256 18.89371381 80.2729256 18.89371381 78.3515625 17.62890625 C74.58684605 14.97474623 71.04061663 12.13501403 67.5078125 9.1796875 C60.88320185 4.85063022 54.48501502 4.04780053 46.765625 3.88671875 C45.80183929 3.86487518 44.83805359 3.84303162 43.84506226 3.82052612 C41.81644401 3.78361007 39.78764765 3.7555281 37.75878906 3.73583984 C34.67686953 3.69159013 31.60322874 3.572676 28.5234375 3.453125 C17.9239484 2.89672895 17.9239484 2.89672895 8.46777344 6.86621094 C3.41060011 12.22503384 -0.09597835 18.17933033 -0.4609375 25.69140625 C-0.35352954 29.63191681 -0.35352954 29.63191681 2.2890625 31.81640625 C3.51718735 32.44448836 4.77143406 33.02244309 6.0390625 33.56640625 C6.77382812 33.93765625 7.50859375 34.30890625 8.265625 34.69140625 C18.91062371 39.21317561 30.71339025 37.9235963 42.0390625 37.56640625 C42.26142686 35.79988672 42.46646644 34.03117996 42.6640625 32.26171875 C42.83808594 30.78469482 42.83808594 30.78469482 43.015625 29.27783203 C43.28801724 26.32870205 43.28801724 26.32870205 41.0390625 23.44140625 C37.61006458 21.29828255 35.04805072 20.80222909 31.0390625 20.56640625 C31.0390625 23.20640625 31.0390625 25.84640625 31.0390625 28.56640625 C32.5240625 29.06140625 32.5240625 29.06140625 34.0390625 29.56640625 C33.7090625 30.22640625 33.3790625 30.88640625 33.0390625 31.56640625 C31.3890625 30.90640625 29.7390625 30.24640625 28.0390625 29.56640625 C27.98510772 27.94176783 27.94629055 26.31662084 27.9140625 24.69140625 C27.89085938 23.78648438 27.86765625 22.8815625 27.84375 21.94921875 C28.0390625 19.56640625 28.0390625 19.56640625 30.0390625 17.56640625 C34.3084469 16.90391557 36.65341128 16.65297352 40.30859375 19.0625 C46.90135646 24.77622768 46.90135646 24.77622768 47.2890625 29.81640625 C47.01688451 33.89907613 46.26148098 36.15340644 44.0390625 39.56640625 C36.50557156 44.33305143 22.45142812 42.55668491 14.015625 40.9140625 C7.29235221 39.0535844 0.36529958 36.26966616 -3.9609375 30.56640625 C-5.2521155 25.75734809 -4.28235675 21.71146234 -2.9609375 17.00390625 C-0.22060786 12.29396468 3.28808678 8.49557559 7.0390625 4.56640625 C3.58089564 4.47793308 0.12302671 4.425529 -3.3359375 4.37890625 C-4.30144531 4.35376953 -5.26695313 4.32863281 -6.26171875 4.30273438 C-12.99991334 4.2349002 -18.6321656 5.25500603 -24.9609375 7.56640625 C-24.9609375 8.22640625 -24.9609375 8.88640625 -24.9609375 9.56640625 C-26.29427083 10.89973958 -27.62760417 12.23307292 -28.9609375 13.56640625 C-34.31632501 21.49237976 -35.38710781 27.59784823 -35.1484375 37.00390625 C-35.13490234 38.02162109 -35.12136719 39.03933594 -35.10742188 40.08789062 C-35.0723036 42.58128839 -35.02312309 45.07356137 -34.9609375 47.56640625 C-36.2809375 47.56640625 -37.6009375 47.56640625 -38.9609375 47.56640625 C-39.07849231 43.92085067 -39.14863562 40.27579151 -39.2109375 36.62890625 C-39.24445312 35.60732422 -39.27796875 34.58574219 -39.3125 33.53320312 C-39.40128467 26.58580261 -38.3559813 21.62887135 -34.9609375 15.56640625 C-34.49429688 14.69886719 -34.02765625 13.83132812 -33.546875 12.9375 C-33.14726563 12.29941406 -32.74765625 11.66132813 -32.3359375 11.00390625 C-31.93117188 10.34261719 -31.52640625 9.68132813 -31.109375 9 C-30.54089844 8.29037109 -30.54089844 8.29037109 -29.9609375 7.56640625 C-29.3009375 7.56640625 -28.6409375 7.56640625 -27.9609375 7.56640625 C-27.6309375 6.57640625 -27.3009375 5.58640625 -26.9609375 4.56640625 C-19.05897651 -0.80515953 -9.11976024 -0.0357795 0 0 Z " fill="#01090C" transform="translate(69.9609375,12.43359375)"/>
<path d="M0 0 C0.99 0.33 1.98 0.66 3 1 C2.21625 1.86625 1.4325 2.7325 0.625 3.625 C-3.53300814 8.68999575 -4.73602578 14.1082541 -4.55078125 20.6015625 C-3.8847722 23.50177212 -3.08966026 24.48615549 -0.8125 26.375 C11.08219037 33.63137956 25.35529648 34.74837915 39 33 C41.78596589 31.88953797 42.74294491 31.44984641 44.25 28.8125 C45.2094484 25.21456851 45.5127905 22.71773114 45 19 C42.88534891 15.73072347 40.51631193 12.75815596 37 11 C34.30986661 10.81295596 31.70313823 10.91418609 29 11 C27.68737429 12.08552366 27.68737429 12.08552366 27.90234375 14.72265625 C27.91394531 15.82480469 27.92554688 16.92695312 27.9375 18.0625 C27.94652344 19.16722656 27.95554688 20.27195312 27.96484375 21.41015625 C27.97644531 22.26480469 27.98804688 23.11945312 28 24 C27.34 24 26.68 24 26 24 C26 19.38 26 14.76 26 10 C28.60919828 8.69540086 30.58942615 8.8673406 33.5 8.875 C34.4796875 8.87242188 35.459375 8.86984375 36.46875 8.8671875 C39 9 39 9 41 10 C41 10.66 41 11.32 41 12 C41.99 12.33 42.98 12.66 44 13 C44 13.66 44 14.32 44 15 C44.66 15 45.32 15 46 15 C46 15.99 46 16.98 46 18 C46.66 18 47.32 18 48 18 C48 20.64 48 23.28 48 26 C48.99 26.33 49.98 26.66 51 27 C50.34 27.66 49.68 28.32 49 29 C49 29.66 49 30.32 49 31 C48.79375 31.99 48.5875 32.98 48.375 34 C48.189375 35.485 48.189375 35.485 48 37 C48.66 37.66 49.32 38.32 50 39 C50.66 38.67 51.32 38.34 52 38 C52.66 38.66 53.32 39.32 54 40 C53.34 40 52.68 40 52 40 C51.97307516 42.29160319 51.95363876 44.58329546 51.9375 46.875 C51.92589844 48.15117188 51.91429687 49.42734375 51.90234375 50.7421875 C51.76823431 53.88664652 51.76823431 53.88664652 53 56 C52.72057545 57.67654729 52.39171753 59.34608154 52 61 C52.66 61 53.32 61 54 61 C54 61.66 54 62.32 54 63 C51.00893216 65.36503039 48.97138418 66.91553181 45.125 67.25 C44.42375 67.1675 43.7225 67.085 43 67 C43.33 65.35 43.66 63.7 44 62 C43.67 62.33 43.34 62.66 43 63 C42.01 63.495 42.01 63.495 41 64 C41.33 59.38 41.66 54.76 42 50 C37.71 50.66 33.42 51.32 29 52 C28.67 53.32 28.34 54.64 28 56 C26.35 56 24.7 56 23 56 C22.20801804 53.14886495 21.78518878 51.55237171 22.875 48.75 C24 47 24 47 25 46 C27.34087842 46.27539746 29.67402489 46.6186926 32 47 C33.7015625 47.2784375 33.7015625 47.2784375 35.4375 47.5625 C36.283125 47.706875 37.12875 47.85125 38 48 C35.43435189 45.43435189 33.52079438 44.86359107 30 44 C26.68953624 44.27587198 23.97964402 44.51017799 21 46 C21 45.01 21 44.02 21 43 C21.66 43 22.32 43 23 43 C23.33 41.68 23.66 40.36 24 39 C26.49064888 38.31292445 28.37886292 38 31 38 C31.66 37.34 32.32 36.68 33 36 C31.89785156 35.99742188 30.79570313 35.99484375 29.66015625 35.9921875 C21.22295763 35.83011384 13.61233558 35.02966243 5.625 32.1875 C4.91867432 31.93919434 4.21234863 31.69088867 3.48461914 31.43505859 C-0.46690143 29.92555371 -3.53324026 28.49198734 -6 25 C-7.62906967 15.18710001 -5.18831145 8.15306086 0 0 Z " fill="#30D3EA" transform="translate(71,20)"/>
<path d="M0 0 C0.66 0.33 1.32 0.66 2 1 C2 6.94 2 12.88 2 19 C5.403125 19.0928125 5.403125 19.0928125 8.875 19.1875 C10.15117188 19.22230469 11.42734375 19.25710937 12.7421875 19.29296875 C13.81726563 19.19628906 14.89234375 19.09960938 16 19 C16.66 18.01 17.32 17.02 18 16 C23.87732527 14.77904852 28.71631088 16.45250703 34 19 C36.98022801 20.06197531 39.98662471 21.03653987 43 22 C43.02715383 23.74991334 43.04646551 25.49994945 43.0625 27.25 C43.07410156 28.22453125 43.08570313 29.1990625 43.09765625 30.203125 C43.01195577 32.65758678 42.70706066 34.66168914 42 37 C42.66 37 43.32 37 44 37 C44 37.66 44 38.32 44 39 C43.34 39 42.68 39 42 39 C42 39.66 42 40.32 42 41 C39.58265458 41.08117951 37.16805051 41.14056926 34.75 41.1875 C34.06808594 41.21263672 33.38617188 41.23777344 32.68359375 41.26367188 C29.48737398 41.31021876 27.33307787 41.18591611 24.515625 39.61328125 C23 38 23 38 23 36 C22.01 36 21.02 36 20 36 C20.495 36.928125 20.99 37.85625 21.5 38.8125 C23 42 23 42 23 45 C20.03970995 43.97921033 19.06191763 43.09883007 17.375 40.40625 C15.80478047 36.51638799 15.65844725 33.23398216 15.8125 29.125 C15.874375 26.77375 15.93625 24.4225 16 22 C7.75 22 -0.5 22 -9 22 C-9 21.67 -9 21.34 -9 21 C-6.03 20.67 -3.06 20.34 0 20 C0 13.4 0 6.8 0 0 Z " fill="#4BCACF" transform="translate(34,39)"/>
<path d="M0 0 C1.32 0 2.64 0 4 0 C5.95703125 2.1953125 5.95703125 2.1953125 7.8125 5.125 C8.43769531 6.07632813 9.06289063 7.02765625 9.70703125 8.0078125 C11.24554155 11.56823211 11.09938101 13.32150239 10 17 C7.53721199 19.46278801 5.29323018 19.99771255 2 21 C2.65881348 25.348169 4.21267016 28.99638116 6 33 C6.495 34.3921875 6.495 34.3921875 7 35.8125 C7.91629442 38.32416207 7.91629442 38.32416207 11 40 C11 41.32 11 42.64 11 44 C8.525 44.495 8.525 44.495 6 45 C5.8453125 46.546875 5.8453125 46.546875 5.6875 48.125 C4.8287941 52.9649787 3.62386334 56.5237606 -0.0625 59.875 C-2 61 -2 61 -4 61 C-4 61.99 -4 62.98 -4 64 C-2.02 63.505 -2.02 63.505 0 63 C-0.875 67.875 -0.875 67.875 -2 69 C1.3 69.66 4.6 70.32 8 71 C8.33 69.68 8.66 68.36 9 67 C10 66 10 66 11.84765625 65.90234375 C13.8984375 65.93489583 15.94921875 65.96744792 18 66 C18 66.66 18 67.32 18 68 C15.69 68 13.38 68 11 68 C11 68.99 11 69.98 11 71 C12.60875 70.9071875 12.60875 70.9071875 14.25 70.8125 C18.10866187 71.00543309 19.28817788 71.39665076 22 74 C22 72.68 22 71.36 22 70 C25.4019487 67.90649311 28.05272412 67.82057837 32 68 C31.21625 68.556875 30.4325 69.11375 29.625 69.6875 C26.91295142 72.07668565 26.03866457 73.60073413 25 77 C19.375 77.25 19.375 77.25 16 75 C12.46375602 74.74559396 8.96721996 74.63383327 5.42382812 74.609375 C0.25149682 74.44589482 -3.04124541 73.64947689 -7 70 C-8.07012014 66.268299 -7.78708249 62.78603913 -7 59 C-4.625 56.3125 -4.625 56.3125 -2 55 C-1.34 55 -0.68 55 0 55 C0.185625 53.948125 0.185625 53.948125 0.375 52.875 C1.33698821 48.44985421 2.47854573 44.7821814 5 41 C4.66226563 40.33613281 4.32453125 39.67226562 3.9765625 38.98828125 C3.53054687 38.10527344 3.08453125 37.22226563 2.625 36.3125 C2.18414062 35.44238281 1.74328125 34.57226562 1.2890625 33.67578125 C-1.17375846 28.56356199 -2.64243496 24.78191468 -2 19 C0.06103687 16.78629373 1.8821012 16.04661115 4.6875 14.9375 C7.15938605 14.23196154 7.15938605 14.23196154 8 12 C7.34 12 6.68 12 6 12 C4.99747693 10.18889433 3.99804504 8.37607722 3 6.5625 C2.443125 5.55316406 1.88625 4.54382813 1.3125 3.50390625 C0 1 0 1 0 0 Z " fill="#030708" transform="translate(32,61)"/>
<path d="M0 0 C5.88367811 8.82551717 5.43396077 20.03052268 5.70922852 30.25292969 C5.73557373 31.22391602 5.76191895 32.19490234 5.7890625 33.1953125 C5.80662598 34.07203613 5.82418945 34.94875977 5.84228516 35.85205078 C5.86676103 38.05061807 5.86676103 38.05061807 7 40 C7.07092842 42.2072923 7.08415025 44.41667452 7.0625 46.625 C7.05347656 47.81351563 7.04445312 49.00203125 7.03515625 50.2265625 C7.02355469 51.14179687 7.01195312 52.05703125 7 53 C8.65 53 10.3 53 12 53 C15 58.75 15 58.75 15 61 C18.96 61.33 22.92 61.66 27 62 C27 62.33 27 62.66 27 63 C25.22992286 63.08114106 23.45877902 63.13925505 21.6875 63.1875 C20.70136719 63.22230469 19.71523437 63.25710937 18.69921875 63.29296875 C16 63 16 63 14.21875 61.65625 C12.68400035 59.57056458 11.85518157 57.43397831 11 55 C8.58380177 54.74969023 8.58380177 54.74969023 6 55 C5.34 55.99 4.68 56.98 4 58 C2.01171875 58.30078125 2.01171875 58.30078125 -0.3125 58.3125 C-3.07901574 58.50883338 -4.53574259 58.62092743 -6.703125 60.390625 C-8.2347596 62.21775909 -8.2347596 62.21775909 -10 65 C-10.66 64.67 -11.32 64.34 -12 64 C-11.34 62.68 -10.68 61.36 -10 60 C-13.3 60 -16.6 60 -20 60 C-19.67 57.69 -19.34 55.38 -19 53 C-17.0625 52.4375 -17.0625 52.4375 -15 52 C-14.67 52.33 -14.34 52.66 -14 53 C-11.30764224 53.23678716 -8.63501844 53.42198025 -5.9375 53.5625 C-4.79958008 53.62727539 -4.79958008 53.62727539 -3.63867188 53.69335938 C-1.75934562 53.79973633 0.12030244 53.90039934 2 54 C4.76782141 45.69653577 2.06406914 34.35907553 0.625 25.8125 C0.51124023 25.10657715 0.39748047 24.4006543 0.28027344 23.67333984 C-0.86881118 17.30741106 -3.09208508 13.44890556 -8 9.3125 C-8.680625 8.73113281 -9.36125 8.14976563 -10.0625 7.55078125 C-14.30223389 4.15728457 -16.61233076 3.79669173 -22 4 C-22 4.33 -22 4.66 -22 5 C-20.88625 5.144375 -19.7725 5.28875 -18.625 5.4375 C-12.51242479 6.94381318 -8.07140286 11.37615772 -4 16 C-2.1561307 19.58402096 -1.66399537 22.81473076 -1.375 26.8125 C-1.30023438 27.78832031 -1.22546875 28.76414062 -1.1484375 29.76953125 C-1.07496094 30.87361328 -1.07496094 30.87361328 -1 32 C-1.66 32 -2.32 32 -3 32 C-3 29.03 -3 26.06 -3 23 C-3.66 23 -4.32 23 -5 23 C-5.061875 22.0925 -5.12375 21.185 -5.1875 20.25 C-6.19292306 16.22830776 -7.60106652 15.23832205 -11 13 C-11.66 12.67 -12.32 12.34 -13 12 C-13 11.34 -13 10.68 -13 10 C-13.99 10 -14.98 10 -16 10 C-16.33 9.34 -16.66 8.68 -17 8 C-19.32156597 7.59270772 -21.6568787 7.25561323 -24 7 C-24.33 6.01 -24.66 5.02 -25 4 C-24.67 3.34 -24.34 2.68 -24 2 C-17.90218999 1.77915376 -12.78357065 1.98832325 -7 4 C-6.67 5.65 -6.34 7.3 -6 9 C-4.68 9 -3.36 9 -2 9 C1 15.625 1 15.625 1 19 C1.66 19 2.32 19 3 19 C2.7834375 17.96359375 2.566875 16.9271875 2.34375 15.859375 C2.06229463 14.48962552 1.781056 13.11983149 1.5 11.75 C1.28537109 10.72712891 1.28537109 10.72712891 1.06640625 9.68359375 C0.38748951 6.35366879 0 3.41667449 0 0 Z " fill="#55C2D1" transform="translate(156,39)"/>
<path d="M0 0 C6.55123366 1.69475586 12.12867025 7.20667724 15.80859375 12.7265625 C15.93359375 15.4140625 15.93359375 15.4140625 15.80859375 17.7265625 C13.82859375 18.7165625 13.82859375 18.7165625 11.80859375 19.7265625 C11.80859375 19.0665625 11.80859375 18.4065625 11.80859375 17.7265625 C10.48859375 17.3965625 9.16859375 17.0665625 7.80859375 16.7265625 C9.45859375 16.7265625 11.10859375 16.7265625 12.80859375 16.7265625 C10.86387206 10.80027905 7.16938917 7.73404519 1.80859375 4.7265625 C-1.13396653 4.1739235 -3.18062368 4.34337199 -6.19140625 4.7265625 C-8.15365027 8.65105053 -7.61678887 13.12643138 -6.51953125 17.25390625 C-5.78985184 19.43261882 -5.02411937 21.58530018 -4.19140625 23.7265625 C-6.66640625 25.2115625 -6.66640625 25.2115625 -9.19140625 26.7265625 C-7.87140625 26.7265625 -6.55140625 26.7265625 -5.19140625 26.7265625 C-5.19140625 26.0665625 -5.19140625 25.4065625 -5.19140625 24.7265625 C-0.16448562 25.18355528 2.95755636 27.71897998 6.80859375 30.7265625 C6.31359375 32.2115625 6.31359375 32.2115625 5.80859375 33.7265625 C5.14859375 33.7265625 4.48859375 33.7265625 3.80859375 33.7265625 C3.14859375 35.7065625 2.48859375 37.6865625 1.80859375 39.7265625 C1.47859375 39.7265625 1.14859375 39.7265625 0.80859375 39.7265625 C0.80859375 37.4165625 0.80859375 35.1065625 0.80859375 32.7265625 C-1.17140625 32.3965625 -3.15140625 32.0665625 -5.19140625 31.7265625 C-5.19140625 30.7365625 -5.19140625 29.7465625 -5.19140625 28.7265625 C-6.67175389 29.20206811 -8.15065646 29.68207466 -9.62890625 30.1640625 C-10.45261719 30.43089844 -11.27632812 30.69773437 -12.125 30.97265625 C-14.15360213 31.54811744 -14.15360213 31.54811744 -15.19140625 32.7265625 C-16.42890625 32.6440625 -17.66640625 32.5615625 -18.94140625 32.4765625 C-21.12570106 32.36963813 -21.12570106 32.36963813 -23.19140625 32.7265625 C-24.01640625 33.5515625 -24.84140625 34.3765625 -25.69140625 35.2265625 C-28.3703352 37.90549145 -28.76286562 38.12318677 -32.31640625 38.2265625 C-36.19140625 37.7265625 -36.19140625 37.7265625 -38.19140625 36.2265625 C-38.52140625 35.7315625 -38.85140625 35.2365625 -39.19140625 34.7265625 C-36.19140625 33.7265625 -36.19140625 33.7265625 -32.69140625 33.8515625 C-29.28838439 34.04768077 -29.28838439 34.04768077 -27.31640625 32.4140625 C-24.7820039 28.61245897 -24.87987959 24.44549609 -24.62890625 20.0390625 C-24.58572266 19.33716797 -24.54253906 18.63527344 -24.49804688 17.91210938 C-24.39223265 16.18381044 -24.29134044 14.4552114 -24.19140625 12.7265625 C-24.85140625 12.3965625 -25.51140625 12.0665625 -26.19140625 11.7265625 C-24.54140625 11.7265625 -22.89140625 11.7265625 -21.19140625 11.7265625 C-21.19140625 16.0165625 -21.19140625 20.3065625 -21.19140625 24.7265625 C-20.86140625 24.0665625 -20.53140625 23.4065625 -20.19140625 22.7265625 C-19.53140625 23.0565625 -18.87140625 23.3865625 -18.19140625 23.7265625 C-19.18140625 26.2015625 -19.18140625 26.2015625 -20.19140625 28.7265625 C-16.46707243 27.5139887 -12.81337819 26.21796271 -9.19140625 24.7265625 C-9.19140625 24.0665625 -9.19140625 23.4065625 -9.19140625 22.7265625 C-9.85140625 22.7265625 -10.51140625 22.7265625 -11.19140625 22.7265625 C-11.29946769 19.80890359 -11.37873502 16.89525125 -11.44140625 13.9765625 C-11.47492188 13.1515625 -11.5084375 12.3265625 -11.54296875 11.4765625 C-11.64124318 5.38354781 -11.64124318 5.38354781 -9.4609375 2.19921875 C-6.15474876 0.0538949 -3.88461816 -0.12698603 0 0 Z " fill="#52C6B4" transform="translate(134.19140625,58.2734375)"/>
<path d="M0 0 C4.54138808 -0.89205837 6.71141206 -0.76759052 10.71484375 1.6171875 C17.65346637 6.89332809 17.65346637 6.89332809 18.84765625 10.70703125 C18.92306641 11.84205078 18.92306641 11.84205078 19 13 C18.67 13.33 18.34 13.66 18 14 C17.76472227 16.34987262 17.58613583 18.70556039 17.4375 21.0625 C17.35371094 22.35285156 17.26992187 23.64320312 17.18359375 24.97265625 C17.09271484 26.47119141 17.09271484 26.47119141 17 28 C15.109375 28.60546875 15.109375 28.60546875 13 29 C11.64264858 27.69112542 10.31494512 26.35147138 9 25 C6.40161594 23.51592295 3.72138171 22.24179554 1 21 C1 21.66 1 22.32 1 23 C-0.98 23.33 -2.96 23.66 -5 24 C-1.25 20.125 -1.25 20.125 1 19 C0.2575 17.2675 0.2575 17.2675 -0.5 15.5 C-2.15046302 11.09615791 -2.39691651 7.68361477 -2 3 C-1.34 2.01 -0.68 1.02 0 0 Z " fill="#7ED6AD" transform="translate(128,62)"/>
<path d="M0 0 C7.3408158 2.23348225 12.20562405 5.51724804 17.67578125 10.87890625 C19.94814274 13.0975595 19.94814274 13.0975595 22.79296875 14.65234375 C23.52128906 15.09707031 24.24960938 15.54179687 25 16 C25 16.66 25 17.32 25 18 C25.66 18 26.32 18 27 18 C33.67182108 27.45174653 34.28545559 39.33713727 34.5625 50.5 C34.62211728 52.65636976 34.6856917 54.81263508 34.75390625 56.96875 C34.77783447 57.91169922 34.8017627 58.85464844 34.82641602 59.82617188 C34.76175795 61.97795081 34.76175795 61.97795081 36 63 C36.07313567 65.53049402 36.09247527 68.03304837 36.0625 70.5625 C36.05798828 71.27341797 36.05347656 71.98433594 36.04882812 72.71679688 C36.03700864 74.47790013 36.01907263 76.23896036 36 78 C35.01 78 34.02 78 33 78 C32.93941406 77.08476563 32.87882812 76.16953125 32.81640625 75.2265625 C32.73261719 74.03804688 32.64882812 72.84953125 32.5625 71.625 C32.48128906 70.44164063 32.40007812 69.25828125 32.31640625 68.0390625 C32.18915064 65.08481099 32.18915064 65.08481099 31 63 C30.89438001 61.43606068 30.84468509 59.86814939 30.82421875 58.30078125 C30.5813356 37.50422528 30.5813356 37.50422528 22 19 C20.2338631 17.32730756 20.2338631 17.32730756 18.3125 16.0625 C14.54778355 13.40833998 11.00155413 10.56860778 7.46875 7.61328125 C0.66343092 3.16613445 -5.70985761 2.54191386 -13.625 2.48828125 C-14.61250244 2.47033005 -15.60000488 2.45237885 -16.61743164 2.43388367 C-19.7449121 2.38007319 -22.87224252 2.345979 -26 2.3125 C-28.13153116 2.2793011 -30.2630426 2.24480909 -32.39453125 2.20898438 C-37.59621951 2.12436398 -42.79792792 2.05589138 -48 2 C-48 1.67 -48 1.34 -48 1 C-41.48552273 0.97470295 -34.97105807 0.95715556 -28.45654297 0.94506836 C-26.23909024 0.94003091 -24.02164084 0.93320078 -21.80419922 0.92456055 C-18.62206195 0.91246928 -15.43996849 0.9067659 -12.2578125 0.90234375 C-11.26194122 0.89718246 -10.26606995 0.89202118 -9.24002075 0.88670349 C-8.31921722 0.88662796 -7.3984137 0.88655243 -6.44970703 0.88647461 C-5.6369632 0.884254 -4.82421936 0.88203339 -3.98684692 0.87974548 C-2 1 -2 1 0 2 C0 1.34 0 0.68 0 0 Z " fill="#040C0F" transform="translate(130,14)"/>
<path d="M0 0 C2.625 -0.3125 2.625 -0.3125 6 0 C7.010625 0.845625 8.02125 1.69125 9.0625 2.5625 C10.5165625 3.7690625 10.5165625 3.7690625 12 5 C14.33060402 4.67023569 14.33060402 4.67023569 17 4 C19.43666765 3.93298494 21.87501742 3.91471979 24.3125 3.9375 C25.56675781 3.94652344 26.82101563 3.95554688 28.11328125 3.96484375 C29.06589844 3.97644531 30.01851562 3.98804688 31 4 C31 4.66 31 5.32 31 6 C30.18015625 6.02578125 29.3603125 6.0515625 28.515625 6.078125 C26.89914063 6.16320312 26.89914063 6.16320312 25.25 6.25 C23.64898437 6.31960937 23.64898437 6.31960937 22.015625 6.390625 C18.47594492 7.10589714 17.26118038 8.25584905 15 11 C18.79715044 13.53143363 20.38842177 13.04474225 24.875 12.625 C31.03828102 12.09566612 37.10192337 11.93790034 43.29296875 12.0625 C45.72309189 12.00639326 47.68671765 11.70668291 50 11 C50 12.32 50 13.64 50 15 C47.60743394 16.19628303 46.16582087 16.10046264 43.5 16.0625 C42.613125 16.05476563 41.72625 16.04703125 40.8125 16.0390625 C38.9375 16.01302083 37.0625 15.98697917 35.1875 15.9609375 C34.300625 15.95320312 33.41375 15.94546875 32.5 15.9375 C31.6853125 15.92589844 30.870625 15.91429687 30.03125 15.90234375 C27.93090258 15.86632123 27.93090258 15.86632123 26 17 C21.16878876 17.58940777 17.8589396 17.4841296 13.5625 15.0625 C12.716875 14.381875 11.87125 13.70125 11 13 C7.99686252 11.49843126 5.20932478 11.90718796 1.875 11.9375 C0.59367187 11.94652344 -0.68765625 11.95554688 -2.0078125 11.96484375 C-2.99523438 11.97644531 -3.98265625 11.98804688 -5 12 C-5.33 11.01 -5.66 10.02 -6 9 C-5.01 8.67 -4.02 8.34 -3 8 C-1.57142881 6.59894424 -1.57142881 6.59894424 -0.3125 4.9375 C0.450625 3.968125 1.21375 2.99875 2 2 C1.34 1.34 0.68 0.68 0 0 Z " fill="#02070A" transform="translate(59,128)"/>
<path d="M0 0 C3.84177166 1.19521785 4.70681254 1.56021882 7 5 C2.33333333 4.33333333 -2.33333333 3.66666667 -7 3 C-8.42944945 5.35438733 -9.08661261 6.48032433 -8.625 9.25 C-8.41875 9.8275 -8.2125 10.405 -8 11 C-6.68 11.33 -5.36 11.66 -4 12 C-3.94552953 13.41623216 -3.90699492 14.83308191 -3.875 16.25 C-3.85179688 17.03890625 -3.82859375 17.8278125 -3.8046875 18.640625 C-4.02085025 21.25187102 -4.60306132 22.79583378 -6 25 C-9.95310926 27.25891958 -13.52249882 27.17558828 -18 27 C-17.6596875 26.13375 -17.6596875 26.13375 -17.3125 25.25 C-16.71909789 22.90578683 -16.71909789 22.90578683 -18.4375 21.0625 C-18.953125 20.381875 -19.46875 19.70125 -20 19 C-20.46043998 15.22439213 -20.17175481 14.25763222 -18 11 C-14.9375 10.875 -14.9375 10.875 -12 11 C-11.67 10.67 -11.34 10.34 -11 10 C-12.65 10 -14.3 10 -16 10 C-12.09800025 2.48503751 -9.23126245 -2.30781561 0 0 Z " fill="#5EB796" transform="translate(103,64)"/>
<path d="M0 0 C3.04317386 -0.13558695 6.08025562 -0.23437239 9.125 -0.3125 C10.40890625 -0.3753418 10.40890625 -0.3753418 11.71875 -0.43945312 C16.20353563 -0.525699 19.08656226 -0.42265645 22.6171875 2.51953125 C23.40351562 3.33808594 24.18984375 4.15664062 25 5 C24.67 6.32 24.34 7.64 24 9 C23.34 9 22.68 9 22 9 C22 8.01 22 7.02 22 6 C20.1746875 6.495 20.1746875 6.495 18.3125 7 C15.12789396 7.80322213 12.3027157 8.20641973 9 8 C9.34227572 10.97065509 9.34227572 10.97065509 10 14 C10.66 14.33 11.32 14.66 12 15 C12.625 17.0625 12.625 17.0625 13 19 C10.5625 18.1875 10.5625 18.1875 8 17 C7.67 16.01 7.34 15.02 7 14 C6.01 14 5.02 14 4 14 C4.495 14.928125 4.99 15.85625 5.5 16.8125 C7 20 7 20 7 23 C4.03970995 21.97921033 3.06191763 21.09883007 1.375 18.40625 C-0.19360491 14.52038784 -0.34281611 11.23490326 -0.1875 7.125 C-0.17396484 6.43664062 -0.16042969 5.74828125 -0.14648438 5.0390625 C-0.1114837 3.35902999 -0.05768954 1.6794065 0 0 Z " fill="#5DC5B7" transform="translate(50,61)"/>
<path d="M0 0 C4.73948344 -0.59243543 7.18095619 -0.24689368 11.0625 2.625 C12.39451618 3.7268231 13.70769077 4.8518632 15 6 C15.87591797 6.75410156 15.87591797 6.75410156 16.76953125 7.5234375 C23.16852388 13.4086424 23.55048533 20.68456672 24.625 28.875 C24.7590625 29.83019531 24.893125 30.78539063 25.03125 31.76953125 C27.00955158 46.48567262 27.00955158 46.48567262 24 51 C21.2114711 51.22107787 18.65346819 51.28107535 15.875 51.1875 C14.74384766 51.16719727 14.74384766 51.16719727 13.58984375 51.14648438 C11.72625873 51.11109985 9.86304022 51.05729167 8 51 C8 50.01 8 49.02 8 48 C12.62 47.67 17.24 47.34 22 47 C21.54464823 39.63847967 20.99589193 32.32274963 20.125 25 C19.98320312 23.80375 19.84140625 22.6075 19.6953125 21.375 C18.13616703 13.80701298 14.25329002 9.25481589 8 5 C5.0565324 3.70596781 2.12203717 2.75882848 -1 2 C-0.67 1.34 -0.34 0.68 0 0 Z " fill="#010E11" transform="translate(134,42)"/>
<path d="M0 0 C3.26983742 -0.39238049 5.88477099 -0.61930802 8.8359375 1.01953125 C11.43024113 3.23017025 12.87180224 4.84030338 13.25390625 8.296875 C12.99544957 11.52494617 12.77790006 13.99400771 10.75854492 16.60546875 C8.4442132 18.44074056 7.07211215 18.37342575 4.140625 18.36328125 C3.18929687 18.36263672 2.23796875 18.36199219 1.2578125 18.36132812 C0.26523438 18.34521484 -0.72734375 18.32910156 -1.75 18.3125 C-2.72710937 18.31572266 -3.70421875 18.31894531 -4.7109375 18.32226562 C-10.18737558 18.28167208 -14.82591898 17.81381891 -20 16 C-19.67 15.34 -19.34 14.68 -19 14 C-18.37738281 14.15339844 -17.75476563 14.30679688 -17.11328125 14.46484375 C-12.81725228 15.20330795 -8.53758048 15.36462162 -4.1875 15.5625 C-3.30384766 15.60568359 -2.42019531 15.64886719 -1.50976562 15.69335938 C0.65999623 15.79891536 2.8299791 15.89991071 5 16 C4.67 14.35 4.34 12.7 4 11 C2.35 11.33 0.7 11.66 -1 12 C0 10 0 10 2 9 C1.34 8.67 0.68 8.34 0 8 C0 5.36 0 2.72 0 0 Z " fill="#49C9DC" transform="translate(101,33)"/>
<path d="M0 0 C2.33954855 0.28647533 4.67212073 0.63049535 7 1 C13.05514964 1.89338273 18.88117054 2.11284726 25 2 C25.28527105 5.37887713 25.45018698 8.63173355 25 12 C22.56149148 14.18182341 21.2678851 15 18 15 C17.67 15.99 17.34 16.98 17 18 C14.98637547 13.97275094 16.58841016 8.29882718 17 4 C12.71 4.66 8.42 5.32 4 6 C3.67 7.32 3.34 8.64 3 10 C1.35 10 -0.3 10 -2 10 C-2.79198196 7.14886495 -3.21481122 5.55237171 -2.125 2.75 C-1 1 -1 1 0 0 Z " fill="#8EE4AC" transform="translate(96,66)"/>
<path d="M0 0 C-0.66 0.66 -1.32 1.32 -2 2 C0.25740623 4.33524782 2.2805761 6.18705073 5 8 C3.60201172 7.98259766 3.60201172 7.98259766 2.17578125 7.96484375 C0.90089844 7.95582031 -0.37398437 7.94679687 -1.6875 7.9375 C-2.69840698 7.92928223 -2.69840698 7.92928223 -3.72973633 7.92089844 C-9.31281966 7.91304508 -14.75758858 8.41989883 -20.29296875 9.171875 C-23 9 -23 9 -25.36328125 7.015625 C-25.90339844 6.35046875 -26.44351563 5.6853125 -27 5 C-22.8332816 0.38684749 -18.60112054 0.39956272 -12.7421875 0.078125 C-8.49572432 -0.04285686 -4.2480349 0 0 0 Z " fill="#010E15" transform="translate(100,133)"/>
<path d="M0 0 C2.6875 1.8125 2.6875 1.8125 5 4 C5.598125 4.53625 6.19625 5.0725 6.8125 5.625 C8 7 8 7 8 9 C8.66 9.33 9.32 9.66 10 10 C8.02 10 6.04 10 4 10 C3.67 9.34 3.34 8.68 3 8 C2.34 8.66 1.68 9.32 1 10 C1.66 10.66 2.32 11.32 3 12 C1.3125 14.5 1.3125 14.5 -1 17 C-3.75 17.3125 -3.75 17.3125 -6 17 C-8.65583727 11.68832546 -9.60571162 7.95616424 -9 2 C-5.48746854 -0.34168764 -4.13530644 -0.49623677 0 0 Z " fill="#2ED3EB" transform="translate(135,63)"/>
<path d="M0 0 C0.99 0.33 1.98 0.66 3 1 C2.21625 1.86625 1.4325 2.7325 0.625 3.625 C-3.53300814 8.68999575 -4.73602578 14.1082541 -4.55078125 20.6015625 C-3.8847722 23.50177212 -3.08966026 24.48615549 -0.8125 26.375 C11.08219037 33.63137956 25.35529648 34.74837915 39 33 C41.78596589 31.88953797 42.74294491 31.44984641 44.25 28.8125 C45.2094484 25.21456851 45.5127905 22.71773114 45 19 C42.88534891 15.73072347 40.51631193 12.75815596 37 11 C34.30986661 10.81295596 31.70313823 10.91418609 29 11 C27.68737429 12.08552366 27.68737429 12.08552366 27.90234375 14.72265625 C27.91394531 15.82480469 27.92554688 16.92695312 27.9375 18.0625 C27.94652344 19.16722656 27.95554688 20.27195312 27.96484375 21.41015625 C27.97644531 22.26480469 27.98804688 23.11945312 28 24 C27.34 24 26.68 24 26 24 C26 19.38 26 14.76 26 10 C28.60919828 8.69540086 30.58942615 8.8673406 33.5 8.875 C34.4796875 8.87242188 35.459375 8.86984375 36.46875 8.8671875 C39 9 39 9 41 10 C41 10.66 41 11.32 41 12 C41.99 12.33 42.98 12.66 44 13 C44 13.66 44 14.32 44 15 C44.66 15 45.32 15 46 15 C46 15.99 46 16.98 46 18 C46.66 18 47.32 18 48 18 C48 20.97 48 23.94 48 27 C47.34 27 46.68 27 46 27 C45.71125 28.134375 45.4225 29.26875 45.125 30.4375 C44.75375 31.613125 44.3825 32.78875 44 34 C34.85613526 38.57193237 16.69203232 36.08538575 7.22094727 33.04711914 C-2.87438508 29.31889155 -2.87438508 29.31889155 -6 25 C-7.62906967 15.18710001 -5.18831145 8.15306086 0 0 Z " fill="#52C3D4" transform="translate(71,20)"/>
<path d="M0 0 C0.55526367 0.14236084 1.11052734 0.28472168 1.68261719 0.43139648 C4.542165 1.13302805 7.1338178 1.11208913 10.078125 1.09765625 C11.81835938 1.09282227 11.81835938 1.09282227 13.59375 1.08789062 C14.8003125 1.07951172 16.006875 1.07113281 17.25 1.0625 C18.47203125 1.05798828 19.6940625 1.05347656 20.953125 1.04882812 C23.96879946 1.03704815 26.98437498 1.02059853 30 1 C33 6.75 33 6.75 33 9 C36.96 9.33 40.92 9.66 45 10 C45 10.33 45 10.66 45 11 C43.22992286 11.08114106 41.45877902 11.13925505 39.6875 11.1875 C38.70136719 11.22230469 37.71523437 11.25710937 36.69921875 11.29296875 C34 11 34 11 32.21875 9.65625 C30.68400035 7.57056458 29.85518157 5.43397831 29 3 C26.58380177 2.74969023 26.58380177 2.74969023 24 3 C23.01 4.485 23.01 4.485 22 6 C20.01171875 6.30078125 20.01171875 6.30078125 17.6875 6.3125 C14.92098426 6.50883338 13.46425741 6.62092743 11.296875 8.390625 C9.7652404 10.21775909 9.7652404 10.21775909 8 13 C7.34 12.67 6.68 12.34 6 12 C6.66 10.68 7.32 9.36 8 8 C4.7 8 1.4 8 -2 8 C-1.125 1.125 -1.125 1.125 0 0 Z " fill="#A0CF98" transform="translate(138,91)"/>
<path d="M0 0 C0.33 0.99 0.66 1.98 1 3 C-1.64 3.66 -4.28 4.32 -7 5 C-7 5.66 -7 6.32 -7 7 C-8.33333333 8.33333333 -9.66666667 9.66666667 -11 11 C-16.35538751 18.92597351 -17.42617031 25.03144198 -17.1875 34.4375 C-17.17396484 35.45521484 -17.16042969 36.47292969 -17.14648438 37.52148438 C-17.1113661 40.01488214 -17.06218559 42.50715512 -17 45 C-18.32 45 -19.64 45 -21 45 C-21.11755481 41.35444442 -21.18769812 37.70938526 -21.25 34.0625 C-21.28351562 33.04091797 -21.31703125 32.01933594 -21.3515625 30.96679688 C-21.44034717 24.01939636 -20.3950438 19.0624651 -17 13 C-16.53335938 12.13246094 -16.06671875 11.26492187 -15.5859375 10.37109375 C-15.18632813 9.73300781 -14.78671875 9.09492188 -14.375 8.4375 C-13.97023438 7.77621094 -13.56546875 7.11492188 -13.1484375 6.43359375 C-12.57996094 5.72396484 -12.57996094 5.72396484 -12 5 C-11.34 5 -10.68 5 -10 5 C-9.67 4.01 -9.34 3.02 -9 2 C-5.99208089 -0.04108797 -3.57804656 -0.19878036 0 0 Z " fill="#04090A" transform="translate(52,15)"/>
<path d="M0 0 C0.495 0.99 0.495 0.99 1 2 C-0.53026379 5.42058965 -1.73238545 6.84389151 -5 8.75 C-8.71793554 11.53845166 -8.96907051 13.4928908 -10.1484375 17.8125 C-11.53663651 21.37851581 -13.93788626 22.80326623 -17 25 C-17.33 25.66 -17.66 26.32 -18 27 C-21.33311282 29.22207521 -24.05724018 29.40202588 -28 29 C-30.66796875 27.13671875 -30.66796875 27.13671875 -33.1875 24.6875 C-34.02667969 23.88699219 -34.86585937 23.08648437 -35.73046875 22.26171875 C-36.47941406 21.51535156 -37.22835937 20.76898438 -38 20 C-38.59425781 19.40832031 -39.18851562 18.81664063 -39.80078125 18.20703125 C-40.19652344 17.80871094 -40.59226562 17.41039063 -41 17 C-37.17498579 18.07578525 -34.90332448 19.90161258 -32.0625 22.5625 C-28.7962999 25.54980256 -26.56860881 26.88578478 -22 27 C-22 26.34 -22 25.68 -22 25 C-20.68 24.34 -19.36 23.68 -18 23 C-18 21.35 -18 19.7 -18 18 C-16.02 18.33 -14.04 18.66 -12 19 C-11.67 16.69 -11.34 14.38 -11 12 C-12.65 12 -14.3 12 -16 12 C-15.34 10.02 -14.68 8.04 -14 6 C-13.67 6.66 -13.34 7.32 -13 8 C-10.47266765 8.65555119 -10.47266765 8.65555119 -8 9 C-8.66 6.36 -9.32 3.72 -10 1 C-6.7 0.67 -3.4 0.34 0 0 Z " fill="#32D1EC" transform="translate(146,98)"/>
<path d="M0 0 C5.12295265 3.23902812 9.6268249 6.94023736 13 12 C13.125 14.6875 13.125 14.6875 13 17 C11.02 17.99 11.02 17.99 9 19 C9 18.34 9 17.68 9 17 C7.68 16.67 6.36 16.34 5 16 C6.65 16 8.3 16 10 16 C8.05527831 10.07371655 4.36079542 7.00748269 -1 4 C-3.94256028 3.447361 -5.98921743 3.61680949 -9 4 C-10.96224402 7.92448803 -10.42538262 12.39986888 -9.328125 16.52734375 C-8.59844559 18.70605632 -7.83271312 20.85873768 -7 23 C-7.99 23.33 -8.98 23.66 -10 24 C-14.12424387 17.72397673 -14.83733218 11.4110147 -14 4 C-11.18264045 -1.37859551 -5.37455766 -1.39035845 0 0 Z " fill="#000E14" transform="translate(137,59)"/>
<path d="M0 0 C1.41569064 -0.08167446 2.83276805 -0.13949698 4.25 -0.1875 C5.43335938 -0.23970703 5.43335938 -0.23970703 6.640625 -0.29296875 C9.54149166 0.0672382 10.69186124 1.26889593 13 3 C15.45059079 3.38800329 15.45059079 3.38800329 18 3.375 C21.791339 3.64941006 22.69484465 3.73742447 25.6875 6.3125 C27 9 27 9 26.75 11.3125 C26.5025 11.869375 26.255 12.42625 26 13 C25.484375 12.690625 24.96875 12.38125 24.4375 12.0625 C21.33334577 10.70940713 18.34884993 10.38640576 15 10 C15 9.01 15 8.02 15 7 C17.31 7 19.62 7 22 7 C22 6.34 22 5.68 22 5 C17.94914321 5.24631557 17.94914321 5.24631557 14 6 C12.4100567 7.92064793 12.4100567 7.92064793 12 10 C4.61538462 10.49230769 4.61538462 10.49230769 1.5 8 C1.005 7.34 0.51 6.68 0 6 C0.99 6 1.98 6 3 6 C3.33 4.68 3.66 3.36 4 2 C2.68 2.33 1.36 2.66 0 3 C0 2.01 0 1.02 0 0 Z " fill="#061016" transform="translate(28,122)"/>
<path d="M0 0 C2.91818671 -0.34740318 5.13765057 -0.50109494 7.734375 1.0078125 C9.375 2.3125 9.375 2.3125 12 5 C12 8 12 8 10.421875 10.171875 C7.20781989 12.59796821 5.22884692 12.40915388 1.25 12.25 C0.07953125 12.21390625 -1.0909375 12.1778125 -2.296875 12.140625 C-3.18890625 12.09421875 -4.0809375 12.0478125 -5 12 C-5.33 11.01 -5.66 10.02 -6 9 C-5.01 8.67 -4.02 8.34 -3 8 C-1.57142881 6.59894424 -1.57142881 6.59894424 -0.3125 4.9375 C0.450625 3.968125 1.21375 2.99875 2 2 C1.34 1.34 0.68 0.68 0 0 Z " fill="#01080C" transform="translate(59,128)"/>
<path d="M0 0 C0 0.99 0 1.98 0 3 C0.66 3.33 1.32 3.66 2 4 C0.4375 7 0.4375 7 -2 10 C-5.75 10.375 -5.75 10.375 -9 10 C-9.33 10.66 -9.66 11.32 -10 12 C-10 11.01 -10 10.02 -10 9 C-10.99 8.67 -11.98 8.34 -13 8 C-13 6.02 -13 4.04 -13 2 C-8.46298506 0.54815522 -4.81938524 -0.23509196 0 0 Z " fill="#4BCEC2" transform="translate(72,67)"/>
<path d="M0 0 C0.99 0 1.98 0 3 0 C2.34 1.65 1.68 3.3 1 5 C2.98 5 4.96 5 7 5 C7 5.66 7 6.32 7 7 C6.01 7.495 6.01 7.495 5 8 C5.66 9.65 6.32 11.3 7 13 C6.01 13 5.02 13 4 13 C3.34 12.34 2.68 11.68 2 11 C-2.71204313 8.91793443 -5.98868259 8.93991363 -11 10 C-11.99 10.495 -11.99 10.495 -13 11 C-13 10.01 -13 9.02 -13 8 C-12.34 8 -11.68 8 -11 8 C-10.67 6.68 -10.34 5.36 -10 4 C-7.50935112 3.31292445 -5.62113708 3 -3 3 C-2.505 2.505 -2.01 2.01 -1.5 1.5 C-1.005 1.005 -0.51 0.51 0 0 Z " fill="#3CCBE0" transform="translate(105,55)"/>
<path d="M0 0 C1.65 0 3.3 0 5 0 C5.27797226 18.80945615 5.27797226 18.80945615 -0.1796875 24.67578125 C-2.30863077 26.22451895 -3.57356087 26.52372192 -6.1875 26.625 C-10 26 -10 26 -12 24.5 C-12.33 24.005 -12.66 23.51 -13 23 C-10 22 -10 22 -6.5 22.125 C-3.09697814 22.32111827 -3.09697814 22.32111827 -1.125 20.6875 C1.40940235 16.88589647 1.31152666 12.71893359 1.5625 8.3125 C1.60568359 7.61060547 1.64886719 6.90871094 1.69335938 6.18554688 C1.7991736 4.45724794 1.90006581 2.7286489 2 1 C1.34 0.67 0.68 0.34 0 0 Z " fill="#020E0C" transform="translate(108,70)"/>
<path d="M0 0 C3.3 0 6.6 0 10 0 C9.67 0.66 9.34 1.32 9 2 C6.03 1.505 6.03 1.505 3 1 C1.80861842 6.66159804 1.80861842 6.66159804 3.4375 12 C4.2109375 12.99 4.2109375 12.99 5 14 C4.34 14 3.68 14 3 14 C3 14.99 3 15.98 3 17 C4.65 17 6.3 17 8 17 C8 17.33 8 17.66 8 18 C5.69 18 3.38 18 1 18 C0.505 15.525 0.505 15.525 0 13 C-0.66 13 -1.32 13 -2 13 C-1.67 10.36 -1.34 7.72 -1 5 C-1.51046875 5.32742187 -2.0209375 5.65484375 -2.546875 5.9921875 C-5.86772037 7.35648384 -8.67372568 7.1912273 -12.25 7.125 C-13.51328125 7.10695313 -14.7765625 7.08890625 -16.078125 7.0703125 C-17.04234375 7.04710938 -18.0065625 7.02390625 -19 7 C-18.67 6.34 -18.34 5.68 -18 5 C-9.42857143 4.85714286 -9.42857143 4.85714286 -6 6 C-6 5.34 -6 4.68 -6 4 C-5.34 4 -4.68 4 -4 4 C-4 3.34 -4 2.68 -4 2 C-2.68 2 -1.36 2 0 2 C0 1.34 0 0.68 0 0 Z " fill="#64D3C4" transform="translate(82,74)"/>
<path d="M0 0 C1.08667969 0.02707031 2.17335938 0.05414063 3.29296875 0.08203125 C4.54013672 0.13423828 4.54013672 0.13423828 5.8125 0.1875 C6.1425 1.8375 6.4725 3.4875 6.8125 5.1875 C2.69008672 7.18624583 -0.62327549 7.6854154 -5.1875 7.1875 C-7.625 5.1875 -7.625 5.1875 -9.1875 3.1875 C-6.54246503 -0.34849411 -4.24021315 -0.13678107 0 0 Z " fill="#5EC3D1" transform="translate(82.1875,134.8125)"/>
<path d="M0 0 C0.66 0 1.32 0 2 0 C2 0.66 2 1.32 2 2 C3.98 2 5.96 2 8 2 C7.67 2.66 7.34 3.32 7 4 C4.4375 4.625 4.4375 4.625 2 5 C2 5.66 2 6.32 2 7 C2.78375 7.061875 3.5675 7.12375 4.375 7.1875 C5.24125 7.455625 6.1075 7.72375 7 8 C8.3125 10.5625 8.3125 10.5625 9 13 C6.13984979 11.78993645 4.62038978 10.62038978 2.375 8.375 C-1.08590886 5.38321689 -4.30067012 5.47681315 -8.73046875 5.53125 C-11.50918597 6.1051675 -12.43030415 6.63532916 -14 9 C-14.36270484 11.74243563 -14.36270484 11.74243563 -14.1875 14.6875 C-14.16042969 15.68136719 -14.13335937 16.67523438 -14.10546875 17.69921875 C-14.07066406 18.45847656 -14.03585938 19.21773437 -14 20 C-14.66 20.33 -15.32 20.66 -16 21 C-16.10864945 18.93867858 -16.18588321 16.87568679 -16.25 14.8125 C-16.29640625 13.66394531 -16.3428125 12.51539062 -16.390625 11.33203125 C-15.91464014 7.2718804 -15.0587999 5.69657359 -12 3 C-8.984375 2.51171875 -8.984375 2.51171875 -5.75 2.6875 C-4.67234375 2.73261719 -3.5946875 2.77773438 -2.484375 2.82421875 C-1.66453125 2.88222656 -0.8446875 2.94023438 0 3 C0 2.01 0 1.02 0 0 Z " fill="#49C7DD" transform="translate(138,54)"/>
<path d="M0 0 C0.66 0 1.32 0 2 0 C2 0.99 2 1.98 2 3 C2.66 3 3.32 3 4 3 C4 5.97 4 8.94 4 12 C1.525 11.01 1.525 11.01 -1 10 C-0.67 11.65 -0.34 13.3 0 15 C-1.98 15 -3.96 15 -6 15 C-6 13.35 -6 11.7 -6 10 C-5.34 10 -4.68 10 -4 10 C-4 8.35 -4 6.7 -4 5 C-3.01 5 -2.02 5 -1 5 C-0.67 3.35 -0.34 1.7 0 0 Z " fill="#2BD4EF" transform="translate(151,74)"/>
<path d="M0 0 C0.86858139 -0.01283524 1.73716278 -0.02567047 2.63206482 -0.03889465 C3.57985306 -0.04628159 4.5276413 -0.05366852 5.50415039 -0.0612793 C6.47784073 -0.06935104 7.45153107 -0.07742279 8.45472717 -0.08573914 C10.52530119 -0.09960632 12.59589832 -0.11031661 14.66650391 -0.11816406 C17.80750374 -0.13525696 20.94741798 -0.17910444 24.08813477 -0.22338867 C26.10179891 -0.23352593 28.11547201 -0.24203879 30.12915039 -0.2487793 C31.05872055 -0.26628738 31.98829071 -0.28379547 32.94602966 -0.30183411 C39.66868029 -0.27990696 44.85766011 1.29650336 50.91430664 4.17700195 C50.58430664 4.83700195 50.25430664 5.49700195 49.91430664 6.17700195 C49.31035065 5.89532166 48.70639465 5.61364136 48.08413696 5.32342529 C41.80123708 2.57599464 36.57141526 1.57729237 29.75024414 1.56762695 C28.83215973 1.5510907 27.91407532 1.53455444 26.96817017 1.51751709 C24.07514475 1.46946296 21.18264319 1.44776175 18.28930664 1.42700195 C16.3114163 1.39880656 14.33354991 1.36887422 12.35571289 1.3371582 C7.54195404 1.26371602 2.72847877 1.21388242 -2.08569336 1.17700195 C-2.08569336 1.83700195 -2.08569336 2.49700195 -2.08569336 3.17700195 C-3.07569336 3.67200195 -3.07569336 3.67200195 -4.08569336 4.17700195 C-4.8072876 5.82063329 -5.47920757 7.48750581 -6.08569336 9.17700195 C-7.07569336 8.51700195 -8.06569336 7.85700195 -9.08569336 7.17700195 C-4.38907976 0.05632973 -4.38907976 0.05632973 0 0 Z " fill="#50C8D6" transform="translate(86.085693359375,15.822998046875)"/>
<path d="M0 0 C0.66 0.33 1.32 0.66 2 1 C0.34325402 7.67058252 -1.40271709 10.98455791 -7 15 C-7.33 15.66 -7.66 16.32 -8 17 C-11.33311282 19.22207521 -14.05724018 19.40202588 -18 19 C-20.66796875 17.13671875 -20.66796875 17.13671875 -23.1875 14.6875 C-24.02667969 13.88699219 -24.86585937 13.08648437 -25.73046875 12.26171875 C-26.47941406 11.51535156 -27.22835937 10.76898438 -28 10 C-28.59425781 9.40832031 -29.18851562 8.81664063 -29.80078125 8.20703125 C-30.19652344 7.80871094 -30.59226562 7.41039063 -31 7 C-27.17498579 8.07578525 -24.90332448 9.90161258 -22.0625 12.5625 C-18.7962999 15.54980256 -16.56860881 16.88578478 -12 17 C-12 16.34 -12 15.68 -12 15 C-10.68 14.34 -9.36 13.68 -8 13 C-8 11.35 -8 9.7 -8 8 C-5.03 8.495 -5.03 8.495 -2 9 C-1.7834375 7.88625 -1.7834375 7.88625 -1.5625 6.75 C-1.09812508 4.47972261 -0.58136431 2.24240521 0 0 Z " fill="#54BFCE" transform="translate(136,108)"/>
<path d="M0 0 C1 2 1 2 0.0625 5.125 C-0.288125 6.07375 -0.63875 7.0225 -1 8 C1.64 8.33 4.28 8.66 7 9 C7 9.99 7 10.98 7 12 C10.63 12 14.26 12 18 12 C18.33 12.99 18.66 13.98 19 15 C19.99 14.67 20.98 14.34 22 14 C23.39439664 13.93334624 24.79169875 13.91461801 26.1875 13.9375 C28.0746875 13.9684375 28.0746875 13.9684375 30 14 C29.67 14.66 29.34 15.32 29 16 C27.63875 15.938125 27.63875 15.938125 26.25 15.875 C23.1217954 15.99531556 21.61385994 16.3914708 19 18 C18.54625 17.360625 18.0925 16.72125 17.625 16.0625 C14.21367755 13.38217522 11.67992609 13.48103467 7.4375 13.37109375 C4.52800655 12.92814202 3.31020693 11.75575727 1 10 C-1.73713695 9.62539184 -4.22025584 9.86101279 -7 10 C-5.625 8 -5.625 8 -4 6 C-3.34 6 -2.68 6 -2 6 C-1.34 4.02 -0.68 2.04 0 0 Z " fill="#49C9D6" transform="translate(36,113)"/>
<path d="M0 0 C0.33 0.99 0.66 1.98 1 3 C0.01 3.804375 0.01 3.804375 -1 4.625 C-3.23434948 6.85913976 -3.23434948 6.85913976 -3.4375 9.875 C-2.93224681 13.48395133 -1.93485782 15.91855977 0 19 C0.99 19.33 1.98 19.66 3 20 C3 22.31 3 24.62 3 27 C2.731875 26.38125 2.46375 25.7625 2.1875 25.125 C1.04443152 22.7004767 1.04443152 22.7004767 -2 21 C-3.57925155 18.45408914 -4.7588104 15.72430598 -6 13 C-6.433125 12.113125 -6.86625 11.22625 -7.3125 10.3125 C-8.20466937 7.31156666 -8.2886292 5.88046526 -7 3 C-3.4375 1.1875 -3.4375 1.1875 0 0 Z " fill="#54C2D1" transform="translate(41,78)"/>
<path d="M0 0 C7.87833333 1.63 7.87833333 1.63 10.625 5.75 C7.01396744 5.23413821 3.58097783 4.7376429 0.0625 3.75 C-3.32379672 3.38057791 -3.32379672 3.38057791 -5.1484375 5.24609375 C-6.67063056 7.02198565 -8.05923452 8.81731884 -9.375 10.75 C-10.365 10.42 -11.355 10.09 -12.375 9.75 C-11.44362408 8.45391053 -10.5046434 7.16328368 -9.5625 5.875 C-9.04042969 5.15570313 -8.51835938 4.43640625 -7.98046875 3.6953125 C-5.40116232 0.5700215 -4.09102886 -0.30303917 0 0 Z " fill="#020C10" transform="translate(99.375,63.25)"/>
<path d="M0 0 C0.99 0 1.98 0 3 0 C3.02578125 1.00160156 3.0515625 2.00320312 3.078125 3.03515625 C3.44058033 13.14154829 3.44058033 13.14154829 8 22 C6.68 22 5.36 22 4 22 C0.44613219 16.99826011 -0.13451664 13.38007982 -0.0625 7.375 C-0.05798828 6.66859375 -0.05347656 5.9621875 -0.04882812 5.234375 C-0.03703875 3.48954725 -0.01910324 1.744763 0 0 Z " fill="#020E14" transform="translate(50,61)"/>
<path d="M0 0 C0.99 0.495 0.99 0.495 2 1 C2 6.94 2 12.88 2 19 C4.289375 19.020625 6.57875 19.04125 8.9375 19.0625 C10.22527344 19.07410156 11.51304688 19.08570312 12.83984375 19.09765625 C15.86298403 19.36532549 15.86298403 19.36532549 17 18 C22.2279653 17.73417126 26.07117148 18.02846859 31 20 C31 20.33 31 20.66 31 21 C26.74585377 21.02465622 22.49174502 21.04283899 18.23754883 21.05493164 C16.78929927 21.05997101 15.34105483 21.06680253 13.89282227 21.07543945 C11.81525412 21.08752247 9.73775303 21.09323211 7.66015625 21.09765625 C6.40855713 21.10289307 5.15695801 21.10812988 3.86743164 21.11352539 C1 21 1 21 0 20 C-0.08669432 18.5112814 -0.10703494 17.018555 -0.09765625 15.52734375 C-0.09443359 14.62822266 -0.09121094 13.72910156 -0.08789062 12.80273438 C-0.07951172 11.85720703 -0.07113281 10.91167969 -0.0625 9.9375 C-0.05798828 8.98810547 -0.05347656 8.03871094 -0.04882812 7.06054688 C-0.0370011 4.70696935 -0.02052025 2.35351523 0 0 Z " fill="#4FC9CF" transform="translate(34,39)"/>
<path d="M0 0 C0.33 0.99 0.66 1.98 1 3 C3.64 3 6.28 3 9 3 C8.67 3.66 8.34 4.32 8 5 C5.03 5 2.06 5 -1 5 C0.9767105 7.39031255 0.9767105 7.39031255 4.75 7.4375 C9.590823 7.35799743 11.6594005 5.3405995 15 2 C15.33 2.99 15.66 3.98 16 5 C15.34 5 14.68 5 14 5 C14 5.66 14 6.32 14 7 C10.51079626 9.32613583 9.05047454 9.24247293 4.9375 9.1875 C3.34228516 9.17783203 3.34228516 9.17783203 1.71484375 9.16796875 C-1 9 -1 9 -3 8 C-3 6.35 -3 4.7 -3 3 C-3.66 2.67 -4.32 2.34 -5 2 C-3.35 1.34 -1.7 0.68 0 0 Z " fill="#50C2D1" transform="translate(97,88)"/>
<path d="M0 0 C6.71614042 10.07421063 5.06400311 22.57799066 4 34 C3.34 34 2.68 34 2 34 C0.98194396 30.94583187 0.86624485 28.82063039 0.875 25.625 C0.87242187 24.68914063 0.86984375 23.75328125 0.8671875 22.7890625 C1 20 1 20 1.56640625 17.49609375 C2.08123586 14.53234491 1.68669254 12.37079697 1.0625 9.4375 C0.36492304 6.10668553 0 3.44026809 0 0 Z " fill="#51CADB" transform="translate(156,39)"/>
<path d="M0 0 C1.5778125 0.02707031 1.5778125 0.02707031 3.1875 0.0546875 C5.75099422 0.10129649 8.31248094 0.1666973 10.875 0.25 C9.555 1.57 8.235 2.89 6.875 4.25 C6.875 3.26 6.875 2.27 6.875 1.25 C4.1872562 1.39209669 1.49986698 1.5385723 -1.1875 1.6875 C-2.31575195 1.74647461 -2.31575195 1.74647461 -3.46679688 1.80664062 C-8.07198741 2.06580719 -12.56866724 2.5299421 -17.125 3.25 C-17.125 3.91 -17.125 4.57 -17.125 5.25 C-18.115 5.25 -19.105 5.25 -20.125 5.25 C-20.3725 5.8275 -20.62 6.405 -20.875 7 C-22.29183317 9.5502997 -24.00127537 11.26785701 -26.125 13.25 C-26.785 12.92 -27.445 12.59 -28.125 12.25 C-26.8510411 10.21166576 -25.51438077 8.21147874 -24.125 6.25 C-23.465 6.25 -22.805 6.25 -22.125 6.25 C-22.125 5.59 -22.125 4.93 -22.125 4.25 C-14.59553359 0.54684685 -8.32552456 -0.27539903 0 0 Z " fill="#59C6D5" transform="translate(67.125,15.75)"/>
<path d="M0 0 C6.45941732 -0.10151557 12.91862852 -0.17151376 19.37866211 -0.21972656 C21.57568042 -0.23982767 23.77264532 -0.26711306 25.96948242 -0.30175781 C29.12952866 -0.35034093 32.28886687 -0.37298405 35.44921875 -0.390625 C36.91979988 -0.42159271 36.91979988 -0.42159271 38.42008972 -0.45318604 C42.79036289 -0.45462031 45.31218053 -0.40581402 49.13989258 1.85253906 C51 4 51 4 51.3125 6.75 C51.209375 7.4925 51.10625 8.235 51 9 C50.401875 8.21625 49.80375 7.4325 49.1875 6.625 C47.08914751 3.85425677 47.08914751 3.85425677 44 2 C41.05604061 1.79278556 41.05604061 1.79278556 37.5625 1.9375 C29.36330366 2.0803708 21.193409 1.81089329 13 1.5 C11.72842041 1.45222412 10.45684082 1.40444824 9.14672852 1.35522461 C6.09772218 1.23912935 3.04882216 1.12082179 0 1 C0 0.67 0 0.34 0 0 Z " fill="#C6F09B" transform="translate(25,60)"/>
<path d="M0 0 C0.33 0.99 0.66 1.98 1 3 C2.98 2.34 4.96 1.68 7 1 C5.51887086 3.82359938 4.01271839 6.51946058 2 9 C-0.8125 9.5 -0.8125 9.5 -3 9 C-3 9.66 -3 10.32 -3 11 C-4.98 11 -6.96 11 -9 11 C-8.67 9.02 -8.34 7.04 -8 5 C-6.35 5.33 -4.7 5.66 -3 6 C-3 6.66 -3 7.32 -3 8 C-1.68 8 -0.36 8 1 8 C1 6.68 1 5.36 1 4 C0.01 4.33 -0.98 4.66 -2 5 C-1.34 3.35 -0.68 1.7 0 0 Z " fill="#31D4E3" transform="translate(85,65)"/>
<path d="M0 0 C4.62 0 9.24 0 14 0 C14.33 5.28 14.66 10.56 15 16 C14.34 16.33 13.68 16.66 13 17 C13 12.05 13 7.1 13 2 C10.69 2.33 8.38 2.66 6 3 C6 5.31 6 7.62 6 10 C3.09787714 6.61418999 1.70604525 4.26511313 0 0 Z " fill="#55C7BE" transform="translate(36,61)"/>
<path d="M0 0 C4.47211125 -0.662535 6.81322882 -0.70601118 10.7578125 1.640625 C13.37998358 3.65767968 15.79824055 5.52753242 18 8 C18 9.32 18 10.64 18 12 C16.329375 12.4640625 16.329375 12.4640625 14.625 12.9375 C11.2054845 13.82326483 11.2054845 13.82326483 9 15 C8.34 13.35 7.68 11.7 7 10 C8.32 9.34 9.64 8.68 11 8 C11 8.99 11 9.98 11 11 C12.32 10.67 13.64 10.34 15 10 C15 9.34 15 8.68 15 8 C14.01 7.67 13.02 7.34 12 7 C11.236875 6.154375 10.47375 5.30875 9.6875 4.4375 C7.20434249 1.71129141 7.20434249 1.71129141 3.8125 1.625 C1.05356428 1.83776796 1.05356428 1.83776796 -1 3 C-0.67 2.01 -0.34 1.02 0 0 Z " fill="#3CCADE" transform="translate(128,62)"/>
<path d="M0 0 C3.5625 0.25 3.5625 0.25 7 1 C7.33 1.66 7.66 2.32 8 3 C5.69 3 3.38 3 1 3 C1 5.64 1 8.28 1 11 C1.99 11.33 2.98 11.66 4 12 C3.67 12.66 3.34 13.32 3 14 C0.525 13.01 0.525 13.01 -2 12 C-2.05395478 10.37536158 -2.09277195 8.75021459 -2.125 7.125 C-2.14820312 6.22007813 -2.17140625 5.31515625 -2.1953125 4.3828125 C-2 2 -2 2 0 0 Z " fill="#000C10" transform="translate(100,30)"/>
<path d="M0 0 C-0.33 2.64 -0.66 5.28 -1 8 C-2.6875 8.75 -2.6875 8.75 -5 9 C-7.75 7.1875 -7.75 7.1875 -10 5 C-10 4.34 -10 3.68 -10 3 C-3.375 0 -3.375 0 0 0 Z " fill="#41CFE1" transform="translate(143,79)"/>
<path d="M0 0 C1.134375 0.020625 2.26875 0.04125 3.4375 0.0625 C3.4375 1.0525 3.4375 2.0425 3.4375 3.0625 C1.7875 3.0625 0.1375 3.0625 -1.5625 3.0625 C-1.22022428 6.03315509 -1.22022428 6.03315509 -0.5625 9.0625 C0.0975 9.3925 0.7575 9.7225 1.4375 10.0625 C2.0625 12.125 2.0625 12.125 2.4375 14.0625 C-2.12839147 12.62063953 -2.12839147 12.62063953 -3.875 10.375 C-4.81799895 7.20309445 -4.74855753 4.34951635 -4.5625 1.0625 C-3.5625 0.0625 -3.5625 0.0625 0 0 Z " fill="#000E15" transform="translate(60.5625,65.9375)"/>
<path d="M0 0 C0.66 0.33 1.32 0.66 2 1 C2 1.99 2 2.98 2 4 C1.01 4 0.02 4 -1 4 C-1.8723412 6.99480917 -2.10829766 9.63575911 -2.0625 12.75 C-2.05347656 13.54921875 -2.04445313 14.3484375 -2.03515625 15.171875 C-2.02355469 15.77515625 -2.01195313 16.3784375 -2 17 C0.475 17.99 0.475 17.99 3 19 C3 19.66 3 20.32 3 21 C3.99 21 4.98 21 6 21 C5.67 21.66 5.34 22.32 5 23 C3.70590711 22.38003922 2.41480327 21.75383647 1.125 21.125 C0.40570313 20.77695312 -0.31359375 20.42890625 -1.0546875 20.0703125 C-3 19 -3 19 -5 17 C-5.50527263 11.037783 -4.75248003 7.29323084 -2 2 C-1.34 1.34 -0.68 0.68 0 0 Z " fill="#55C5D4" transform="translate(74,25)"/>
<path d="M0 0 C2.375 0.3125 2.375 0.3125 5 1 C7 4 7 4 7 7 C-0.38461538 7.49230769 -0.38461538 7.49230769 -3.5 5 C-3.995 4.34 -4.49 3.68 -5 3 C-4.01 3 -3.02 3 -2 3 C-1.34 2.01 -0.68 1.02 0 0 Z " fill="#55C6D3" transform="translate(33,125)"/>
<path d="M0 0 C3.44212563 0.94658455 4.54553013 2.79198907 6.5 5.6875 C3.85541621 7.00979189 1.82238699 6.78427194 -1.125 6.75 C-2.12789062 6.74097656 -3.13078125 6.73195312 -4.1640625 6.72265625 C-4.93492188 6.71105469 -5.70578125 6.69945312 -6.5 6.6875 C-3.23937153 0.89082717 -3.23937153 0.89082717 0 0 Z " fill="#54BFCE" transform="translate(62.5,130.3125)"/>
<path d="M0 0 C2.40893538 3.61340308 2.41810201 5.82346492 2.6875 10.125 C2.77386719 11.38570312 2.86023438 12.64640625 2.94921875 13.9453125 C2.96597656 14.95335938 2.98273438 15.96140625 3 17 C2 18 2 18 -0.50390625 18.09765625 C-1.51324219 18.08605469 -2.52257812 18.07445313 -3.5625 18.0625 C-4.57441406 18.05347656 -5.58632812 18.04445313 -6.62890625 18.03515625 C-7.41136719 18.02355469 -8.19382813 18.01195313 -9 18 C-9 17.67 -9 17.34 -9 17 C-7.02 17 -5.04 17 -3 17 C-3.33 15.35 -3.66 13.7 -4 12 C-2.68 12.33 -1.36 12.66 0 13 C0 8.71 0 4.42 0 0 Z " fill="#4ACADF" transform="translate(154,72)"/>
<path d="M0 0 C1.485 0.99 1.485 0.99 3 2 C5.53397269 2.09729778 7.99737253 1.93379748 10.52734375 1.77734375 C13.51728109 2.04657981 14.78794021 3.03429489 17 5 C16 8 16 8 13 10 C12.41810734 12.42521494 12.41810734 12.42521494 12.3125 15.125 C12.24675781 16.03507812 12.18101563 16.94515625 12.11328125 17.8828125 C12.07589844 18.58148438 12.03851563 19.28015625 12 20 C11.01 19.01 10.02 18.02 9 17 C9.66 17 10.32 17 11 17 C11 13.7 11 10.4 11 7 C11.99 7 12.98 7 14 7 C14 6.01 14 5.02 14 4 C9.71 4 5.42 4 1 4 C0.67 2.68 0.34 1.36 0 0 Z " fill="#5DBFD0" transform="translate(91,116)"/>
<path d="M0 0 C0.33 0 0.66 0 1 0 C1.33 2.31 1.66 4.62 2 7 C4.64 7.99 7.28 8.98 10 10 C9.34 11.65 8.68 13.3 8 15 C6.35 15 4.7 15 3 15 C0.31780178 9.63560356 -0.3152595 5.98993047 0 0 Z " fill="#3FCCE1" transform="translate(126,65)"/>
<path d="M0 0 C1.32 0 2.64 0 4 0 C4 0.66 4 1.32 4 2 C4.89138672 1.99214478 4.89138672 1.99214478 5.80078125 1.98413086 C8.5338431 1.96314409 11.2668879 1.95027155 14 1.9375 C14.93457031 1.92912109 15.86914062 1.92074219 16.83203125 1.91210938 C22.32274401 1.89291108 27.56866481 2.1865807 33 3 C33 3.33 33 3.66 33 4 C31.329375 4.2165625 31.329375 4.2165625 29.625 4.4375 C26.17857953 4.78372035 26.17857953 4.78372035 24 6 C23.67 5.34 23.34 4.68 23 4 C20.77090129 3.97285265 18.54170633 3.95353746 16.3125 3.9375 C15.07113281 3.92589844 13.82976562 3.91429687 12.55078125 3.90234375 C9.53764546 3.98521327 6.91724661 4.29160551 4 5 C2.68 3.35 1.36 1.7 0 0 Z " fill="#50C4D5" transform="translate(67,129)"/>
<path d="M0 0 C0.33 0 0.66 0 1 0 C1.31785906 3.49644963 1.39644605 5.397402 -0.5625 8.375 C-3.81682503 10.54455002 -6.17130414 10.29451507 -10 10 C-10.33 9.01 -10.66 8.02 -11 7 C-9.9275 6.95875 -8.855 6.9175 -7.75 6.875 C-3.76428211 6.36038236 -3.76428211 6.36038236 -1.625 2.9375 C-1.08875 1.968125 -0.5525 0.99875 0 0 Z " fill="#040D09" transform="translate(74,70)"/>
<path d="M0 0 C0.33 1.32 0.66 2.64 1 4 C0.34 4 -0.32 4 -1 4 C-1.33 4.99 -1.66 5.98 -2 7 C-2.66 7 -3.32 7 -4 7 C-4.33 7.99 -4.66 8.98 -5 10 C-5.66 9.67 -6.32 9.34 -7 9 C-7.36363636 3.54545455 -7.36363636 3.54545455 -5.75 1.125 C-4 0 -4 0 0 0 Z " fill="#51D3E6" transform="translate(100,66)"/>
<path d="M0 0 C3.3 0 6.6 0 10 0 C9.67 0.66 9.34 1.32 9 2 C7.7625 1.8453125 7.7625 1.8453125 6.5 1.6875 C2.82715588 2.01543251 2.2581106 2.38980762 -0.5 4.5 C-6.0934837 8.37829436 -12.48031473 7.41205876 -19 7 C-18.67 6.34 -18.34 5.68 -18 5 C-9.42857143 4.85714286 -9.42857143 4.85714286 -6 6 C-6 5.34 -6 4.68 -6 4 C-5.34 4 -4.68 4 -4 4 C-4 3.34 -4 2.68 -4 2 C-2.68 2 -1.36 2 0 2 C0 1.34 0 0.68 0 0 Z " fill="#9DEBA7" transform="translate(82,74)"/>
<path d="M0 0 C3 0 3 0 4.8125 1.625 C6 4 6 4 5.1875 7.25 C4.795625 8.1575 4.40375 9.065 4 10 C2.00045254 10.04254356 -0.00041636 10.04080783 -2 10 C-3 9 -3 9 -3.0625 6.4375 C-3.041875 5.633125 -3.02125 4.82875 -3 4 C-1.68 5.32 -0.36 6.64 1 8 C1.66 7.67 2.32 7.34 3 7 C2.505 6.21625 2.01 5.4325 1.5 4.625 C0 2 0 2 0 0 Z " fill="#4AC1D0" transform="translate(54,75)"/>
<path d="M0 0 C-1.5625 3 -1.5625 3 -4 6 C-7.75 6.375 -7.75 6.375 -11 6 C-11.33 6.66 -11.66 7.32 -12 8 C-12.0625 5.75 -12.0625 5.75 -11 3 C-3.47058824 -1.73529412 -3.47058824 -1.73529412 0 0 Z " fill="#95E4A2" transform="translate(74,71)"/>
<path d="M0 0 C1.98 0 3.96 0 6 0 C6 2.31 6 4.62 6 7 C4.125 7.625 4.125 7.625 2 8 C0 6 0 6 -0.125 2.875 C-0.08375 1.92625 -0.0425 0.9775 0 0 Z " fill="#51CCB4" transform="translate(113,70)"/>
<path d="M0 0 C2.97 0 5.94 0 9 0 C9 0.99 9 1.98 9 3 C7.02 3.33 5.04 3.66 3 4 C2.67 6.31 2.34 8.62 2 11 C1.34 11 0.68 11 0 11 C0 7.37 0 3.74 0 0 Z " fill="#48CADE" transform="translate(54,63)"/>
<path d="M0 0 C4.56278027 -0.36995516 4.56278027 -0.36995516 6.625 1.375 C7.07875 1.91125 7.5325 2.4475 8 3 C8.99 3.66 9.98 4.32 11 5 C6.71 5 2.42 5 -2 5 C-1.34 3.35 -0.68 1.7 0 0 Z " fill="#63C6D1" transform="translate(94,136)"/>
<path d="M0 0 C-0.6875 2.4375 -0.6875 2.4375 -2 5 C-4.625 5.8125 -4.625 5.8125 -7 6 C-6.9175 6.763125 -6.835 7.52625 -6.75 8.3125 C-7 11 -7 11 -9 12.8125 C-9.66 13.204375 -10.32 13.59625 -11 14 C-10.17117197 6.2360803 -10.17117197 6.2360803 -7.37890625 3.2890625 C-2.80653902 0 -2.80653902 0 0 0 Z " fill="#000C13" transform="translate(146,104)"/>
<path d="M0 0 C1.98 0 3.96 0 6 0 C5.67 4.62 5.34 9.24 5 14 C3.68 14.33 2.36 14.66 1 15 C0.34 13.68 -0.32 12.36 -1 11 C-0.01 11 0.98 11 2 11 C2 9.68 2 8.36 2 7 C2.66 7 3.32 7 4 7 C4.33 5.02 4.66 3.04 5 1 C3.35 1.33 1.7 1.66 0 2 C0 1.34 0 0.68 0 0 Z " fill="#84D9A5" transform="translate(140,76)"/>
<path d="M0 0 C0.66 0.33 1.32 0.66 2 1 C2 8.26 2 15.52 2 23 C-0.03685604 19.94471595 -0.2790347 19.07162614 -0.44921875 15.5859375 C-0.49240234 14.74289063 -0.53558594 13.89984375 -0.58007812 13.03125 C-0.61552734 12.1546875 -0.65097656 11.278125 -0.6875 10.375 C-0.73455078 9.49070312 -0.78160156 8.60640625 -0.83007812 7.6953125 C-1.05545596 2.87739946 -1.05545596 2.87739946 -1 1 C-0.67 0.67 -0.34 0.34 0 0 Z " fill="#000205" transform="translate(162,53)"/>
<path d="M0 0 C2.99220268 1.36370299 5.29026529 2.94908083 7.75 5.125 C8.67039063 5.93324219 8.67039063 5.93324219 9.609375 6.7578125 C10.06828125 7.16773438 10.5271875 7.57765625 11 8 C10.01 8.495 10.01 8.495 9 9 C8.67 9.66 8.34 10.32 8 11 C6.65499045 9.93119777 5.32428562 8.84437492 4 7.75 C3.2575 7.14671875 2.515 6.5434375 1.75 5.921875 C0 4 0 4 0 0 Z " fill="#0E1318" transform="translate(141,20)"/>
<path d="M0 0 C0.99 0 1.98 0 3 0 C2.67 0.99 2.34 1.98 2 3 C1.34 3 0.68 3 0 3 C0 3.66 0 4.32 0 5 C0.95261719 4.855625 1.90523437 4.71125 2.88671875 4.5625 C4.14097656 4.376875 5.39523438 4.19125 6.6875 4 C8.54955078 3.7215625 8.54955078 3.7215625 10.44921875 3.4375 C13.35886371 3.07899589 16.07700022 2.91057744 19 3 C12.32562227 6.57770698 5.47078902 7.27166506 -2 7 C-1.34 4.69 -0.68 2.38 0 0 Z " fill="#8BE7A2" transform="translate(138,91)"/>
<path d="M0 0 C2.97 0 5.94 0 9 0 C9.28527105 3.37887713 9.45018698 6.63173355 9 10 C6.56149148 12.18182341 5.2678851 13 2 13 C1.67 13.99 1.34 14.98 1 16 C-0.43088528 13.13822943 0.40008303 11.06624227 1 8 C3.31 8.33 5.62 8.66 8 9 C8 6.36 8 3.72 8 1 C5.36 1 2.72 1 0 1 C0 0.67 0 0.34 0 0 Z " fill="#64D3AE" transform="translate(112,68)"/>
<path d="M0 0 C6.34890787 2.93133383 11.18028121 8.03422913 16 13 C12.66666667 11.33333333 9.33333333 9.66666667 6 8 C6 7.34 6 6.68 6 6 C4.35 6.33 2.7 6.66 1 7 C0.67 4.69 0.34 2.38 0 0 Z " fill="#67D0DB" transform="translate(139,23)"/>
<path d="M0 0 C2.97 0 5.94 0 9 0 C9 0.99 9 1.98 9 3 C7.68 3 6.36 3 5 3 C5 3.66 5 4.32 5 5 C3.02 5 1.04 5 -1 5 C-0.67 3.35 -0.34 1.7 0 0 Z " fill="#32D2E8" transform="translate(78,136)"/>
<path d="M0 0 C0.66 0 1.32 0 2 0 C2.05447047 1.41623216 2.09300508 2.83308191 2.125 4.25 C2.14820312 5.03890625 2.17140625 5.8278125 2.1953125 6.640625 C1.9828378 9.20731941 1.28654105 10.7916067 0 13 C-1.32 12.67 -2.64 12.34 -4 12 C-3.34 11.01 -2.68 10.02 -2 9 C-1.33386665 6.72461677 -1.33386665 6.72461677 -0.875 4.3125 C-0.70742187 3.50425781 -0.53984375 2.69601563 -0.3671875 1.86328125 C-0.24601562 1.24839844 -0.12484375 0.63351563 0 0 Z " fill="#03100B" transform="translate(97,76)"/>
<path d="M0 0 C5.02692063 0.45699278 8.14896261 2.99241748 12 6 C11.67 6.99 11.34 7.98 11 9 C2.6849642 4.3627685 2.6849642 4.3627685 0 2 C0 1.34 0 0.68 0 0 Z " fill="#06100E" transform="translate(129,83)"/>
<path d="M0 0 C0.33 0.66 0.66 1.32 1 2 C4.02934491 2.65772428 4.02934491 2.65772428 7 3 C7.33 2.01 7.66 1.02 8 0 C9.32 0.33 10.64 0.66 12 1 C8.93882432 3.62386487 8.26826873 4 4 4 C3.67 5.32 3.34 6.64 3 8 C3 7.34 3 6.68 3 6 C1.35 6 -0.3 6 -2 6 C-1.34 4.02 -0.68 2.04 0 0 Z " fill="#3DCEE0" transform="translate(132,104)"/>
<path d="M0 0 C1.11375 0.598125 2.2275 1.19625 3.375 1.8125 C4.00148437 2.14894531 4.62796875 2.48539062 5.2734375 2.83203125 C7 4 7 4 9 7 C8.125 10.1875 8.125 10.1875 7 13 C6.67 13 6.34 13 6 13 C6 10.69 6 8.38 6 6 C3.03 5.505 3.03 5.505 0 5 C0 3.35 0 1.7 0 0 Z " fill="#4FC7CF" transform="translate(129,85)"/>
<path d="M0 0 C5.61 0 11.22 0 17 0 C16.67 1.32 16.34 2.64 16 4 C11.05 3.67 6.1 3.34 1 3 C0.67 2.01 0.34 1.02 0 0 Z " fill="#4ACFB5" transform="translate(61,80)"/>
<path d="M0 0 C6.02536998 -0.602537 6.02536998 -0.602537 8.80078125 1.11328125 C10.25599455 2.34621853 11.63479157 3.66808933 13 5 C12.67 6.32 12.34 7.64 12 9 C11.34 9 10.68 9 10 9 C9.75507812 8.38640625 9.51015625 7.7728125 9.2578125 7.140625 C7.74947715 4.57364433 6.55743212 3.96142096 3.875 2.75 C3.15054688 2.41484375 2.42609375 2.0796875 1.6796875 1.734375 C1.12539063 1.49203125 0.57109375 1.2496875 0 1 C0 0.67 0 0.34 0 0 Z " fill="#070E03" transform="translate(62,61)"/>
<path d="M0 0 C1.32 0.33 2.64 0.66 4 1 C3.01 2.485 3.01 2.485 2 4 C2.31730524 7.63939932 2.31730524 7.63939932 3 11 C2.01 11 1.02 11 0 11 C-2.1642235 7.75366476 -2.37569856 6.75698557 -2 3 C-1.34 2.01 -0.68 1.02 0 0 Z " fill="#0A120C" transform="translate(85,75)"/>
<path d="M0 0 C0.33 0 0.66 0 1 0 C1.66 5.28 2.32 10.56 3 16 C1.68 15.67 0.36 15.34 -1 15 C-1.98419339 10.94020228 -2.23183367 7.17300608 -2 3 C-1.34 2.01 -0.68 1.02 0 0 Z " fill="#03131B" transform="translate(156,60)"/>
<path d="M0 0 C0.33 0 0.66 0 1 0 C1.31563182 5.26053037 0.66590937 8.44573816 -2 13 C-2.99 13 -3.98 13 -5 13 C-5.33 12.34 -5.66 11.68 -6 11 C-5.34 11 -4.68 11 -4 11 C-3.566875 9.1128125 -3.566875 9.1128125 -3.125 7.1875 C-2.42696461 4.1460601 -1.79553415 2.69330122 0 0 Z " fill="#05181D" transform="translate(116,39)"/>
<path d="M0 0 C0.89589844 -0.01417969 1.79179688 -0.02835937 2.71484375 -0.04296875 C5.0625 0.1875 5.0625 0.1875 7.0625 2.1875 C5.0625 4.1875 5.0625 4.1875 1.125 4.5 C-1.69905426 4.44362142 -2.62932284 4.41863287 -4.9375 2.6875 C-5.2675 2.1925 -5.5975 1.6975 -5.9375 1.1875 C-4.27188601 -0.47811399 -2.27787295 0.01634055 0 0 Z " fill="#051419" transform="translate(100.9375,91.8125)"/>
<path d="M0 0 C1.98 0 3.96 0 6 0 C5.67 1.65 5.34 3.3 5 5 C2.69 5 0.38 5 -2 5 C-2 4.01 -2 3.02 -2 2 C-1.34 2 -0.68 2 0 2 C0 1.34 0 0.68 0 0 Z " fill="#4C906A" transform="translate(87,86)"/>
<path d="M0 0 C0.99 0 1.98 0 3 0 C5.1519437 3.22791555 5.20086443 4.28400809 5 8 C3.02 8.99 3.02 8.99 1 10 C1 9.34 1 8.68 1 8 C-0.32 7.67 -1.64 7.34 -3 7 C-1.35 7 0.3 7 2 7 C1.34 4.69 0.68 2.38 0 0 Z " fill="#000B0A" transform="translate(145,68)"/>
<path d="M0 0 C1.32 0.33 2.64 0.66 4 1 C3.67 2.65 3.34 4.3 3 6 C2.34 6 1.68 6 1 6 C0.67 6.99 0.34 7.98 0 9 C-1.32 9 -2.64 9 -4 9 C-4 7.35 -4 5.7 -4 4 C-3.67 4.66 -3.34 5.32 -3 6 C-1.68 4.68 -0.36 3.36 1 2 C0.67 1.34 0.34 0.68 0 0 Z " fill="#36D4F0" transform="translate(102,82)"/>
<path d="M0 0 C2.05078125 0.03255208 4.1015625 0.06510417 6.15234375 0.09765625 C6.15234375 0.75765625 6.15234375 1.41765625 6.15234375 2.09765625 C3.84234375 2.09765625 1.53234375 2.09765625 -0.84765625 2.09765625 C-0.84765625 3.08765625 -0.84765625 4.07765625 -0.84765625 5.09765625 C1.46234375 5.09765625 3.77234375 5.09765625 6.15234375 5.09765625 C6.15234375 5.42765625 6.15234375 5.75765625 6.15234375 6.09765625 C-1.59765625 6.22265625 -1.59765625 6.22265625 -3.84765625 5.09765625 C-2.72914438 0.14424653 -2.72914438 0.14424653 0 0 Z " fill="#000A13" transform="translate(43.84765625,126.90234375)"/>
<path d="M0 0 C0.33 0 0.66 0 1 0 C1.36923077 6.52307692 1.36923077 6.52307692 -0.5 8.9375 C-0.995 9.288125 -1.49 9.63875 -2 10 C-2 9.34 -2 8.68 -2 8 C-3.65 8 -5.3 8 -7 8 C-7 7.34 -7 6.68 -7 6 C-6.38125 5.9175 -5.7625 5.835 -5.125 5.75 C-2.82618538 5.19392091 -2.82618538 5.19392091 -1.8125 3 C-1.544375 2.34 -1.27625 1.68 -1 1 C-0.67 0.67 -0.34 0.34 0 0 Z " fill="#A1D982" transform="translate(95,78)"/>
<path d="M0 0 C6.36363636 -0.48951049 6.36363636 -0.48951049 9.4375 1.875 C11 4 11 4 11 6 C10.484375 5.690625 9.96875 5.38125 9.4375 5.0625 C6.33334577 3.70940713 3.34884993 3.38640576 0 3 C0 2.01 0 1.02 0 0 Z " fill="#61B0BB" transform="translate(43,129)"/>
<path d="M0 0 C1.45823212 -0.0270043 2.91660675 -0.04639787 4.375 -0.0625 C5.18710937 -0.07410156 5.99921875 -0.08570312 6.8359375 -0.09765625 C9 0 9 0 11 1 C11 2.65 11 4.3 11 6 C10.34 5.34 9.68 4.68 9 4 C6.41645782 3.83312552 6.41645782 3.83312552 4 4 C4 3.34 4 2.68 4 2 C2.68 2.33 1.36 2.66 0 3 C0 2.01 0 1.02 0 0 Z " fill="#121D22" transform="translate(28,122)"/>
<path d="M0 0 C-0.59927826 3.35595828 -1.84622436 5.37801226 -4 8 C-4.66 7.67 -5.32 7.34 -6 7 C-5.34 5.68 -4.68 4.36 -4 3 C-7.3 3 -10.6 3 -14 3 C-14 2.67 -14 2.34 -14 2 C-12.4176994 1.66179834 -10.83410625 1.32964061 -9.25 1 C-8.36828125 0.814375 -7.4865625 0.62875 -6.578125 0.4375 C-4 0 -4 0 0 0 Z " fill="#51CAC9" transform="translate(150,96)"/>
<path d="M0 0 C0.66 0.33 1.32 0.66 2 1 C1.67 5.95 1.34 10.9 1 16 C0.34 16 -0.32 16 -1 16 C-2.08899085 12.73302745 -1.95955464 10.83277746 -1.625 7.4375 C-1.53476563 6.46683594 -1.44453125 5.49617188 -1.3515625 4.49609375 C-1 2 -1 2 0 0 Z " fill="#45C8D7" transform="translate(100,72)"/>
<path d="M0 0 C0.33 1.32 0.66 2.64 1 4 C-2.20406462 6.13604308 -2.99600747 6.24208908 -6.66796875 6.1953125 C-8.00698242 6.18564453 -8.00698242 6.18564453 -9.37304688 6.17578125 C-10.76620117 6.15064453 -10.76620117 6.15064453 -12.1875 6.125 C-13.12787109 6.11597656 -14.06824219 6.10695313 -15.03710938 6.09765625 C-17.35832968 6.07409056 -19.67903644 6.04119116 -22 6 C-22 5.67 -22 5.34 -22 5 C-20.81921875 4.95101562 -19.6384375 4.90203125 -18.421875 4.8515625 C-16.86456063 4.77651121 -15.30727009 4.70096439 -13.75 4.625 C-12.97269531 4.5940625 -12.19539063 4.563125 -11.39453125 4.53125 C-5.89450381 4.3231434 -5.89450381 4.3231434 -1 2 C-0.67 1.34 -0.34 0.68 0 0 Z " fill="#58CDDC" transform="translate(115,49)"/>
<path d="M0 0 C0.99 1.485 0.99 1.485 2 3 C3.96361864 3.57748803 3.96361864 3.57748803 6.125 3.6875 C7.40375 3.790625 8.6825 3.89375 10 4 C9.01 5.485 9.01 5.485 8 7 C4.375 7.1875 4.375 7.1875 1 7 C0.67 4.69 0.34 2.38 0 0 Z " fill="#7DDDAA" transform="translate(111,84)"/>
<path d="M0 0 C0.33 0 0.66 0 1 0 C1.33 6.93 1.66 13.86 2 21 C2.66 21.33 3.32 21.66 4 22 C3.34 22 2.68 22 2 22 C1.67 22.66 1.34 23.32 1 24 C-0.25248502 21.49502996 -0.11374406 19.79146726 -0.09765625 16.9921875 C-0.09443359 16.00605469 -0.09121094 15.01992187 -0.08789062 14.00390625 C-0.07951172 12.97136719 -0.07113281 11.93882813 -0.0625 10.875 C-0.05798828 9.83472656 -0.05347656 8.79445313 -0.04882812 7.72265625 C-0.03701952 5.14838038 -0.02055075 2.57421854 0 0 Z " fill="#021218" transform="translate(161,55)"/>
<path d="M0 0 C0.33 0.99 0.66 1.98 1 3 C2.98 2.34 4.96 1.68 7 1 C5.35 3.64 3.7 6.28 2 9 C1.01 8.67 0.02 8.34 -1 8 C-0.34 8 0.32 8 1 8 C1 6.68 1 5.36 1 4 C0.01 4.33 -0.98 4.66 -2 5 C-1.34 3.35 -0.68 1.7 0 0 Z " fill="#4AC5D2" transform="translate(85,65)"/>
<path d="M0 0 C0.33 0.99 0.66 1.98 1 3 C-0.62339805 4.70884005 -2.29319053 6.37446717 -4 8 C-4.66 8 -5.32 8 -6 8 C-6 6.35 -6 4.7 -6 3 C-4.02 2.01 -2.04 1.02 0 0 Z " fill="#46CBE2" transform="translate(41,78)"/>
<path d="M0 0 C6.74841438 -0.8435518 6.74841438 -0.8435518 10.3125 1.55859375 C12.28606831 3.31013563 14.17370978 5.0959953 16 7 C15.01 7.33 14.02 7.66 13 8 C11 6 9 4 7 2 C2.85723125 1.75266863 2.85723125 1.75266863 -1 3 C-0.67 2.01 -0.34 1.02 0 0 Z " fill="#75D0D8" transform="translate(128,62)"/>
<path d="M0 0 C0.680625 0.10957031 1.36125 0.21914063 2.0625 0.33203125 C2.743125 0.42871094 3.42375 0.52539062 4.125 0.625 C6.0625 1.14453125 6.0625 1.14453125 9.0625 3.14453125 C4.4425 3.14453125 -0.1775 3.14453125 -4.9375 3.14453125 C-1.9375 0.14453125 -1.9375 0.14453125 0 0 Z " fill="#00100E" transform="translate(55.9375,56.85546875)"/>
<path d="M0 0 C2.97 0.495 2.97 0.495 6 1 C7.32 4.63 8.64 8.26 10 12 C9.01 12.495 9.01 12.495 8 13 C7.4121875 11.453125 7.4121875 11.453125 6.8125 9.875 C5.14346023 5.93510324 2.8560623 3.16482579 0 0 Z " fill="#4DBCCC" transform="translate(148,47)"/>
<path d="M0 0 C0.66 0.33 1.32 0.66 2 1 C2 1.66 2 2.32 2 3 C1.34 3 0.68 3 0 3 C0 3.66 0 4.32 0 5 C-3.08888522 7.05925681 -3.70935927 7.2390374 -7.1875 7.125 C-9.0746875 7.063125 -9.0746875 7.063125 -11 7 C-11 6.67 -11 6.34 -11 6 C-9.9275 5.7525 -8.855 5.505 -7.75 5.25 C-4.00350563 4.00116854 -2.47926118 2.97511342 0 0 Z " fill="#5BCCD9" transform="translate(111,90)"/>
<path d="M0 0 C0.33 0.99 0.66 1.98 1 3 C1.66 3.33 2.32 3.66 3 4 C2.34 6.31 1.68 8.62 1 11 C0.34 10.67 -0.32 10.34 -1 10 C-1.4140625 7.93359375 -1.4140625 7.93359375 -1.625 5.4375 C-1.69976562 4.61121094 -1.77453125 3.78492187 -1.8515625 2.93359375 C-1.90054688 2.29550781 -1.94953125 1.65742187 -2 1 C-1.34 0.67 -0.68 0.34 0 0 Z " fill="#40C6DF" transform="translate(43,66)"/>
<path d="M0 0 C1.485 0.2475 1.485 0.2475 3 0.5 C7.02732942 1.08474517 10.93474623 1.07132024 15 1 C14.67 1.66 14.34 2.32 14 3 C12.63875 2.938125 12.63875 2.938125 11.25 2.875 C8.1217954 2.99531556 6.61385994 3.3914708 4 5 C2.68 3.35 1.36 1.7 0 0 Z " fill="#56B6C6" transform="translate(51,126)"/>
<path d="M0 0 C0.66 0 1.32 0 2 0 C2 2.31 2 4.62 2 7 C2.66 7 3.32 7 4 7 C4 7.66 4 8.32 4 9 C3.34 9 2.68 9 2 9 C2 9.66 2 10.32 2 11 C0.68 11 -0.64 11 -2 11 C-2 10.34 -2 9.68 -2 9 C-1.34 9 -0.68 9 0 9 C0 6.03 0 3.06 0 0 Z " fill="#59C3C3" transform="translate(74,69)"/>
<path d="M0 0 C1.65 0 3.3 0 5 0 C4.67 1.32 4.34 2.64 4 4 C1.69 4 -0.62 4 -3 4 C-2.34 3.67 -1.68 3.34 -1 3 C-0.67 2.01 -0.34 1.02 0 0 Z " fill="#35D0E9" transform="translate(66,67)"/>
<path d="M0 0 C2.72106694 2.72106694 2.60655572 4.84776311 3.125 8.625 C3.29257813 9.81351563 3.46015625 11.00203125 3.6328125 12.2265625 C3.75398437 13.14179687 3.87515625 14.05703125 4 15 C3.01 15.495 3.01 15.495 2 16 C2 13.03 2 10.06 2 7 C1.34 7 0.68 7 0 7 C0 4.69 0 2.38 0 0 Z " fill="#54BDCC" transform="translate(151,55)"/>
<path d="M0 0 C0 1.98 0 3.96 0 6 C-1.65 5.67 -3.3 5.34 -5 5 C-5 4.01 -5 3.02 -5 2 C-2 0 -2 0 0 0 Z " fill="#3ED1EB" transform="translate(91,77)"/>
<path d="M0 0 C-0.375 2.4375 -0.375 2.4375 -1 5 C-1.99 5.495 -1.99 5.495 -3 6 C-3.66 5.67 -4.32 5.34 -5 5 C-5 4.34 -5 3.68 -5 3 C-5.66 2.34 -6.32 1.68 -7 1 C-4.50935112 0.31292445 -2.62113708 0 0 0 Z " fill="#2ED4E2" transform="translate(143,79)"/>
<path d="M0 0 C2.99324263 1.0975223 3.84610901 1.67682892 5.25 4.625 C5.4975 5.40875 5.745 6.1925 6 7 C5.01 7.33 4.02 7.66 3 8 C0 3.375 0 3.375 0 0 Z " fill="#040F0E" transform="translate(124,75)"/>
<path d="M0 0 C5.78461538 4.43076923 5.78461538 4.43076923 6.875 7.3125 C6.936875 8.1478125 6.936875 8.1478125 7 9 C2.36285097 7.53563715 2.36285097 7.53563715 0.6875 5.0625 C0 3 0 3 0 0 Z " fill="#07140F" transform="translate(56,71)"/>
<path d="M0 0 C2.125 -0.375 2.125 -0.375 5 0 C7.23913252 1.79340357 9.12454539 3.83452663 11 6 C10.67 6.66 10.34 7.32 10 8 C8.824375 7.0409375 8.824375 7.0409375 7.625 6.0625 C5.20460719 4.01857687 5.20460719 4.01857687 3 3 C3 2.34 3 1.68 3 1 C2.01 0.67 1.02 0.34 0 0 Z " fill="#6FD1DC" transform="translate(140,48)"/>
<path d="M0 0 C1.60031344 3.20062687 0.03173691 5.72271806 -1 9 C-2.98 9.33 -4.96 9.66 -7 10 C-5.625 8 -5.625 8 -4 6 C-3.34 6 -2.68 6 -2 6 C-1.34 4.02 -0.68 2.04 0 0 Z " fill="#6BC0CC" transform="translate(36,113)"/>
<path d="M0 0 C0.763125 0.20625 1.52625 0.4125 2.3125 0.625 C1.9825 1.615 1.6525 2.605 1.3125 3.625 C-0.9975 3.625 -3.3075 3.625 -5.6875 3.625 C-5.6875 2.965 -5.6875 2.305 -5.6875 1.625 C-2.6875 -0.375 -2.6875 -0.375 0 0 Z " fill="#49CECA" transform="translate(143.6875,92.375)"/>
<path d="M0 0 C2.31 1.65 4.62 3.3 7 5 C5.02 5.99 5.02 5.99 3 7 C1.68 5.35 0.36 3.7 -1 2 C-0.67 1.34 -0.34 0.68 0 0 Z " fill="#0B151A" transform="translate(140,62)"/>
<path d="M0 0 C3.68754757 0.49831724 5.60490662 1.10067643 8 4 C5.125 4.625 5.125 4.625 2 5 C1.34 4.34 0.68 3.68 0 3 C0 2.01 0 1.02 0 0 Z " fill="#4EBECD" transform="translate(63,63)"/>
<path d="M0 0 C0.66 0 1.32 0 2 0 C2 1.98 2 3.96 2 6 C1.01 6 0.02 6 -1 6 C-1 6.66 -1 7.32 -1 8 C-1.66 8 -2.32 8 -3 8 C-1.125 1.125 -1.125 1.125 0 0 Z " fill="#5BD1E1" transform="translate(38,30)"/>
<path d="M0 0 C0.99 0.33 1.98 0.66 3 1 C2.21625 1.86625 1.4325 2.7325 0.625 3.625 C-1.83386728 6.55056447 -3.02450104 9.27536762 -4 13 C-4.6875 11.3125 -4.6875 11.3125 -5 9 C-3.6875 6.5 -3.6875 6.5 -2 4 C-1.31903578 2.67391178 -0.64669414 1.34313399 0 0 Z " fill="#60C0CE" transform="translate(71,20)"/>
<path d="M0 0 C0 3.25811062 -0.5522078 5.10441559 -2 8 C-2.99 8.33 -3.98 8.66 -5 9 C-5.33 7.68 -5.66 6.36 -6 5 C-5.38125 4.9175 -4.7625 4.835 -4.125 4.75 C-1.81562433 4.18741541 -1.81562433 4.18741541 -0.75 1.9375 C-0.5025 1.298125 -0.255 0.65875 0 0 Z " fill="#041315" transform="translate(36,111)"/>
<path d="M0 0 C0.33 0.66 0.66 1.32 1 2 C0.06421005 4.35981813 -0.93347808 6.69631264 -2 9 C-3.36741555 6.74778616 -4.04066478 5.47442242 -3.8125 2.8125 C-3.544375 2.214375 -3.27625 1.61625 -3 1 C-2.01 0.67 -1.02 0.34 0 0 Z " fill="#42C2CE" transform="translate(41,105)"/>
<path d="M0 0 C-0.66 1.32 -1.32 2.64 -2 4 C-3.65 4 -5.3 4 -7 4 C-7 3.01 -7 2.02 -7 1 C-4.50935112 0.31292445 -2.62113708 0 0 0 Z " fill="#58C5C7" transform="translate(72,73)"/>
<path d="M0 0 C1.32 0 2.64 0 4 0 C4.33 1.32 4.66 2.64 5 4 C4.34 4 3.68 4 3 4 C2.67 4.99 2.34 5.98 2 7 C0.5393715 4.35261084 0 3.10551666 0 0 Z " fill="#50CDCE" transform="translate(96,66)"/>
<path d="M0 0 C2.3125 -0.25 2.3125 -0.25 5 0 C6.8125 2 6.8125 2 8 4 C5.69 3.67 3.38 3.34 1 3 C0.67 2.01 0.34 1.02 0 0 Z " fill="#061006" transform="translate(102,65)"/>
<path d="M0 0 C3.375 0.6875 3.375 0.6875 7 2 C8.4375 4.625 8.4375 4.625 9 7 C5.18315774 5.44499019 2.80804268 2.96404505 0 0 Z " fill="#50BAC6" transform="translate(138,60)"/>
<path d="M0 0 C1.65 0 3.3 0 5 0 C5.33 0.99 5.66 1.98 6 3 C4.02 3.33 2.04 3.66 0 4 C0 2.68 0 1.36 0 0 Z " fill="#2DD4E9" transform="translate(103,35)"/>
<path d="M0 0 C0.33 0 0.66 0 1 0 C1.25532751 3.06393013 1.21861333 4.63233212 -0.375 7.3125 C-1.179375 8.1478125 -1.179375 8.1478125 -2 9 C-2.66 9 -3.32 9 -4 9 C-3.35499066 5.51694958 -1.95865224 2.93797836 0 0 Z " fill="#050504" transform="translate(36,106)"/>
<path d="M0 0 C0.33 0 0.66 0 1 0 C1.125 2.875 1.125 2.875 1 6 C0.34 6.66 -0.32 7.32 -1 8 C-1.99 7.34 -2.98 6.68 -4 6 C-2.69593116 3.98079663 -1.36176581 1.98075027 0 0 Z " fill="#031711" transform="translate(74,70)"/>
<path d="M0 0 C2.97 0 5.94 0 9 0 C9 0.66 9 1.32 9 2 C4.545 2.495 4.545 2.495 0 3 C0 2.01 0 1.02 0 0 Z " fill="#2FD2EC" transform="translate(54,63)"/>
<path d="M0 0 C0.99 0 1.98 0 3 0 C3 1.98 3 3.96 3 6 C2.01 6 1.02 6 0 6 C0 4.02 0 2.04 0 0 Z " fill="#32D1EC" transform="translate(114,71)"/>
<path d="M0 0 C0.33 0.66 0.66 1.32 1 2 C-0.32 2.33 -1.64 2.66 -3 3 C-3 4.32 -3 5.64 -3 7 C-3.66 7 -4.32 7 -5 7 C-5 5.02 -5 3.04 -5 1 C-3.35 0.67 -1.7 0.34 0 0 Z " fill="#55BBCF" transform="translate(64,68)"/>
<path d="M0 0 C1.32 0 2.64 0 4 0 C4.625 1.8125 4.625 1.8125 5 4 C4.01 5.485 4.01 5.485 3 7 C2.01 4.69 1.02 2.38 0 0 Z " fill="#0A0902" transform="translate(32,61)"/>
<path d="M0 0 C3 1.6875 3 1.6875 6 4 C6.375 6.75 6.375 6.75 6 9 C5.401875 8.236875 4.80375 7.47375 4.1875 6.6875 C2.53040668 4.6516425 0.89702326 2.8021721 -1 1 C-0.67 0.67 -0.34 0.34 0 0 Z " fill="#AADA83" transform="translate(70,60)"/>
<path d="M0 0 C2.31 0.66 4.62 1.32 7 2 C7 2.66 7 3.32 7 4 C7.99 4 8.98 4 10 4 C9.67 4.66 9.34 5.32 9 6 C7.68397477 5.38245741 6.37226444 4.75571258 5.0625 4.125 C4.33160156 3.77695312 3.60070312 3.42890625 2.84765625 3.0703125 C1 2 1 2 0 0 Z " fill="#58B8C6" transform="translate(70,42)"/>
<path d="M0 0 C2.475 0.495 2.475 0.495 5 1 C5 1.66 5 2.32 5 3 C5.66 3.33 6.32 3.66 7 4 C5.1875 4.625 5.1875 4.625 3 5 C2.01 4.34 1.02 3.68 0 3 C0 2.01 0 1.02 0 0 Z " fill="#07090B" transform="translate(150,29)"/>
<path d="M0 0 C0 3 0 3 -2.5 5.6875 C-3.325 6.450625 -4.15 7.21375 -5 8 C-5.66 7.67 -6.32 7.34 -7 7 C-3.375 1.125 -3.375 1.125 0 0 Z " fill="#65CFDB" transform="translate(46,21)"/>
<path d="M0 0 C0.99 0 1.98 0 3 0 C3.33 2.31 3.66 4.62 4 7 C1 5 1 5 0.3125 2.375 C0.209375 1.59125 0.10625 0.8075 0 0 Z " fill="#68C1D3" transform="translate(54,75)"/>
<path d="M0 0 C0.66 0.33 1.32 0.66 2 1 C2 3.64 2 6.28 2 9 C-0.57781906 6.42218094 -0.62129616 4.5598161 -1 1 C-0.67 0.67 -0.34 0.34 0 0 Z " fill="#00060B" transform="translate(154,56)"/>
<path d="M0 0 C0.99 0.33 1.98 0.66 3 1 C2.34 2.32 1.68 3.64 1 5 C-0.32 5 -1.64 5 -3 5 C-2.67 4.01 -2.34 3.02 -2 2 C-1.34 2 -0.68 2 0 2 C0 1.34 0 0.68 0 0 Z " fill="#23D7E9" transform="translate(84,17)"/>
<path d="M0 0 C1.32 0 2.64 0 4 0 C4 0.99 4 1.98 4 3 C5.65 3 7.3 3 9 3 C8.01 3.66 7.02 4.32 6 5 C2.83884224 3.63016497 2.0072908 3.0109362 0 0 Z " fill="#69C0CD" transform="translate(67,129)"/>
<path d="M0 0 C0.66 0.33 1.32 0.66 2 1 C1.01 3.97 0.02 6.94 -1 10 C-1.66 9.67 -2.32 9.34 -3 9 C-2.01 6.03 -1.02 3.06 0 0 Z " fill="#59C4D2" transform="translate(136,108)"/>
<path d="M0 0 C-0.33 1.98 -0.66 3.96 -1 6 C-1.33 4.68 -1.66 3.36 -2 2 C-3.65 2.33 -5.3 2.66 -7 3 C-5.40442685 -0.19114631 -3.35905282 0 0 0 Z " fill="#43AF91" transform="translate(145,77)"/>
<path d="M0 0 C0.99 0 1.98 0 3 0 C2.67 4.29 2.34 8.58 2 13 C1.67 13 1.34 13 1 13 C0.67 8.71 0.34 4.42 0 0 Z " fill="#010905" transform="translate(50,61)"/>
<path d="M0 0 C5.75 1.75 5.75 1.75 8 4 C6.02 4 4.04 4 2 4 C1.34 2.68 0.68 1.36 0 0 Z " fill="#37CFE6" transform="translate(124,17)"/>
</svg>
