<?xml version="1.0" encoding="UTF-8"?>
<svg version="1.1" xmlns="http://www.w3.org/2000/svg" width="64" height="64">
<path d="M0 0 C6.64445354 3.91824088 12.03261191 8.6982757 14.76171875 16.04296875 C16.87021916 24.42111607 15.01974044 31.71138934 11.3515625 39.38671875 C7.68494101 45.21017641 2.92450251 48.53036115 -3.6484375 50.38671875 C-13.16615286 51.47539643 -22.02093656 51.14304574 -30.7109375 46.88671875 C-35.49665251 42.81376981 -37.68626787 37.27322764 -39.6484375 31.38671875 C-40.326371 21.00912135 -40.038249 14.31020191 -33.3359375 6.19921875 C-24.38537794 -3.56502804 -12.17191124 -5.64982851 0 0 Z M-25.6484375 16.38671875 C-28.13034301 20.56083256 -27.56279081 23.72351687 -26.6484375 28.38671875 C-23.71058453 28.06029064 -21.82967491 27.50427815 -19.3359375 25.88671875 C-16.85724228 22.21457769 -17.14033919 18.70138967 -17.6484375 14.38671875 C-17.9784375 13.72671875 -18.3084375 13.06671875 -18.6484375 12.38671875 C-21.88531611 12.38671875 -23.33900377 14.25049255 -25.6484375 16.38671875 Z M-5.6484375 12.38671875 C-7.38236215 15.85456805 -7.26143298 19.60440619 -6.6484375 23.38671875 C-4.33587746 26.45396332 -4.33587746 26.45396332 -1.6484375 28.38671875 C-0.6584375 28.05671875 0.3315625 27.72671875 1.3515625 27.38671875 C2.80304153 24.4837607 2.72395275 22.61410096 2.3515625 19.38671875 C0.29852626 15.95442264 -1.77709474 13.67716634 -5.6484375 12.38671875 Z " fill="#95E2EA" transform="translate(44.6484375,6.61328125)"/>
<path d="M0 0 C6.64445354 3.91824088 12.03261191 8.6982757 14.76171875 16.04296875 C16.87021916 24.42111607 15.01974044 31.71138934 11.3515625 39.38671875 C7.68494101 45.21017641 2.92450251 48.53036115 -3.6484375 50.38671875 C-13.16615286 51.47539643 -22.02093656 51.14304574 -30.7109375 46.88671875 C-35.49665251 42.81376981 -37.68626787 37.27322764 -39.6484375 31.38671875 C-40.326371 21.00912135 -40.038249 14.31020191 -33.3359375 6.19921875 C-24.38537794 -3.56502804 -12.17191124 -5.64982851 0 0 Z M-32.23828125 12.38671875 C-36.32034625 18.1762403 -36.38165834 23.42112079 -35.6484375 30.38671875 C-34.70187871 33.36789103 -33.38356126 35.79608258 -31.6484375 38.38671875 C-31.0709375 39.31484375 -30.4934375 40.24296875 -29.8984375 41.19921875 C-23.73571477 47.19075474 -16.3652483 46.73486219 -8.234375 46.78515625 C-2.91111641 46.19368307 1.06365102 44.29767318 4.5390625 40.19921875 C9.00608714 34.60664459 10.99167341 28.7915911 10.6953125 21.6171875 C9.70540367 15.19402907 6.31355678 10.5823079 1.265625 6.640625 C-10.71910833 -1.21059826 -23.3404908 1.61681636 -32.23828125 12.38671875 Z " fill="#B5B4B4" transform="translate(44.6484375,6.61328125)"/>
<path d="M0 0 C3.90757041 3.80473961 6.12824294 7.48713164 6.609375 12.99609375 C6.31787601 20.50219279 3.60471687 25.08278313 -1.625 30.3125 C-3.95797433 30.35342937 -6.29205225 30.35491723 -8.625 30.3125 C-8.295 28.9925 -7.965 27.6725 -7.625 26.3125 C-7.625 27.3025 -7.625 28.2925 -7.625 29.3125 C-6.965 28.6525 -6.305 27.9925 -5.625 27.3125 C-6.285 26.3225 -6.945 25.3325 -7.625 24.3125 C-8.285 24.6425 -8.945 24.9725 -9.625 25.3125 C-9.625 23.6625 -9.625 22.0125 -9.625 20.3125 C-6.46384224 21.68233503 -5.6322908 22.3015638 -3.625 25.3125 C-2.635 25.6425 -1.645 25.9725 -0.625 26.3125 C-1.72781127 25.04049029 -2.83230769 23.76994147 -3.9375 22.5 C-4.85982422 21.43845703 -4.85982422 21.43845703 -5.80078125 20.35546875 C-7.5110248 18.35086138 -7.5110248 18.35086138 -9.20703125 16.94921875 C-10.98631297 14.89544728 -11.04139185 13.77024972 -11.13671875 11.08203125 C-11.18989258 9.87836914 -11.18989258 9.87836914 -11.24414062 8.65039062 C-11.26669922 7.81701172 -11.28925781 6.98363281 -11.3125 6.125 C-11.36374023 4.8575293 -11.36374023 4.8575293 -11.41601562 3.56445312 C-11.49841471 1.48093351 -11.56338645 -0.60326216 -11.625 -2.6875 C-12.615 -2.6875 -13.605 -2.6875 -14.625 -2.6875 C-14.46902344 -2.00816406 -14.31304688 -1.32882813 -14.15234375 -0.62890625 C-13.14269289 5.00270186 -12.88726832 10.63335798 -13.625 16.3125 C-16.3125 18.875 -16.3125 18.875 -19.625 20.3125 C-21.32828319 21.9417274 -23.00661281 23.59891357 -24.625 25.3125 C-20.50359195 25.77227011 -20.50359195 25.77227011 -18 22.8125 C-16.824375 21.575 -16.824375 21.575 -15.625 20.3125 C-14.965 20.3125 -14.305 20.3125 -13.625 20.3125 C-13.625 23.9425 -13.625 27.5725 -13.625 31.3125 C-15.605 31.3125 -17.585 31.3125 -19.625 31.3125 C-17.645 30.8175 -17.645 30.8175 -15.625 30.3125 C-15.955 28.3325 -16.285 26.3525 -16.625 24.3125 C-18.8727975 26.36483685 -19.6272242 27.31917261 -20.625 30.3125 C-23.99905722 30.06256984 -24.8472071 29.07971161 -27.25 26.5625 C-30.93783817 21.76263678 -32.09167104 17.61656456 -31.94140625 11.5859375 C-31.11087185 5.61839406 -27.14393526 1.07827939 -22.625 -2.6875 C-14.09075101 -6.67014953 -7.61865004 -4.8977036 0 0 Z M-25.625 5.3125 C-28.10690551 9.48661381 -27.53935331 12.64929812 -26.625 17.3125 C-23.68714703 16.98607189 -21.80623741 16.4300594 -19.3125 14.8125 C-16.83380478 11.14035894 -17.11690169 7.62717092 -17.625 3.3125 C-17.955 2.6525 -18.285 1.9925 -18.625 1.3125 C-21.86187861 1.3125 -23.31556627 3.1762738 -25.625 5.3125 Z M-5.625 1.3125 C-7.35892465 4.7803493 -7.23799548 8.53018744 -6.625 12.3125 C-4.31243996 15.37974457 -4.31243996 15.37974457 -1.625 17.3125 C-0.635 16.9825 0.355 16.6525 1.375 16.3125 C2.82647903 13.40954195 2.74739025 11.53988221 2.375 8.3125 C0.32196376 4.88020389 -1.75365724 2.60294759 -5.625 1.3125 Z " fill="#162B2D" transform="translate(44.625,17.6875)"/>
<path d="M0 0 C5.60239183 3.93359426 10.68916626 8.73979036 12.75 15.4375 C12.8325 16.283125 12.915 17.12875 13 18 C13.1546875 19.546875 13.1546875 19.546875 13.3125 21.125 C12.75748292 28.0072118 10.95087809 34.74636348 5.6875 39.5 C-1.96688014 45.07561164 -8.60098349 46.00345372 -18 45 C-25.04249086 43.22746509 -30.31006464 40.39444886 -34.18359375 34.06640625 C-37.98019588 26.69653152 -38.0684571 19.19936454 -36 11.25 C-33.77597389 5.42367809 -29.37076422 1.8645369 -24.015625 -1.09765625 C-16.12407162 -4.49102421 -7.61681631 -3.83541814 0 0 Z M-31.58984375 9 C-35.67190875 14.78952155 -35.73322084 20.03440204 -35 27 C-34.05344121 29.98117228 -32.73512376 32.40936383 -31 35 C-30.4225 35.928125 -29.845 36.85625 -29.25 37.8125 C-23.08727727 43.80403599 -15.7168108 43.34814344 -7.5859375 43.3984375 C-2.26267891 42.80696432 1.71208852 40.91095443 5.1875 36.8125 C9.65452464 31.21992584 11.64011091 25.40487235 11.34375 18.23046875 C10.35384117 11.80731032 6.96199428 7.19558915 1.9140625 3.25390625 C-10.07067083 -4.59731701 -22.6920533 -1.76990239 -31.58984375 9 Z " fill="#152D30" transform="translate(44,10)"/>
<path d="M0 0 C6.4184728 -0.35512042 12.39729056 -0.50314338 18 3 C23.44046954 7.95758763 26.94536833 12.74055103 27.375 20.1875 C27.19138312 27.07313313 24.80737726 33.46086679 20.0625 38.5 C14.39121861 43.12961746 14.39121861 43.12961746 9.91015625 42.88671875 C7.93172314 42.65375738 5.96408972 42.33289656 4 42 C4 41.34 4 40.68 4 40 C4.72445312 39.87625 5.44890625 39.7525 6.1953125 39.625 C11.25829079 38.54489797 15.21923728 37.57355933 18.625 33.5 C21.70542947 28.62862316 22.48179438 23.69846453 22 18 C20.6108991 12.67811994 17.74190414 8.99995333 13.1484375 6.03125 C8.97184947 4.02648774 4.50533391 3.00209054 0 2 C0 1.34 0 0.68 0 0 Z " fill="#91D9E3" transform="translate(28,10)"/>
<path d="M0 0 C3.4243687 1.57335859 4.87173838 2.7832821 6.8125 6.0625 C9.62874869 13.78290588 8.20774306 21.09386654 5.18359375 28.5234375 C2.27162648 34.61646473 -1.73249129 38.25709562 -7.7734375 41.0859375 C-11.99276338 42.2812429 -15.94359025 42.47274651 -20.3125 42.5 C-21.08940186 42.50628418 -21.86630371 42.51256836 -22.66674805 42.51904297 C-27.26055933 42.41677072 -30.20722284 41.84647547 -34 39 C-31.86708396 38.31441984 -30.45106591 37.88193577 -28.25390625 38.45703125 C-20.7886061 40.25543111 -12.6266621 39.92190206 -6 36 C0.30720771 32.04253634 2.1955325 27.11534343 4 20 C4.62730912 13.72690883 3.51547984 8.27321976 0 3 C0 2.01 0 1.02 0 0 Z " fill="#C1C3C2" transform="translate(52,15)"/>
<path d="M0 0 C0.99 0 1.98 0 3 0 C3.03996094 1.19496094 3.07992187 2.38992187 3.12109375 3.62109375 C3.59147399 14.62980381 3.59147399 14.62980381 9.625 23.5 C10.44226563 24.1496875 11.25953125 24.799375 12.1015625 25.46875 C12.72804688 25.9740625 13.35453125 26.479375 14 27 C14 27.66 14 28.32 14 29 C9.75177626 28.52797514 7.80010291 26.03344482 5 23 C5 26.3 5 29.6 5 33 C4.01 33 3.02 33 2 33 C2 29.7 2 26.4 2 23 C1.21625 23.495 0.4325 23.99 -0.375 24.5 C-3 26 -3 26 -5 26 C-5.66 27.32 -6.32 28.64 -7 30 C-8.32 29.34 -9.64 28.68 -11 28 C-7.83525695 24.74483572 -4.67247209 21.67991207 -1 19 C-0.34 19 0.32 19 1 19 C0.67 12.73 0.34 6.46 0 0 Z " fill="#98EEF4" transform="translate(30,15)"/>
<path d="M0 0 C0.33 0 0.66 0 1 0 C1.08636719 1.09699219 1.17273437 2.19398437 1.26171875 3.32421875 C1.40248072 4.77875906 1.54447295 6.23318067 1.6875 7.6875 C1.74099609 8.40873047 1.79449219 9.12996094 1.84960938 9.87304688 C2.40464777 15.15797765 3.7777045 17.49667123 8 21 C8.556875 21.598125 9.11375 22.19625 9.6875 22.8125 C10.95218271 24.22363777 10.95218271 24.22363777 13 24 C15.24018522 19.51962957 14.34808477 13.62233361 13 8.9375 C12.67 7.968125 12.34 6.99875 12 6 C14.33049191 7.72907464 15.77545375 9.1866087 16.55859375 12.0234375 C17.5100468 18.90678921 16.54048414 24.29641956 12.3125 29.9375 C9.72011208 32.80512911 9.22431076 32.97467459 5.125 33.4375 C4.09375 33.293125 3.0625 33.14875 2 33 C2.33 31.68 2.66 30.36 3 29 C3 29.99 3 30.98 3 32 C3.66 31.34 4.32 30.68 5 30 C4.34 29.01 3.68 28.02 3 27 C2.34 27.33 1.68 27.66 1 28 C1 26.35 1 24.7 1 23 C4.16115776 24.36983503 4.9927092 24.9890638 7 28 C7.99 28.33 8.98 28.66 10 29 C8.89718873 27.72799029 7.79269231 26.45744147 6.6875 25.1875 C6.07261719 24.47980469 5.45773438 23.77210937 4.82421875 23.04296875 C3.11408744 21.03559826 3.11408744 21.03559826 1.40429688 19.63671875 C-0.3872636 17.54864131 -0.3508088 16.48801368 -0.29296875 13.76953125 C-0.28330078 12.96708984 -0.27363281 12.16464844 -0.26367188 11.33789062 C-0.23853516 10.50451172 -0.21339844 9.67113281 -0.1875 8.8125 C-0.17396484 7.96751953 -0.16042969 7.12253906 -0.14648438 6.25195312 C-0.11115799 4.16769616 -0.05735139 2.08376723 0 0 Z " fill="#19383C" transform="translate(34,15)"/>
<path d="M0 0 C1.2174259 15.03182813 1.2174259 15.03182813 -1.640625 19.65234375 C-4.89091192 22.49935433 -7.74793225 24.15724783 -12 25 C-14.98881556 20.51677666 -14.71270322 16.25343093 -14 11 C-11.59591876 5.35608396 -6.36864979 0 0 0 Z M-10 8 C-12.48190551 12.17411381 -11.91435331 15.33679812 -11 20 C-8.06214703 19.67357189 -6.18123741 19.1175594 -3.6875 17.5 C-1.20880478 13.82785894 -1.49190169 10.31467092 -2 6 C-2.33 5.34 -2.66 4.68 -3 4 C-6.23687861 4 -7.69056627 5.8637738 -10 8 Z " fill="#C2C3C1" transform="translate(29,15)"/>
<path d="M0 0 C3.930752 1.30799161 6.08827685 2.77523156 8.75 5.9375 C9.34296875 6.62714844 9.9359375 7.31679688 10.546875 8.02734375 C12.82098097 11.11450374 13.15645173 13.77420771 13.1875 17.5 C13.20167969 18.2734375 13.21585938 19.046875 13.23046875 19.84375 C13 22 13 22 11 25 C6.33402219 22.92623208 2.83888438 20.25832657 0 16 C-0.14245897 13.23344676 -0.18769445 10.57346694 -0.125 7.8125 C-0.11597656 7.06291016 -0.10695312 6.31332031 -0.09765625 5.54101562 C-0.07412578 3.69387346 -0.03825561 1.84689588 0 0 Z M3 4 C1.26607535 7.4678493 1.38700452 11.21768744 2 15 C4.31256004 18.06724457 4.31256004 18.06724457 7 20 C7.99 19.67 8.98 19.34 10 19 C11.45147903 16.09704195 11.37239025 14.22738221 11 11 C8.94696376 7.56770389 6.87134276 5.29044759 3 4 Z " fill="#C8CACB" transform="translate(36,15)"/>
<path d="M0 0 C6.41627339 -0.35499873 12.40045975 -0.50549731 18 3 C21.82056896 6.48737981 25.07795598 9.78286483 26 15 C25.01 15 24.02 15 23 15 C22.67 15.99 22.34 16.98 22 18 C21.79246094 17.48050781 21.58492187 16.96101563 21.37109375 16.42578125 C18.96556027 10.9806197 16.42385882 7.60345223 11 5 C7.374631 3.78828637 3.73013924 2.82966931 0 2 C0 1.34 0 0.68 0 0 Z " fill="#97E7ED" transform="translate(28,10)"/>
<path d="M0 0 C4.70966633 1.75458157 7.61952477 4.32124754 11 8 C6.71464033 8 5.15057301 5.7483722 2 3 C1.34 2.67 0.68 2.34 0 2 C0.061875 2.94875 0.12375 3.8975 0.1875 4.875 C0.0946875 6.421875 0.0946875 6.421875 0 8 C-0.99 8.66 -1.98 9.32 -3 10 C-3 7.36 -3 4.72 -3 2 C-3.99 2 -4.98 2 -6 2 C-5.84402344 2.67933594 -5.68804687 3.35867187 -5.52734375 4.05859375 C-4.51729613 9.69241491 -4.26976431 15.31807088 -5 21 C-7.625 23.625 -7.625 23.625 -11 25 C-12.14133393 25.72490128 -13.26733149 26.47463204 -14.375 27.25 C-15.24125 27.8275 -16.1075 28.405 -17 29 C-17.66 28.34 -18.32 27.68 -19 27 C-18.37351562 26.59007813 -17.74703125 26.18015625 -17.1015625 25.7578125 C-16.28429687 25.21898438 -15.46703125 24.68015625 -14.625 24.125 C-13.81289063 23.59132813 -13.00078125 23.05765625 -12.1640625 22.5078125 C-9.92405904 21.04134945 -9.92405904 21.04134945 -8 19 C-7.69324768 16.10032243 -7.48826629 13.28216822 -7.375 10.375 C-7.33632813 9.57320312 -7.29765625 8.77140625 -7.2578125 7.9453125 C-7.16346069 5.96392444 -7.08063785 3.98199355 -7 2 C-7.99 1.67 -8.98 1.34 -10 1 C-6.79855229 -0.60072386 -3.48208592 -0.35797145 0 0 Z " fill="#1A3234" transform="translate(36,13)"/>
<path d="M0 0 C0.33 0 0.66 0 1 0 C1 3.3 1 6.6 1 10 C1.99 10 2.98 10 4 10 C4.33 7.69 4.66 5.38 5 3 C6.32 4.32 7.64 5.64 9 7 C8.67 7.66 8.34 8.32 8 9 C7.01 9.33 6.02 9.66 5 10 C5.99 10.33 6.98 10.66 8 11 C5.69 11.33 3.38 11.66 1 12 C1 12.66 1 13.32 1 14 C1.99 14.33 2.98 14.66 4 15 C2.41705218 15.05437607 0.83355744 15.09296271 -0.75 15.125 C-1.63171875 15.14820313 -2.5134375 15.17140625 -3.421875 15.1953125 C-6.1135858 14.99139502 -7.69904974 14.36551721 -10 13 C-9.01 13 -8.02 13 -7 13 C-7.33 12.01 -7.66 11.02 -8 10 C-6.33819262 6.59329487 -5.19665902 5.13110601 -2 3 C-2 5.31 -2 7.62 -2 10 C-1.34 10.33 -0.68 10.66 0 11 C0 7.37 0 3.74 0 0 Z " fill="#84B7BC" transform="translate(31,38)"/>
<path d="M0 0 C0 4.00830001 -1.45882059 6.16741629 -3.625 9.5 C-5.88064515 15.2416422 -6.08662918 21.44216575 -4.2734375 27.37890625 C-1.71917749 32.85083726 1.58452139 37.04292357 7.3125 39.3125 C8.199375 39.539375 9.08625 39.76625 10 40 C9.67 40.66 9.34 41.32 9 42 C3.43415144 40.40975756 -1.24153308 38.38649082 -4.75 33.625 C-8.56373533 25.6161558 -9.33583586 17.7129442 -6.8125 9.125 C-5.30057197 5.07623119 -3.29119777 2.75749002 0 0 Z " fill="#243B38" transform="translate(15,12)"/>
<path d="M0 0 C0.33 0 0.66 0 1 0 C1.09796875 0.83402344 1.1959375 1.66804688 1.296875 2.52734375 C2.70468086 13.12229647 4.59906205 21.0214927 13.25 27.75 C13.8275 28.1625 14.405 28.575 15 29 C14.67 29.33 14.34 29.66 14 30 C14.99 30.66 15.98 31.32 17 32 C12.39906685 31.45871375 9.52351179 30.00966632 6 27 C1.91419837 20.31812602 -0.13450776 14.66134593 -0.0625 6.8125 C-0.05347656 5.54019531 -0.04445313 4.26789062 -0.03515625 2.95703125 C-0.02355469 1.98121094 -0.01195312 1.00539063 0 0 Z " fill="#AAACAB" transform="translate(5,24)"/>
<path d="M0 0 C0.66 0.66 1.32 1.32 2 2 C1.01 2.495 1.01 2.495 0 3 C-1.175625 2.525625 -2.35125 2.05125 -3.5625 1.5625 C-10.02546841 -0.95735772 -15.44288556 -0.91301157 -21.8125 1.875 C-23.21709975 2.56578676 -24.61348166 3.27360225 -26 4 C-27.33287261 4.66758732 -28.66606769 5.33453264 -30 6 C-27.45933907 1.23626075 -25.39836442 -0.91495329 -20.203125 -2.53125 C-13.08673595 -4.04537533 -6.59585138 -3.03994842 0 0 Z " fill="#1D3836" transform="translate(44,10)"/>
<path d="M0 0 C0.66 0 1.32 0 2 0 C1.64426042 2.63247289 1.34776706 4.53051446 -0.25 6.6875 C-3.95295889 9.46471917 -6.76053445 10.18796394 -11.3125 9.625 C-12.529375 9.41875 -13.74625 9.2125 -15 9 C-15 8.34 -15 7.68 -15 7 C-14.25234375 6.82984375 -13.5046875 6.6596875 -12.734375 6.484375 C-11.74953125 6.24203125 -10.7646875 5.9996875 -9.75 5.75 C-8.77546875 5.51796875 -7.8009375 5.2859375 -6.796875 5.046875 C-3.67524521 3.87844374 -2.24633338 2.40536583 0 0 Z " fill="#90E3EB" transform="translate(47,43)"/>
<path d="M0 0 C0.66 0.33 1.32 0.66 2 1 C1.505 1.845625 1.01 2.69125 0.5 3.5625 C-1.14747708 7.33796832 -1.24430947 9.92817548 -1 14 C0.98 14 2.96 14 5 14 C3.35 15.65 1.7 17.3 0 19 C-0.99 18.67 -1.98 18.34 -3 18 C-4.96510837 14.06978326 -4.47530928 9.28395638 -4 5 C-2 1.8125 -2 1.8125 0 0 Z " fill="#CECECC" transform="translate(19,21)"/>
<path d="M0 0 C7.17659511 1.05054214 13.24834617 5.62856523 18 11 C17.67 11.66 17.34 12.32 17 13 C16.34 12.34 15.68 11.68 15 11 C14.01 11 13.02 11 12 11 C10.49867253 9.79241051 9.00122091 8.57792001 7.55859375 7.30078125 C5.87733063 5.82238628 5.87733063 5.82238628 3.1875 4.375 C1 3 1 3 0 0 Z " fill="#B0B4B2" transform="translate(38,5)"/>
<path d="M0 0 C1.32 0 2.64 0 4 0 C5.73223664 1.94348501 7.39881603 3.94720004 9 6 C9.99 6.66 10.98 7.32 12 8 C12 8.66 12 9.32 12 10 C5.92706524 9.7618457 5.92706524 9.7618457 3.421875 7.703125 C1.12792857 5.04003777 0 3.57389046 0 0 Z " fill="#94DFE7" transform="translate(12,41)"/>
<path d="M0 0 C2.1875 0.3125 2.1875 0.3125 4 1 C3.45730469 1.40089844 2.91460937 1.80179688 2.35546875 2.21484375 C-4.98871009 8.05048856 -6.82771023 13.85613977 -8 23 C-8.33 23 -8.66 23 -9 23 C-10.03339126 11.51787488 -10.03339126 11.51787488 -6.1875 6.4375 C-5.16118887 5.25914278 -4.0995888 4.11029039 -3 3 C-2.52175781 2.41347656 -2.04351562 1.82695312 -1.55078125 1.22265625 C-1.03902344 0.81917969 -0.52726563 0.41570313 0 0 Z " fill="#DBDDD8" transform="translate(15,9)"/>
<path d="M0 0 C0.99 0.33 1.98 0.66 3 1 C2.95359375 1.96421875 2.9071875 2.9284375 2.859375 3.921875 C2.82328125 5.18515625 2.7871875 6.4484375 2.75 7.75 C2.70359375 9.00296875 2.6571875 10.2559375 2.609375 11.546875 C2.69178449 15.07830498 2.69178449 15.07830498 5.015625 17.453125 C5.67046875 17.96359375 6.3253125 18.4740625 7 19 C6.67 19.99 6.34 20.98 6 22 C0 16 0 16 -0.09765625 12.40234375 C-0.0909822 10.91403133 -0.07902183 9.42573568 -0.0625 7.9375 C-0.05798828 7.17888672 -0.05347656 6.42027344 -0.04882812 5.63867188 C-0.0370068 3.75908129 -0.01907078 1.87953101 0 0 Z " fill="#E0E1E3" transform="translate(36,15)"/>
<path d="M0 0 C0.33 1.32 0.66 2.64 1 4 C-3.75 7 -3.75 7 -6 7 C-6.66 8.32 -7.32 9.64 -8 11 C-9.32 10.34 -10.64 9.68 -12 9 C-3.25 0 -3.25 0 0 0 Z " fill="#95D4D6" transform="translate(31,34)"/>
<path d="M0 0 C11.385 0.99 11.385 0.99 23 2 C23 2.66 23 3.32 23 4 C20.10359882 4.08120751 17.20949088 4.14059421 14.3125 4.1875 C13.49587891 4.21263672 12.67925781 4.23777344 11.83789062 4.26367188 C7.06018259 4.32170072 3.88017566 4.13733144 0 1 C0 0.67 0 0.34 0 0 Z " fill="#E1E0E0" transform="translate(18,53)"/>
<path d="M0 0 C5.62719476 -0.2910618 9.12123345 -0.144094 14 3 C16.875 5.6875 16.875 5.6875 19 8 C14.71464033 8 13.15057301 5.7483722 10 3 C9.34 2.67 8.68 2.34 8 2 C8.061875 2.94875 8.12375 3.8975 8.1875 4.875 C8.125625 5.90625 8.06375 6.9375 8 8 C7.01 8.66 6.02 9.32 5 10 C5 7.36 5 4.72 5 2 C3.35 1.67 1.7 1.34 0 1 C0 0.67 0 0.34 0 0 Z " fill="#2F5A5D" transform="translate(28,13)"/>
<path d="M0 0 C0.33 0 0.66 0 1 0 C1 3.3 1 6.6 1 10 C1.99 10 2.98 10 4 10 C4.33 7.69 4.66 5.38 5 3 C6.32 4.32 7.64 5.64 9 7 C8.67 7.66 8.34 8.32 8 9 C7.01 9.33 6.02 9.66 5 10 C5.99 10.33 6.98 10.66 8 11 C5.35541621 12.32229189 3.32238699 12.09677194 0.375 12.0625 C-0.62789062 12.05347656 -1.63078125 12.04445313 -2.6640625 12.03515625 C-3.43492188 12.02355469 -4.20578125 12.01195312 -5 12 C-5 11.67 -5 11.34 -5 11 C-3.35 11 -1.7 11 0 11 C0 7.37 0 3.74 0 0 Z " fill="#659194" transform="translate(31,38)"/>
<path d="M0 0 C0.556875 0.268125 1.11375 0.53625 1.6875 0.8125 C0.78 1.34875 -0.1275 1.885 -1.0625 2.4375 C-6.2531084 5.96319627 -8.33070689 10.1311839 -9.5625 16.1875 C-9.82588442 17.72693651 -10.08052257 19.26801867 -10.3125 20.8125 C-10.6425 20.8125 -10.9725 20.8125 -11.3125 20.8125 C-11.9994658 12.3971689 -10.255723 8.34436761 -4.8125 1.8125 C-2.3125 -0.1875 -2.3125 -0.1875 0 0 Z " fill="#223C40" transform="translate(24.3125,15.1875)"/>
<path d="M0 0 C1.13199353 0.9080162 2.25532363 1.82683826 3.375 2.75 C4.00148438 3.26046875 4.62796875 3.7709375 5.2734375 4.296875 C7.08312318 6.08199481 8.00117455 7.67949644 9 10 C4.75177626 9.52797514 2.80010291 7.03344482 0 4 C0 7.3 0 10.6 0 14 C-0.99 13.67 -1.98 13.34 -3 13 C-2.34 13 -1.68 13 -1 13 C-1.01160156 12.22914062 -1.02320313 11.45828125 -1.03515625 10.6640625 C-1.04417969 9.66117188 -1.05320313 8.65828125 -1.0625 7.625 C-1.07410156 6.62726562 -1.08570313 5.62953125 -1.09765625 4.6015625 C-1 2 -1 2 0 0 Z " fill="#8ED9DD" transform="translate(35,34)"/>
<path d="M0 0 C0.33 0 0.66 0 1 0 C1.12117188 1.10859375 1.24234375 2.2171875 1.3671875 3.359375 C1.53606296 4.82296234 1.70535572 6.28650157 1.875 7.75 C1.95363281 8.47960938 2.03226563 9.20921875 2.11328125 9.9609375 C2.55136176 13.66777257 2.9986215 16.80452172 5 20 C4.01 20 3.02 20 2 20 C0 18 0 18 -0.22705078 16.12060547 C-0.21657715 15.37697754 -0.20610352 14.63334961 -0.1953125 13.8671875 C-0.18886719 13.06152344 -0.18242188 12.25585938 -0.17578125 11.42578125 C-0.15064453 10.16314453 -0.15064453 10.16314453 -0.125 8.875 C-0.11597656 8.02550781 -0.10695312 7.17601562 -0.09765625 6.30078125 C-0.07405647 4.20040116 -0.03818483 2.10016556 0 0 Z " fill="#0D1A1A" transform="translate(34,15)"/>
<path d="M0 0 C0.66 0 1.32 0 2 0 C2.9360342 3.79267192 2.98276252 6.93674565 2.5625 10.8125 C2.46066406 11.78832031 2.35882813 12.76414062 2.25390625 13.76953125 C2.12822266 14.87361328 2.12822266 14.87361328 2 16 C1.34 16 0.68 16 0 16 C0 12.7 0 9.4 0 6 C-0.66 5.67 -1.32 5.34 -2 5 C-1.34 3.35 -0.68 1.7 0 0 Z " fill="#AFEBF1" transform="translate(32,31)"/>
<path d="M0 0 C3.16115776 1.36983503 3.9927092 1.9890638 6 5 C6.99 5.66 7.98 6.32 9 7 C7.8125 8.5 7.8125 8.5 6 10 C3.3125 10.1875 3.3125 10.1875 1 10 C1.33 8.68 1.66 7.36 2 6 C2 6.99 2 7.98 2 9 C2.66 8.34 3.32 7.68 4 7 C3.34 6.01 2.68 5.02 2 4 C1.01 4.495 1.01 4.495 0 5 C0 3.35 0 1.7 0 0 Z " fill="#0D292F" transform="translate(35,38)"/>
<path d="M0 0 C0.33 0 0.66 0 1 0 C1.33 3.63 1.66 7.26 2 11 C2.66 10.01 3.32 9.02 4 8 C5.25664978 10.90600261 6 12.79604584 6 16 C4.68 16.33 3.36 16.66 2 17 C0.14868517 13.07142246 -0.22004943 10.01224888 -0.125 5.6875 C-0.10695313 4.61886719 -0.08890625 3.55023437 -0.0703125 2.44921875 C-0.04710937 1.64097656 -0.02390625 0.83273438 0 0 Z " fill="#8ECAD1" transform="translate(9,25)"/>
<path d="M0 0 C0.99 0 1.98 0 3 0 C4.15385113 1.74726028 5.30764419 3.49455898 6.4609375 5.2421875 C9.1052699 8.2623641 12.20746071 8.90723444 16 10 C15.67 10.66 15.34 11.32 15 12 C8.97876932 10.27964838 4.33847195 8.32001804 1.125 2.75 C0.75375 1.8425 0.3825 0.935 0 0 Z " fill="#234145" transform="translate(9,42)"/>
<path d="M0 0 C0.33 0 0.66 0 1 0 C3.11161731 13.6332574 3.11161731 13.6332574 4 20 C3.34 20 2.68 20 2 20 C0.19320413 15.37630977 -0.21839082 11.57471347 -0.125 6.625 C-0.10695313 5.37976563 -0.08890625 4.13453125 -0.0703125 2.8515625 C-0.04710937 1.91054688 -0.02390625 0.96953125 0 0 Z " fill="#B9BAB8" transform="translate(5,24)"/>
<path d="M0 0 C2.79872437 2.52788007 4.45773019 4.20411134 5 8 C4.01 8 3.02 8 2 8 C1.67 8.99 1.34 9.98 1 11 C-0.32 8.03 -1.64 5.06 -3 2 C-2.01 2 -1.02 2 0 2 C0 1.34 0 0.68 0 0 Z " fill="#97E2E8" transform="translate(49,17)"/>
<path d="M0 0 C0.99 0.33 1.98 0.66 3 1 C2.43454163 4.95820859 1.19097652 7.6659053 -1 11 C-1.33 10.01 -1.66 9.02 -2 8 C-2.66 7.67 -3.32 7.34 -4 7 C-2.68 4.69 -1.36 2.38 0 0 Z " fill="#86DBDD" transform="translate(51,35)"/>
<path d="M0 0 C0.05447047 1.41623216 0.09300508 2.83308191 0.125 4.25 C0.14820313 5.03890625 0.17140625 5.8278125 0.1953125 6.640625 C-0.0171622 9.20731941 -0.71345895 10.7916067 -2 13 C-3 12 -3 12 -3.09765625 9.49609375 C-3.08605469 8.48675781 -3.07445312 7.47742188 -3.0625 6.4375 C-3.05347656 5.42558594 -3.04445313 4.41367187 -3.03515625 3.37109375 C-3.02355469 2.58863281 -3.01195312 1.80617188 -3 1 C-1 0 -1 0 0 0 Z " fill="#ACEAF7" transform="translate(13,24)"/>
<path d="M0 0 C0 4.26804999 -0.61067235 6.41600853 -3 10 C-3.33 9.34 -3.66 8.68 -4 8 C-4.66 8 -5.32 8 -6 8 C-4.52307692 2.33846154 -4.52307692 2.33846154 -1.875 0.625 C-0.946875 0.315625 -0.946875 0.315625 0 0 Z " fill="#A0DCE2" transform="translate(16,17)"/>
<path d="M0 0 C0 0.99 0 1.98 0 3 C-6.625 4.125 -6.625 4.125 -10 3 C-10 2.34 -10 1.68 -10 1 C-6.59437148 0.22157062 -3.49234244 -0.09978121 0 0 Z " fill="#9CE9F1" transform="translate(42,49)"/>
<path d="M0 0 C0 0.33 0 0.66 0 1 C-2.64 1 -5.28 1 -8 1 C-8 1.66 -8 2.32 -8 3 C-7.34 3.33 -6.68 3.66 -6 4 C-7.98 4.66 -9.96 5.32 -12 6 C-11.67 5.34 -11.34 4.68 -11 4 C-12.65 4 -14.3 4 -16 4 C-15 2 -15 2 -12.5 0.875 C-8.2443204 -0.1889199 -4.35855223 -0.17434209 0 0 Z " fill="#7FC1C7" transform="translate(36,9)"/>
<path d="M0 0 C0 3.19398323 -0.51014449 4.26859824 -2 7 C-2.37125 7.7425 -2.7425 8.485 -3.125 9.25 C-3.41375 9.8275 -3.7025 10.405 -4 11 C-4.99 11 -5.98 11 -7 11 C-5.72278474 6.00724943 -3.82669043 3.42388092 0 0 Z " fill="#314542" transform="translate(15,12)"/>
<path d="M0 0 C0.66 0.66 1.32 1.32 2 2 C1.5390625 5.0390625 1.5390625 5.0390625 0.625 8.625 C0.32851562 9.81351563 0.03203125 11.00203125 -0.2734375 12.2265625 C-0.51320313 13.14179688 -0.75296875 14.05703125 -1 15 C-1.33 15 -1.66 15 -2 15 C-2.05406122 13.06280622 -2.09282025 11.12518079 -2.125 9.1875 C-2.14820313 8.10855469 -2.17140625 7.02960937 -2.1953125 5.91796875 C-2 3 -2 3 0 0 Z " fill="#CECFCC" transform="translate(8,17)"/>
<path d="M0 0 C2.855976 1.7135856 3.9421575 2.87642739 5.375 5.9375 C6 9 6 9 5.125 11.375 C4.75375 11.91125 4.3825 12.4475 4 13 C3.566875 11.3603125 3.566875 11.3603125 3.125 9.6875 C2.18106796 5.95986155 2.18106796 5.95986155 0 3 C0 2.01 0 1.02 0 0 Z " fill="#CED2D1" transform="translate(52,15)"/>
<path d="M0 0 C1.32 0 2.64 0 4 0 C4.33 1.98 4.66 3.96 5 6 C3.0625 5.25 3.0625 5.25 1 4 C0.25 1.875 0.25 1.875 0 0 Z " fill="#A7EEF3" transform="translate(12,41)"/>
<path d="M0 0 C0.556875 0.268125 1.11375 0.53625 1.6875 0.8125 C0.759375 1.410625 -0.16875 2.00875 -1.125 2.625 C-3.51504718 4.26522845 -5.39720253 5.6843917 -7.3125 7.8125 C-7.3125 4.8125 -7.3125 4.8125 -5.0625 2.0625 C-2.3125 -0.1875 -2.3125 -0.1875 0 0 Z " fill="#2F5253" transform="translate(24.3125,15.1875)"/>
<path d="M0 0 C0.33 0 0.66 0 1 0 C1 2.31 1 4.62 1 7 C-0.32 6.67 -1.64 6.34 -3 6 C-2.42655063 3.13275314 -2.1385485 2.1385485 0 0 Z " fill="#DCE0DE" transform="translate(28,41)"/>
<path d="M0 0 C0.33 1.32 0.66 2.64 1 4 C-0.98 4.33 -2.96 4.66 -5 5 C-4.625 3.0625 -4.625 3.0625 -4 1 C-2 0 -2 0 0 0 Z " fill="#9EDEDE" transform="translate(31,34)"/>
<path d="M0 0 C0.99 0.33 1.98 0.66 3 1 C2.67 2.32 2.34 3.64 2 5 C2 4.34 2 3.68 2 3 C1.401875 3.350625 0.80375 3.70125 0.1875 4.0625 C-2 5 -2 5 -5 4 C-2.6875 1.9375 -2.6875 1.9375 0 0 Z " fill="#BCBBBB" transform="translate(24,16)"/>
<path d="M0 0 C5.75 1.75 5.75 1.75 8 4 C6 5 6 5 4.0546875 4.44140625 C3.33539063 4.15136719 2.61609375 3.86132812 1.875 3.5625 C1.15054688 3.27503906 0.42609375 2.98757812 -0.3203125 2.69140625 C-1.15175781 2.34916016 -1.15175781 2.34916016 -2 2 C-1.34 1.34 -0.68 0.68 0 0 Z " fill="#233F43" transform="translate(38,8)"/>
<path d="M0 0 C0.33 0.99 0.66 1.98 1 3 C-1.31 4.32 -3.62 5.64 -6 7 C-6.66 6.34 -7.32 5.68 -8 5 C-7.05125 4.54625 -6.1025 4.0925 -5.125 3.625 C-1.99686321 2.19761746 -1.99686321 2.19761746 0 0 Z " fill="#284C4F" transform="translate(48,47)"/>
<path d="M0 0 C2.0625 0.4375 2.0625 0.4375 4 1 C-0.75 5 -0.75 5 -3 5 C-1.125 1.125 -1.125 1.125 0 0 Z " fill="#E0E0DF" transform="translate(20,35)"/>
<path d="M0 0 C0.99 0 1.98 0 3 0 C4.6875 2.5 4.6875 2.5 6 5 C5.34 5.66 4.68 6.32 4 7 C2.02 3.535 2.02 3.535 0 0 Z " fill="#4B6063" transform="translate(9,42)"/>
<path d="M0 0 C2.86724686 0.57344937 3.8614515 0.8614515 6 3 C5.67 3.99 5.34 4.98 5 6 C3.31237149 4.3545622 1.6459651 2.68711423 0 1 C0 0.67 0 0.34 0 0 Z " fill="#DAD8D8" transform="translate(37,31)"/>
<path d="M0 0 C0.33 0 0.66 0 1 0 C1 2.64 1 5.28 1 8 C0.34 8 -0.32 8 -1 8 C-1.33 8.99 -1.66 9.98 -2 11 C-2 9.02 -2 7.04 -2 5 C-1.34 5 -0.68 5 0 5 C0 3.35 0 1.7 0 0 Z " fill="#8ACAD2" transform="translate(33,23)"/>
<path d="M0 0 C2.31 0 4.62 0 7 0 C7.33 0.66 7.66 1.32 8 2 C2.25 3.125 2.25 3.125 0 2 C0 1.34 0 0.68 0 0 Z " fill="#A5EFFD" transform="translate(28,10)"/>
</svg>
