<?xml version="1.0" encoding="UTF-8"?>
<svg version="1.1" xmlns="http://www.w3.org/2000/svg" width="64" height="64">
<path d="M0 0 C0.02692484 2.29160319 0.04636124 4.58329546 0.0625 6.875 C0.07410156 8.15117187 0.08570313 9.42734375 0.09765625 10.7421875 C0 14 0 14 -1 16 C-1.76828125 16.1340625 -2.5365625 16.268125 -3.328125 16.40625 C-7.49640842 17.3325352 -9.07020345 19.59554966 -11.5703125 22.921875 C-13.70114768 27.50957479 -13.70465184 31.96341107 -13.56152344 36.97070312 C-13.52023455 40.90212294 -13.78998116 42.72541707 -16.2109375 45.890625 C-20.90178193 49.43832247 -24.10093797 50.23045485 -29.9375 49.9375 C-34.93612573 49.83386995 -37.57474803 50.63986562 -42 53 C-47.69263261 53.80878933 -52.09729334 53.18675933 -57 50 C-58.50156874 46.99686252 -58.09281204 44.20932478 -58.0625 40.875 C-58.05347656 39.59367187 -58.04445313 38.31234375 -58.03515625 36.9921875 C-58.02355469 36.00476562 -58.01195312 35.01734375 -58 34 C-58.639375 33.773125 -59.27875 33.54625 -59.9375 33.3125 C-62 32 -62 32 -62.75 29.375 C-62.8325 28.59125 -62.915 27.8075 -63 27 C-62.48050781 26.55269531 -61.96101563 26.10539062 -61.42578125 25.64453125 C-60.72839844 25.03996094 -60.03101563 24.43539062 -59.3125 23.8125 C-58.57644531 23.17441406 -57.84039062 22.53632813 -57.08203125 21.87890625 C-54.85456413 19.93086951 -54.85456413 19.93086951 -52.5 17.25 C-50.08122422 15.0731018 -48.92125814 14.51312644 -45.9375 13.5625 C-41.62660948 12.14710442 -40.28693864 9.92046624 -38 6 C-34.09941239 2.33944855 -30.89693219 2.6312276 -25.7734375 2.76171875 C-22.26214165 3.06339346 -19.31371408 3.82179055 -16 5 C-15.67 3.68 -15.34 2.36 -15 1 C-13.44033408 0.63355422 -11.87707349 0.28239138 -10.3125 -0.0625 C-9.44238281 -0.25972656 -8.57226562 -0.45695313 -7.67578125 -0.66015625 C-4.83998724 -1.02032279 -2.75210018 -0.70909969 0 0 Z " fill="#2C2A27" transform="translate(64,8)"/>
<path d="M0 0 C0.02692484 2.29160319 0.04636124 4.58329546 0.0625 6.875 C0.07410156 8.15117187 0.08570313 9.42734375 0.09765625 10.7421875 C0 14 0 14 -1 16 C-1.76828125 16.1340625 -2.5365625 16.268125 -3.328125 16.40625 C-7.49640842 17.3325352 -9.07020345 19.59554966 -11.5703125 22.921875 C-13.70114768 27.50957479 -13.70465184 31.96341107 -13.56152344 36.97070312 C-13.52023455 40.90212294 -13.78998116 42.72541707 -16.2109375 45.890625 C-20.87941499 49.42140629 -24.18299613 50.24799119 -30 50.0625 C-33.87747425 49.94874757 -37.21476474 50.17685164 -41 51 C-46.80409323 51.27638539 -49.19504833 50.93498389 -55 49 C-55 43.39 -55 37.78 -55 32 C-54.01 32 -53.02 32 -52 32 C-51.67 32.66 -51.34 33.32 -51 34 C-48.64400765 34.46751788 -48.64400765 34.46751788 -45.9375 34.625 C-45.01839844 34.69976562 -44.09929688 34.77453125 -43.15234375 34.8515625 C-42.44207031 34.90054688 -41.73179688 34.94953125 -41 35 C-41 35.33 -41 35.66 -41 36 C-44.63 36 -48.26 36 -52 36 C-51.67 36.33 -51.34 36.66 -51 37 C-51.99 37.495 -51.99 37.495 -53 38 C-53 38.66 -53 39.32 -53 40 C-52.01 40.33 -51.02 40.66 -50 41 C-50.99 41 -51.98 41 -53 41 C-53 41.66 -53 42.32 -53 43 C-49.04 43.33 -45.08 43.66 -41 44 C-41 43.34 -41 42.68 -41 42 C-43.64 42 -46.28 42 -49 42 C-49 41.67 -49 41.34 -49 41 C-44.05 40.505 -44.05 40.505 -39 40 C-39 39.34 -39 38.68 -39 38 C-39.66 37.67 -40.32 37.34 -41 37 C-39.4375 36.3125 -39.4375 36.3125 -37 36 C-34.6429774 36.94280904 -32.30965848 37.94647157 -30 39 C-27.22111387 39.69140522 -27.22111387 39.69140522 -25 40 C-25 40.33 -25 40.66 -25 41 C-27.97 41.495 -27.97 41.495 -31 42 C-29.68 42.66 -28.36 43.32 -27 44 C-29.33333333 44 -31.66666667 44 -34 44 C-30.37 44 -26.74 44 -23 44 C-23.66 43.34 -24.32 42.68 -25 42 C-22.03 41.505 -22.03 41.505 -19 41 C-19 40.01 -19 39.02 -19 38 C-19.99 37.505 -19.99 37.505 -21 37 C-20.34 37 -19.68 37 -19 37 C-19.33 36.01 -19.66 35.02 -20 34 C-19.5625 31.3125 -19.5625 31.3125 -19 29 C-21.97 29.495 -21.97 29.495 -25 30 C-24.01 29.34 -23.02 28.68 -22 28 C-21.34 27.34 -20.68 26.68 -20 26 C-21.32 25.67 -22.64 25.34 -24 25 C-24 24.34 -24 23.68 -24 23 C-24.66 22.34 -25.32 21.68 -26 21 C-25.34 21 -24.68 21 -24 21 C-24 20.34 -24 19.68 -24 19 C-25.98 19 -27.96 19 -30 19 C-30 18.67 -30 18.34 -30 18 C-26.04 17.34 -22.08 16.68 -18 16 C-18.33 15.67 -18.66 15.34 -19 15 C-19.7734375 15.2165625 -19.7734375 15.2165625 -20.5625 15.4375 C-24.07330457 16.24768567 -27.3996635 16.06000561 -31 16 C-31 15.67 -31 15.34 -31 15 C-27.04 14.34 -23.08 13.68 -19 13 C-19.66821688 9.87220895 -19.66821688 9.87220895 -22.125 8.8125 C-25.57341145 7.83794894 -28.43112119 7.73563861 -32 8 C-32.99 8.66 -33.98 9.32 -35 10 C-35.22609337 12.12364481 -35.22609337 12.12364481 -33.5 13.625 C-33.005 14.07875 -32.51 14.5325 -32 15 C-33.32 14.67 -34.64 14.34 -36 14 C-36 14.66 -36 15.32 -36 16 C-35.34 16.33 -34.68 16.66 -34 17 C-34.66 17 -35.32 17 -36 17 C-35.67 19.31 -35.34 21.62 -35 24 C-35.66 24 -36.32 24 -37 24 C-36.67 26.31 -36.34 28.62 -36 31 C-36.66 31 -37.32 31 -38 31 C-38.45375 30.236875 -38.9075 29.47375 -39.375 28.6875 C-41.02412449 25.9601018 -42.43537244 24.7994609 -45 23 C-45.83144531 23.66128906 -46.66289063 24.32257812 -47.51953125 25.00390625 C-48.61676696 25.8573118 -49.71444644 26.71014701 -50.8125 27.5625 C-51.63331055 28.21895508 -51.63331055 28.21895508 -52.47070312 28.88867188 C-53.9221958 30.00588139 -55.45810571 31.01128867 -57 32 C-57.99 31.67 -58.98 31.34 -60 31 C-59.56808185 26.57798089 -56.8300172 24.69305974 -53.625 21.875 C-52.64789063 21.00617187 -51.67078125 20.13734375 -50.6640625 19.2421875 C-48 17 -48 17 -45 15 C-42.03923709 15.35888035 -41.15341979 15.84658021 -39 18 C-38.9071875 16.14375 -38.9071875 16.14375 -38.8125 14.25 C-38.39082493 11.07900347 -38.07270973 10.09088716 -36 7.5 C-31.89243548 5.44621774 -28.51020629 5.3183168 -24 6 C-18.90909091 8.09090909 -18.90909091 8.09090909 -17 10 C-16.95936168 11.66617115 -16.957279 13.33388095 -17 15 C-16.34 15 -15.68 15 -15 15 C-14.566875 13.88625 -14.566875 13.88625 -14.125 12.75 C-13.17697356 10.43260203 -12.15154089 8.22082885 -11 6 C-11.66 5.01 -12.32 4.02 -13 3 C-11.66666667 2.33333333 -10.33333333 1.66666667 -9 1 C-8.0409375 0.4121875 -8.0409375 0.4121875 -7.0625 -0.1875 C-4.38240405 -1.24329538 -2.75656592 -0.64032256 0 0 Z " fill="#2A2B2A" transform="translate(64,8)"/>
<path d="M0 0 C-3 2 -3 2 -6 3 C-5.34 3.99 -4.68 4.98 -4 6 C-4.78281305 7.33855056 -5.57651877 8.67073644 -6.375 10 C-6.81585938 10.7425 -7.25671875 11.485 -7.7109375 12.25 C-8.13632812 12.8275 -8.56171875 13.405 -9 14 C-9.66 14 -10.32 14 -11 14 C-11.3403125 12.576875 -11.3403125 12.576875 -11.6875 11.125 C-12.68994941 7.93244946 -12.68994941 7.93244946 -15.0625 6.625 C-19.97659835 5.57944716 -24.73222143 5.14958304 -29.5 6.9375 C-31.91552878 10.25885207 -31.83159584 13.98356082 -32 18 C-32.5775 17.484375 -33.155 16.96875 -33.75 16.4375 C-35.80818509 14.80607862 -35.80818509 14.80607862 -37.7890625 15.1328125 C-40.9066695 16.35561949 -43.06995082 18.28533594 -45.625 20.4375 C-46.58664063 21.24058594 -47.54828125 22.04367188 -48.5390625 22.87109375 C-50.07141082 24.19669666 -51.56729025 25.56729025 -53 27 C-53 27.99 -53 28.98 -53 30 C-49.16336928 28.65070536 -46.34827431 26.92248975 -43.1875 24.375 C-42.39730469 23.74335937 -41.60710938 23.11171875 -40.79296875 22.4609375 C-40.20128906 21.97882812 -39.60960938 21.49671875 -39 21 C-37.82460004 21.92652701 -36.65989423 22.86663387 -35.5 23.8125 C-34.8503125 24.33457031 -34.200625 24.85664062 -33.53125 25.39453125 C-32 27 -32 27 -32 30 C-32.99 29.67 -33.98 29.34 -35 29 C-40.5020961 28.73376954 -42.69552889 28.87821156 -48 31 C-48.33 36.61 -48.66 42.22 -49 48 C-44.73574865 48.71070856 -41.34856356 49.11400687 -37.125 49.0625 C-35.67480469 49.04896484 -35.67480469 49.04896484 -34.1953125 49.03515625 C-33.47085938 49.02355469 -32.74640625 49.01195312 -32 49 C-32.33 49.66 -32.66 50.32 -33 51 C-38.33218706 52.77739569 -43.2728164 52.67853641 -48.5 50.625 C-51 49 -51 49 -52 47 C-52.07116382 44.62597499 -52.08409085 42.24999323 -52.0625 39.875 C-52.05347656 38.59367187 -52.04445313 37.31234375 -52.03515625 35.9921875 C-52.02355469 35.00476562 -52.01195312 34.01734375 -52 33 C-52.639375 32.773125 -53.27875 32.54625 -53.9375 32.3125 C-56 31 -56 31 -56.75 28.375 C-56.8325 27.59125 -56.915 26.8075 -57 26 C-56.48050781 25.55269531 -55.96101563 25.10539062 -55.42578125 24.64453125 C-54.72839844 24.03996094 -54.03101563 23.43539062 -53.3125 22.8125 C-52.57644531 22.17441406 -51.84039062 21.53632813 -51.08203125 20.87890625 C-48.85456413 18.93086951 -48.85456413 18.93086951 -46.5 16.25 C-44.08122422 14.0731018 -42.92125814 13.51312644 -39.9375 12.5625 C-35.62660948 11.14710442 -34.28693864 8.92046624 -32 5 C-28.09941239 1.33944855 -24.89693219 1.6312276 -19.7734375 1.76171875 C-16.26214165 2.06339346 -13.31371408 2.82179055 -10 4 C-9.896875 3.360625 -9.79375 2.72125 -9.6875 2.0625 C-9.460625 1.381875 -9.23375 0.70125 -9 0 C-5.52176885 -1.15941038 -3.54104422 -0.70820884 0 0 Z " fill="#B2B3B4" transform="translate(58,9)"/>
<path d="M0 0 C3.4375 1.5 3.4375 1.5 6 3 C6 3.99 6 4.98 6 6 C4.02 6.99 4.02 6.99 2 8 C3.65 7.67 5.3 7.34 7 7 C7 7.66 7 8.32 7 9 C5.02 9.66 3.04 10.32 1 11 C1.33 13.31 1.66 15.62 2 18 C3.32 18 4.64 18 6 18 C5 21 5 21 3 22 C1.21140489 22.12207871 -0.58228381 22.17548448 -2.375 22.1875 C-3.80972656 22.20876953 -3.80972656 22.20876953 -5.2734375 22.23046875 C-8.03010017 21.99745572 -9.64947395 21.40920164 -12 20 C-11.9278125 19.31292969 -11.855625 18.62585938 -11.78125 17.91796875 C-11.6884375 17.01691406 -11.595625 16.11585937 -11.5 15.1875 C-11.4071875 14.29417969 -11.314375 13.40085937 -11.21875 12.48046875 C-10.95607599 9.91694901 -10.95607599 9.91694901 -11 7 C-10.01 7 -9.02 7 -8 7 C-8.99 6.34 -9.98 5.68 -11 5 C-8.49817516 -0.53975501 -5.9461447 -0.39640965 0 0 Z " fill="#808080" transform="translate(39,15)"/>
<path d="M0 0 C0.33 0 0.66 0 1 0 C1 4.95 1 9.9 1 15 C-0.65 15.33 -2.3 15.66 -4 16 C-7.71616044 18.75054395 -10.56968386 22.35644593 -11.32714844 27.00976562 C-11.55265433 30.00672558 -11.64740975 32.9660034 -11.56152344 35.97070312 C-11.52023455 39.90212294 -11.78998116 41.72541707 -14.2109375 44.890625 C-19.30899609 48.74629957 -22.94804833 49.24396171 -29.3125 49.125 C-31.19388672 49.09792969 -31.19388672 49.09792969 -33.11328125 49.0703125 C-34.54220703 49.03550781 -34.54220703 49.03550781 -36 49 C-35.67 47.68 -35.34 46.36 -35 45 C-33.80503906 45.03480469 -33.80503906 45.03480469 -32.5859375 45.0703125 C-31.52632812 45.08835938 -30.46671875 45.10640625 -29.375 45.125 C-27.80878906 45.15980469 -27.80878906 45.15980469 -26.2109375 45.1953125 C-22.82719993 44.98948905 -20.15542948 44.20342205 -17 43 C-16.97607178 42.43603516 -16.95214355 41.87207031 -16.92749023 41.29101562 C-16.00971319 22.88270732 -16.00971319 22.88270732 -11.6875 18.0625 C-10.49094758 17.00362621 -9.26311868 15.97851039 -8 15 C-7.00913019 14.01159504 -6.02840247 13.01281774 -5.0625 12 C-4.381875 11.34 -3.70125 10.68 -3 10 C-2.505 10.495 -2.505 10.495 -2 11 C-0.85185003 8.70370006 -0.69230191 6.92301914 -0.4375 4.375 C-0.35371094 3.55773437 -0.26992188 2.74046875 -0.18359375 1.8984375 C-0.09271484 0.95871094 -0.09271484 0.95871094 0 0 Z " fill="#CACACA" transform="translate(62,9)"/>
<path d="M0 0 C1.32 0.99 2.64 1.98 4 3 C3.34 3 2.68 3 2 3 C2.33 5.31 2.66 7.62 3 10 C2.34 10 1.68 10 1 10 C1.33 12.31 1.66 14.62 2 17 C1.34 17 0.68 17 0 17 C-0.45375 16.236875 -0.9075 15.47375 -1.375 14.6875 C-3.02412449 11.9601018 -4.43537244 10.7994609 -7 9 C-7.83144531 9.66128906 -8.66289062 10.32257812 -9.51953125 11.00390625 C-10.61676696 11.8573118 -11.71444644 12.71014701 -12.8125 13.5625 C-13.35970703 14.00013672 -13.90691406 14.43777344 -14.47070312 14.88867188 C-15.9221958 16.00588139 -17.45810571 17.01128867 -19 18 C-19.99 17.67 -20.98 17.34 -22 17 C-21.56808185 12.57798089 -18.8300172 10.69305974 -15.625 7.875 C-14.64789062 7.00617187 -13.67078125 6.13734375 -12.6640625 5.2421875 C-10 3 -10 3 -7 1 C-4.03923709 1.35888035 -3.15341979 1.84658021 -1 4 C-0.67 2.68 -0.34 1.36 0 0 Z " fill="#14414D" transform="translate(26,22)"/>
<path d="M0 0 C0 4.62 0 9.24 0 14 C-0.66 12.68 -1.32 11.36 -2 10 C-2.99 11.485 -2.99 11.485 -4 13 C-4.99 13 -5.98 13 -7 13 C-8.80495453 14.6615027 -8.80495453 14.6615027 -10.5 16.8125 C-12.58277276 19.32004878 -14.65488525 21.73353239 -17 24 C-17 21.69 -17 19.38 -17 17 C-16.34 17 -15.68 17 -15 17 C-14.896875 16.29875 -14.79375 15.5975 -14.6875 14.875 C-13.90640997 11.60862353 -12.57941257 8.9528148 -11 6 C-11.66 5.01 -12.32 4.02 -13 3 C-11.66666667 2.33333333 -10.33333333 1.66666667 -9 1 C-8.360625 0.608125 -7.72125 0.21625 -7.0625 -0.1875 C-5 -1 -5 -1 0 0 Z " fill="#1A3D43" transform="translate(64,8)"/>
<path d="M0 0 C0.05389087 1.95803507 0.09274217 3.91648909 0.125 5.875 C0.14820312 6.96554688 0.17140625 8.05609375 0.1953125 9.1796875 C-0.05799086 12.83738803 -1.47886678 13.47886678 -4 16 C-6.49609375 16.30078125 -6.49609375 16.30078125 -9.4375 16.3125 C-10.88962891 16.33763672 -10.88962891 16.33763672 -12.37109375 16.36328125 C-15.33747041 15.9533659 -16.19386292 15.32042696 -18 13 C-17.01 13 -16.02 13 -15 13 C-12.84971696 12.05021103 -12.84971696 12.05021103 -11 11 C-13.475 10.01 -13.475 10.01 -16 9 C-14.68 8.34 -13.36 7.68 -12 7 C-12.33 5.02 -12.66 3.04 -13 1 C-11.20843648 0.83222817 -9.4167455 0.66581706 -7.625 0.5 C-6.62726562 0.4071875 -5.62953125 0.314375 -4.6015625 0.21875 C-2 0 -2 0 0 0 Z " fill="#7F7F7E" transform="translate(45,37)"/>
<path d="M0 0 C-3 2 -3 2 -6 3 C-5.01 4.485 -5.01 4.485 -4 6 C-4.78281305 7.33855056 -5.57651877 8.67073644 -6.375 10 C-6.81585938 10.7425 -7.25671875 11.485 -7.7109375 12.25 C-8.13632812 12.8275 -8.56171875 13.405 -9 14 C-9.66 14 -10.32 14 -11 14 C-11.3403125 12.576875 -11.3403125 12.576875 -11.6875 11.125 C-12.68994941 7.93244946 -12.68994941 7.93244946 -15.0625 6.625 C-20.24390991 5.52257236 -24.96799828 5.1785525 -29.9375 7.1875 C-32.32087126 9.28197778 -33.10368306 10.98511576 -34 14 C-34.66 13.67 -35.32 13.34 -36 13 C-34.99400189 8.67420812 -33.57274098 5.65731604 -29.96875 2.91015625 C-23.7751961 0.04686645 -16.16094658 1.80944122 -10 4 C-9.896875 3.360625 -9.79375 2.72125 -9.6875 2.0625 C-9.460625 1.381875 -9.23375 0.70125 -9 0 C-5.52176885 -1.15941038 -3.54104422 -0.70820884 0 0 Z " fill="#BCBEBD" transform="translate(58,9)"/>
<path d="M0 0 C2 1 2 1 3 3 C5.35599235 3.46751788 5.35599235 3.46751788 8.0625 3.625 C9.44115234 3.73714844 9.44115234 3.73714844 10.84765625 3.8515625 C11.55792969 3.90054688 12.26820312 3.94953125 13 4 C13 4.33 13 4.66 13 5 C9.37 5 5.74 5 2 5 C2.33 5.33 2.66 5.66 3 6 C2.01 6.495 2.01 6.495 1 7 C1 7.66 1 8.32 1 9 C1.99 9.33 2.98 9.66 4 10 C3.01 10 2.02 10 1 10 C1 10.66 1 11.32 1 12 C1.66 12 2.32 12 3 12 C3 12.66 3 13.32 3 14 C6.96 14 10.92 14 15 14 C15.66 15.32 16.32 16.64 17 18 C13.28363419 20.47757721 9.3102736 20.52152777 5 20 C2.98735059 19.37255534 0.98421259 18.71228144 -1 18 C-1.02684312 15.18743719 -1.04676188 12.37512759 -1.0625 9.5625 C-1.07087891 8.76005859 -1.07925781 7.95761719 -1.08789062 7.13085938 C-1.0965143 5.08704779 -1.0522815 3.04316098 -1 1 C-0.67 0.67 -0.34 0.34 0 0 Z " fill="#616161" transform="translate(10,39)"/>
<path d="M0 0 C0.33 0 0.66 0 1 0 C1 4.95 1 9.9 1 15 C-0.65 15.33 -2.3 15.66 -4 16 C-7.78016341 18.79791622 -10.49511342 22.41147369 -11.40771484 27.09033203 C-11.97222877 32.05445358 -12.04011676 37.00832869 -12 42 C-12.33 42 -12.66 42 -13 42 C-13.02689449 39.04160645 -13.04678741 36.08345573 -13.0625 33.125 C-13.07087891 32.28324219 -13.07925781 31.44148438 -13.08789062 30.57421875 C-13.09111328 29.76855469 -13.09433594 28.96289062 -13.09765625 28.1328125 C-13.10289307 27.38918457 -13.10812988 26.64555664 -13.11352539 25.87939453 C-13 24 -13 24 -12 22 C-12.66 21.67 -13.32 21.34 -14 21 C-10.33333333 17.33333333 -6.66666667 13.66666667 -3 10 C-2.67 10.33 -2.34 10.66 -2 11 C-0.85185003 8.70370006 -0.69230191 6.92301914 -0.4375 4.375 C-0.35371094 3.55773437 -0.26992188 2.74046875 -0.18359375 1.8984375 C-0.12300781 1.27195312 -0.06242187 0.64546875 0 0 Z " fill="#B7B8B7" transform="translate(62,9)"/>
<path d="M0 0 C3.4375 1.5 3.4375 1.5 6 3 C6 3.99 6 4.98 6 6 C2.93301363 7.02232879 0.71335122 7.1659049 -2.5 7.1875 C-3.93859375 7.20876953 -3.93859375 7.20876953 -5.40625 7.23046875 C-8 7 -8 7 -11 5 C-8.49817516 -0.53975501 -5.9461447 -0.39640965 0 0 Z " fill="#CDCDCC" transform="translate(39,15)"/>
<path d="M0 0 C4.62 0 9.24 0 14 0 C14 1.65 14 3.3 14 5 C13.34 5.66 12.68 6.32 12 7 C12 7.66 12 8.32 12 9 C10.37509046 9.02698189 8.75005367 9.04638757 7.125 9.0625 C5.76761719 9.07990234 5.76761719 9.07990234 4.3828125 9.09765625 C2 9 2 9 0 8 C0 5.36 0 2.72 0 0 Z " fill="#636563" transform="translate(11,43)"/>
<path d="M0 0 C3.3 0 6.6 0 10 0 C10.33 0.99 10.66 1.98 11 3 C12.32 3 13.64 3 15 3 C14 6 14 6 12 7 C10.21140489 7.12207871 8.41771619 7.17548448 6.625 7.1875 C5.19027344 7.20876953 5.19027344 7.20876953 3.7265625 7.23046875 C0.96989983 6.99745572 -0.64947395 6.40920164 -3 5 C-3 4.01 -3 3.02 -3 2 C-2.01 2 -1.02 2 0 2 C0 1.34 0 0.68 0 0 Z " fill="#666767" transform="translate(30,30)"/>
<path d="M0 0 C1.17539996 0.92652701 2.34010577 1.86663387 3.5 2.8125 C4.1496875 3.33457031 4.799375 3.85664062 5.46875 4.39453125 C7 6 7 6 7 9 C6.01 8.67 5.02 8.34 4 8 C-1.5020961 7.73376954 -3.69552889 7.87821156 -9 10 C-9.33 13.63 -9.66 17.26 -10 21 C-10.33 21 -10.66 21 -11 21 C-11.70181278 16.81039037 -11.93057665 13.16520138 -11 9 C-7.77310245 5.30991142 -4.11085541 2.64269276 0 0 Z " fill="#E7E8E9" transform="translate(19,30)"/>
<path d="M0 0 C0.99 0 1.98 0 3 0 C3 2.31 3 4.62 3 7 C1.68 7 0.36 7 -1 7 C-1.20625 7.721875 -1.4125 8.44375 -1.625 9.1875 C-3.45248163 12.9255306 -5.70438806 14.49246917 -9 17 C-8.46823087 12.81970376 -7.19099765 10.58434556 -4.5 7.375 C-2.35400502 4.79804701 -1.06900688 3.20702064 0 0 Z " fill="#31B1C3" transform="translate(57,11)"/>
<path d="M0 0 C2 1.375 2 1.375 4 3 C4 3.66 4 4.32 4 5 C4.66 5 5.32 5 6 5 C6 6.32 6 7.64 6 9 C5.34 9 4.68 9 4 9 C4 8.34 4 7.68 4 7 C1.33793923 6.0384842 1.33793923 6.0384842 -2 6 C-4.58092227 7.38061311 -6.77955098 9.1014504 -9 11 C-9.66 10.67 -10.32 10.34 -11 10 C-3.70159453 2.51708428 -3.70159453 2.51708428 0 0 Z " fill="#30AEBE" transform="translate(20,24)"/>
<path d="M0 0 C2.97 0 5.94 0 9 0 C9 4 9 4 8 6 C4.37 6 0.74 6 -3 6 C-3.33 5.34 -3.66 4.68 -4 4 C-2.68 3.67 -1.36 3.34 0 3 C0 2.01 0 1.02 0 0 Z " fill="#999996" transform="translate(33,41)"/>
<path d="M0 0 C3.63 0.66 7.26 1.32 11 2 C11 2.33 11 2.66 11 3 C8.69 3 6.38 3 4 3 C4 3.66 4 4.32 4 5 C6.64 5 9.28 5 12 5 C12 5.33 12 5.66 12 6 C9.69 6 7.38 6 5 6 C5 6.99 5 7.98 5 9 C1.62496331 7.8141763 -0.64722731 6.72426311 -3 4 C-2.34 3.67 -1.68 3.34 -1 3 C-0.67 2.01 -0.34 1.02 0 0 Z " fill="#52514F" transform="translate(28,35)"/>
<path d="M0 0 C1.875 0.75 1.875 0.75 3.875 1.75 C3.875 2.41 3.875 3.07 3.875 3.75 C4.535 3.75 5.195 3.75 5.875 3.75 C5.875 4.41 5.875 5.07 5.875 5.75 C3.38138429 4.54618552 1.19356917 3.29571278 -1.125 1.75 C-1.95644531 2.41128906 -2.78789062 3.07257812 -3.64453125 3.75390625 C-4.74176696 4.6073118 -5.83944644 5.46014701 -6.9375 6.3125 C-7.48470703 6.75013672 -8.03191406 7.18777344 -8.59570312 7.63867188 C-10.0471958 8.75588139 -11.58310571 9.76128867 -13.125 10.75 C-14.115 10.42 -15.105 10.09 -16.125 9.75 C-13.64541164 5.52011398 -10.56110322 4.54000656 -6.125 2.75 C-5.0421875 1.88375 -5.0421875 1.88375 -3.9375 1 C-2.125 -0.25 -2.125 -0.25 0 0 Z " fill="#1F484E" transform="translate(20.125,29.25)"/>
<path d="M0 0 C2 1 2 1 3 3 C5.35599235 3.46751788 5.35599235 3.46751788 8.0625 3.625 C9.44115234 3.73714844 9.44115234 3.73714844 10.84765625 3.8515625 C11.55792969 3.90054688 12.26820312 3.94953125 13 4 C13 4.33 13 4.66 13 5 C9.37 5 5.74 5 2 5 C2.33 5.33 2.66 5.66 3 6 C2.01 6.495 2.01 6.495 1 7 C1 7.66 1 8.32 1 9 C1.99 9.33 2.98 9.66 4 10 C3.01 10 2.02 10 1 10 C1 10.66 1 11.32 1 12 C1.66 12.33 2.32 12.66 3 13 C2.01 13 1.02 13 0 13 C0.33 13.99 0.66 14.98 1 16 C0.34 16 -0.32 16 -1 16 C-1.02685095 13.52076199 -1.04676547 11.0418116 -1.0625 8.5625 C-1.07506836 7.50192383 -1.07506836 7.50192383 -1.08789062 6.41992188 C-1.09653588 4.61306441 -1.05220011 2.80612397 -1 1 C-0.67 0.67 -0.34 0.34 0 0 Z " fill="#151616" transform="translate(10,39)"/>
<path d="M0 0 C-0.375 2.4375 -0.375 2.4375 -1 5 C-3.58008592 6.29004296 -5.55741574 6.20410224 -8.4375 6.25 C-9.40558594 6.27578125 -10.37367187 6.3015625 -11.37109375 6.328125 C-14 6 -14 6 -15.84765625 4.484375 C-16.22792969 3.99453125 -16.60820312 3.5046875 -17 3 C-16.01 3 -15.02 3 -14 3 C-14 2.67 -14 2.34 -14 2 C-12.04200486 1.66468585 -10.08359226 1.33180857 -8.125 1 C-6.48917969 0.7215625 -6.48917969 0.7215625 -4.8203125 0.4375 C-2 0 -2 0 0 0 Z " fill="#949490" transform="translate(44,47)"/>
<path d="M0 0 C0.91007812 0.00902344 1.82015625 0.01804688 2.7578125 0.02734375 C3.45648438 0.03894531 4.15515625 0.05054688 4.875 0.0625 C4.875 1.3825 4.875 2.7025 4.875 4.0625 C3.25081255 4.14340971 1.62548255 4.20164995 0 4.25 C-0.90492187 4.28480469 -1.80984375 4.31960937 -2.7421875 4.35546875 C-3.92167969 4.21044922 -3.92167969 4.21044922 -5.125 4.0625 C-5.785 3.0725 -6.445 2.0825 -7.125 1.0625 C-4.60024538 -0.19987731 -2.81299534 -0.03606404 0 0 Z " fill="#B4B3B1" transform="translate(18.125,38.9375)"/>
<path d="M0 0 C0 3 0 3 -2.44921875 5.6328125 C-5.77587284 9.42766235 -5.7752441 12.99033811 -5.8125 17.875 C-5.83763672 18.65875 -5.86277344 19.4425 -5.88867188 20.25 C-5.94709064 22.16613555 -5.97651926 24.08311793 -6 26 C-6.33 26 -6.66 26 -7 26 C-7.02689449 23.04160645 -7.04678741 20.08345573 -7.0625 17.125 C-7.07087891 16.28324219 -7.07925781 15.44148438 -7.08789062 14.57421875 C-7.09111328 13.76855469 -7.09433594 12.96289062 -7.09765625 12.1328125 C-7.10289307 11.38918457 -7.10812988 10.64555664 -7.11352539 9.87939453 C-7 8 -7 8 -6 6 C-6.66 5.67 -7.32 5.34 -8 5 C-5.80084649 2.47097346 -4.26422245 1.65284449 -1 1 C-0.67 0.67 -0.34 0.34 0 0 Z " fill="#A3A2A4" transform="translate(56,25)"/>
<path d="M0 0 C1.62818946 0.22830701 3.2526349 0.48343576 4.875 0.75 C6.23238281 0.95882812 6.23238281 0.95882812 7.6171875 1.171875 C10 2 10 2 11.3203125 4.078125 C11.54460938 4.71234375 11.76890625 5.3465625 12 6 C10.37509046 6.02698189 8.75005367 6.04638757 7.125 6.0625 C5.76761719 6.07990234 5.76761719 6.07990234 4.3828125 6.09765625 C2 6 2 6 0 5 C0 3.35 0 1.7 0 0 Z " fill="#A4A4A4" transform="translate(11,46)"/>
<path d="M0 0 C0.66 0 1.32 0 2 0 C1.67 6.6 1.34 13.2 1 20 C0.34 19.67 -0.32 19.34 -1 19 C-1.02683987 16.02077407 -1.04676037 13.04178705 -1.0625 10.0625 C-1.07087891 9.21236328 -1.07925781 8.36222656 -1.08789062 7.48632812 C-1.09111328 6.67744141 -1.09433594 5.86855469 -1.09765625 5.03515625 C-1.10289307 4.2862915 -1.10812988 3.53742676 -1.11352539 2.76586914 C-1 1 -1 1 0 0 Z " fill="#F2F2F1" transform="translate(48,31)"/>
<path d="M0 0 C3.0625 1 3.0625 1 5 2 C2 3 2 3 -1 2 C-6.33295432 1.656509 -6.33295432 1.656509 -11 4 C-11.22609337 6.12364481 -11.22609337 6.12364481 -9.5 7.625 C-9.005 8.07875 -8.51 8.5325 -8 9 C-9.65 9 -11.3 9 -13 9 C-13.33 7.35 -13.66 5.7 -14 4 C-9.63378443 -0.50706123 -5.9431372 -0.75229585 0 0 Z " fill="#3A383B" transform="translate(40,14)"/>
<path d="M0 0 C-1.98 0.66 -3.96 1.32 -6 2 C-5.01 3.485 -5.01 3.485 -4 5 C-5.65 7.31 -7.3 9.62 -9 12 C-9.33 11.01 -9.66 10.02 -10 9 C-8.5625 6.3125 -8.5625 6.3125 -7 4 C-7.66 4 -8.32 4 -9 4 C-8.67 2.68 -8.34 1.36 -8 0 C-4.94736336 -0.98120464 -3.05263664 -0.98120464 0 0 Z " fill="#DDE3E4" transform="translate(58,10)"/>
<path d="M0 0 C1.32 0.99 2.64 1.98 4 3 C3.34 3 2.68 3 2 3 C2.33 5.31 2.66 7.62 3 10 C2.34 10 1.68 10 1 10 C1.33 12.31 1.66 14.62 2 17 C1.34 17 0.68 17 0 17 C-1.23104155 13.31599416 -0.90767252 10.08525024 -0.5625 6.25 C-0.46066406 5.07953125 -0.35882812 3.9090625 -0.25390625 2.703125 C-0.17011719 1.81109375 -0.08632813 0.9190625 0 0 Z " fill="#161B1C" transform="translate(26,22)"/>
<path d="M0 0 C0.33 0 0.66 0 1 0 C0.67 5.61 0.34 11.22 0 17 C-0.66 16.67 -1.32 16.34 -2 16 C-1.67 15.01 -1.34 14.02 -1 13 C-1.66 12.67 -2.32 12.34 -3 12 C-2.34 12 -1.68 12 -1 12 C-1.33 11.01 -1.66 10.02 -2 9 C-1.5625 6.3125 -1.5625 6.3125 -1 4 C-2.98 4.33 -4.96 4.66 -7 5 C-4.38058783 3.25372522 -2.96175123 2.61277612 0 2 C0 1.34 0 0.68 0 0 Z " fill="#181818" transform="translate(46,33)"/>
<path d="M0 0 C-1.13304992 3.39914975 -2.12518475 4.05254451 -5 6 C-5.99 5.34 -6.98 4.68 -8 4 C-5.97675095 -0.48005146 -4.79569304 -1.43870791 0 0 Z " fill="#BDBDBB" transform="translate(36,16)"/>
<path d="M0 0 C0 0.66 0 1.32 0 2 C-0.9590625 2.1546875 -0.9590625 2.1546875 -1.9375 2.3125 C-2.618125 2.539375 -3.29875 2.76625 -4 3 C-4.33 3.99 -4.66 4.98 -5 6 C-4.34 6 -3.68 6 -3 6 C-3 6.99 -3 7.98 -3 9 C-6 9 -6 9 -7.4375 7.625 C-7.953125 7.08875 -8.46875 6.5525 -9 6 C-11.09989652 4.82425289 -11.09989652 4.82425289 -13 4 C-10.69 4.33 -8.38 4.66 -6 5 C-5.8453125 4.0409375 -5.8453125 4.0409375 -5.6875 3.0625 C-5.460625 2.381875 -5.23375 1.70125 -5 1 C-2 0 -2 0 0 0 Z " fill="#6D6D6D" transform="translate(54,8)"/>
<path d="M0 0 C0 4.62 0 9.24 0 14 C-0.33 14 -0.66 14 -1 14 C-1.33 10.04 -1.66 6.08 -2 2 C-4.31 1.67 -6.62 1.34 -9 1 C-5.28732913 -1.33760758 -4.80554252 -0.9611085 0 0 Z " fill="#787C7A" transform="translate(64,8)"/>
<path d="M0 0 C2.97 0 5.94 0 9 0 C8.67 0.99 8.34 1.98 8 3 C5.36 3 2.72 3 0 3 C0 2.01 0 1.02 0 0 Z " fill="#D3D3D1" transform="translate(33,41)"/>
<path d="M0 0 C3.63 0.33 7.26 0.66 11 1 C11 1.66 11 2.32 11 3 C7.7 3 4.4 3 1 3 C0.67 2.01 0.34 1.02 0 0 Z " fill="#CFD1CF" transform="translate(29,26)"/>
<path d="M0 0 C3.3 0.33 6.6 0.66 10 1 C10 1.66 10 2.32 10 3 C6.7 3 3.4 3 0 3 C0 2.01 0 1.02 0 0 Z " fill="#D7D8D5" transform="translate(31,34)"/>
<path d="M0 0 C1.65 0.33 3.3 0.66 5 1 C4.67 1.99 4.34 2.98 4 4 C2.02 4 0.04 4 -2 4 C-1.34 2.68 -0.68 1.36 0 0 Z " fill="#BEC0C1" transform="translate(16,32)"/>
<path d="M0 0 C3.3 0 6.6 0 10 0 C10.33 0.99 10.66 1.98 11 3 C9.741875 3.020625 8.48375 3.04125 7.1875 3.0625 C6.47980469 3.07410156 5.77210937 3.08570313 5.04296875 3.09765625 C3 3 3 3 0 2 C0 1.34 0 0.68 0 0 Z " fill="#D0CFD1" transform="translate(30,30)"/>
<path d="M0 0 C0.33 0 0.66 0 1 0 C1 3.3 1 6.6 1 10 C-0.98 8.35 -2.96 6.7 -5 5 C-4.01 5 -3.02 5 -2 5 C-1.34 3.35 -0.68 1.7 0 0 Z " fill="#E9EDED" transform="translate(25,17)"/>
<path d="M0 0 C0.99 0.495 0.99 0.495 2 1 C2 1.66 2 2.32 2 3 C2.99 3.33 3.98 3.66 5 4 C4.01 4 3.02 4 2 4 C2 4.66 2 5.32 2 6 C2.66 6.33 3.32 6.66 4 7 C3.01 7 2.02 7 1 7 C1.33 7.99 1.66 8.98 2 10 C1.34 10 0.68 10 0 10 C0 6.7 0 3.4 0 0 Z " fill="#252624" transform="translate(9,45)"/>
<path d="M0 0 C0.763125 0.0825 1.52625 0.165 2.3125 0.25 C0.6625 1.9 -0.9875 3.55 -2.6875 5.25 C-3.6775 4.92 -4.6675 4.59 -5.6875 4.25 C-3.34903846 0.31153846 -3.34903846 0.31153846 0 0 Z " fill="#213F45" transform="translate(9.6875,34.75)"/>
<path d="M0 0 C0.66 0.33 1.32 0.66 2 1 C2 1.66 2 2.32 2 3 C2.66 3 3.32 3 4 3 C4 4.32 4 5.64 4 7 C3.34 7 2.68 7 2 7 C2 6.34 2 5.68 2 5 C0.02 4.34 -1.96 3.68 -4 3 C-2.68 2.67 -1.36 2.34 0 2 C0 1.34 0 0.68 0 0 Z " fill="#229DAC" transform="translate(22,26)"/>
<path d="M0 0 C0.66 0.33 1.32 0.66 2 1 C2 3 2 3 -0.3125 5.625 C-3 8 -3 8 -6 8 C-4.02 5.36 -2.04 2.72 0 0 Z " fill="#E6EBE9" transform="translate(58,19)"/>
<path d="M0 0 C3.63 0 7.26 0 11 0 C11 0.33 11 0.66 11 1 C9.35 1.33 7.7 1.66 6 2 C6 2.33 6 2.66 6 3 C3.69 3 1.38 3 -1 3 C-0.67 2.01 -0.34 1.02 0 0 Z " fill="#B2B2B2" transform="translate(30,11)"/>
<path d="M0 0 C6.52307692 -0.36923077 6.52307692 -0.36923077 8.9375 1.5 C9.288125 1.995 9.63875 2.49 10 3 C2.25 2.25 2.25 2.25 0 0 Z " fill="#E2E2E2" transform="translate(34,12)"/>
<path d="M0 0 C1.98 0 3.96 0 6 0 C6.33 0.99 6.66 1.98 7 3 C4.625 3.1875 4.625 3.1875 2 3 C1.34 2.01 0.68 1.02 0 0 Z " fill="#BBC1BD" transform="translate(11,40)"/>
</svg>
